<svg width="80" height="80" viewBox="0 0 80 80" fill="none" xmlns="http://www.w3.org/2000/svg">
<path d="M46.6665 53.3332C46.6665 59.2332 44.0998 64.5665 39.9998 68.1999C36.4665 71.3999 31.7998 73.3332 26.6665 73.3332C15.6332 73.3332 6.6665 64.3665 6.6665 53.3332C6.6665 44.1332 12.9332 36.3332 21.3998 34.0332C23.6998 39.8332 28.6332 44.2999 34.7332 45.9665C36.3998 46.4332 38.1665 46.6665 39.9998 46.6665C41.8332 46.6665 43.5998 46.4332 45.2665 45.9665C46.1665 48.2332 46.6665 50.7332 46.6665 53.3332Z" stroke="#E69138" stroke-width="3" stroke-linecap="round" stroke-linejoin="round"/>
<path d="M60 26.6665C60 29.2665 59.5 31.7665 58.6 34.0332C56.3 39.8332 51.3667 44.2998 45.2667 45.9665C43.6 46.4332 41.8333 46.6665 40 46.6665C38.1667 46.6665 36.4 46.4332 34.7333 45.9665C28.6333 44.2998 23.7 39.8332 21.4 34.0332C20.5 31.7665 20 29.2665 20 26.6665C20 15.6332 28.9667 6.6665 40 6.6665C51.0333 6.6665 60 15.6332 60 26.6665Z" stroke="#E69138" stroke-width="3" stroke-linecap="round" stroke-linejoin="round"/>
<path d="M73.3333 53.3332C73.3333 64.3665 64.3667 73.3332 53.3333 73.3332C48.2 73.3332 43.5333 71.3999 40 68.1999C44.1 64.5665 46.6667 59.2332 46.6667 53.3332C46.6667 50.7332 46.1667 48.2332 45.2667 45.9665C51.3667 44.2999 56.3 39.8332 58.6 34.0332C67.0667 36.3332 73.3333 44.1332 73.3333 53.3332Z" stroke="#E69138" stroke-width="3" stroke-linecap="round" stroke-linejoin="round"/>
</svg>
