<svg width="40" height="41" viewBox="0 0 40 41" fill="none" xmlns="http://www.w3.org/2000/svg">
<path d="M9.28334 38.3334C5.38334 38.3334 2.08334 35.0334 2.08334 31.1334V20.8667C2 16.0001 3.8 11.4167 7.16667 7.98341C10.5333 4.56675 15.05 2.66675 19.9167 2.66675C29.85 2.66675 37.9167 10.7501 37.9167 20.6667V30.9334C37.9167 34.9001 34.6833 38.1334 30.7167 38.1334C26.8167 38.1334 23.5167 34.8334 23.5167 30.9334V26.2501C23.5167 23.8334 25.4167 21.9334 27.8333 21.9334C30.25 21.9334 32.15 23.8334 32.15 26.2501V31.3001C32.15 31.9834 31.5833 32.5501 30.9 32.5501C30.2167 32.5501 29.65 31.9834 29.65 31.3001V26.2501C29.65 25.1167 28.7333 24.4334 27.8333 24.4334C26.7 24.4334 26.0167 25.3501 26.0167 26.2501V30.9334C26.0167 33.4834 28.1667 35.6334 30.7167 35.6334C33.2667 35.6334 35.4167 33.4834 35.4167 30.9334V20.6667C35.4167 12.1167 28.4667 5.16675 19.9167 5.16675C15.7333 5.16675 11.85 6.78341 8.95 9.73341C6.05 12.6834 4.5 16.6334 4.58334 20.8334V31.1334C4.58334 33.6834 6.73334 35.8334 9.28334 35.8334C11.8333 35.8334 13.9833 33.6834 13.9833 31.1334V26.4501C13.9833 25.3167 13.0667 24.6334 12.1667 24.6334C11.0333 24.6334 10.35 25.5501 10.35 26.4501V31.3167C10.35 32.0001 9.78334 32.5667 9.1 32.5667C8.41667 32.5667 7.85 32.0001 7.85 31.3167V26.4501C7.85 24.0334 9.75 22.1334 12.1667 22.1334C14.5833 22.1334 16.4833 24.0334 16.4833 26.4501V31.1334C16.4833 35.0334 13.1833 38.3334 9.28334 38.3334Z" fill="#162929"/>
</svg>
