<svg width="73" height="66" viewBox="0 0 73 66" fill="none" xmlns="http://www.w3.org/2000/svg">
<path d="M53.2399 1.13477C54.1263 1.13477 55.0127 1.26172 55.7725 1.76953C59.4447 3.92773 62.737 6.84766 65.3962 10.2754C65.9028 10.7832 66.2826 11.5449 66.2826 12.3066C67.0424 12.6875 67.5489 13.1953 68.0554 13.8301C70.0815 17.1309 71.4744 20.6855 72.4874 24.4941C72.7407 26.0176 72.3608 27.4141 71.2212 28.4297C70.2081 29.4453 68.6886 29.8262 67.2957 29.4453C57.6719 26.5254 47.5416 24.875 37.0315 24.875C35.132 24.875 33.3592 25.002 31.7131 25.002C30.0669 26.0176 28.4207 26.9062 26.9012 27.9219C28.5473 28.0488 29.9403 29.3184 29.9403 30.9688C29.9403 32.7461 28.5473 34.0156 26.9012 34.0156C25.255 34.0156 23.8621 32.7461 23.8621 30.9688C23.8621 30.7148 23.8621 30.4609 23.9887 30.0801C18.4171 34.3965 13.4785 39.6016 9.55306 45.4414C8.66667 46.8379 7.14712 47.4727 5.62758 47.2188C4.10804 47.0918 2.84175 45.9492 2.33524 44.5527C1.19558 40.8711 0.562439 37.0625 0.562439 33C0.562439 32.6191 0.562439 32.2383 0.562439 31.7305C0.562439 30.8418 0.942325 29.9531 1.44884 29.3184C1.82872 28.9375 2.08198 28.5566 2.46187 28.1758C1.57547 27.1602 1.19558 25.8906 1.44884 24.4941C2.46187 20.6855 3.85478 17.1309 5.88084 13.8301C6.51398 12.9414 7.40038 12.3066 8.41341 12.0527C9.93295 11.6719 11.5791 11.291 13.0987 11.0371C19.0502 4.5625 27.5343 0.5 36.9048 0.5C40.4504 0.5 43.8694 1.13477 47.1617 2.15039C49.0612 1.76953 51.0872 1.38867 53.2399 1.13477ZM37.0315 4.5625C30.9533 4.5625 25.255 6.4668 20.6964 9.76758C22.8491 9.51367 25.0017 9.25977 27.1544 9.13281C30.5734 7.35547 34.2456 5.83203 37.9179 4.68945C37.538 4.68945 37.2847 4.5625 37.0315 4.5625ZM64.6365 16.1152V15.9883C60.711 15.0996 56.7855 14.3379 52.7334 13.8301C52.4801 13.7031 52.2269 13.7031 51.847 13.7031C47.0351 13.0684 41.97 12.6875 37.0315 12.6875C33.9924 12.6875 31.0799 12.8145 28.2941 13.0684C25.0017 13.3223 21.836 13.7031 18.6703 14.2109C18.5437 14.2109 18.4171 14.2109 18.2904 14.2109C15.2513 14.7188 12.3389 15.3535 9.29981 15.9883C8.41341 17.5117 7.65364 19.1621 6.89387 20.8125C6.38735 22.082 6.00747 23.3516 5.62758 24.748C5.50095 25.002 5.50095 25.2559 5.37432 25.5098C6.89387 25.002 8.41341 24.6211 9.93295 24.2402C10.8194 23.9863 11.7057 23.7324 12.5921 23.6055C18.4171 22.209 24.3686 21.4473 30.5734 21.0664C32.5995 20.9395 34.7521 20.8125 37.0315 20.8125C38.1711 20.8125 39.3108 20.9395 40.4504 20.9395C40.4504 20.9395 40.4504 20.9395 40.5771 20.9395C48.5547 21.1934 56.4056 22.3359 64.0033 24.2402C65.5229 24.6211 67.0424 25.002 68.562 25.5098C68.1821 23.8594 67.6756 22.3359 67.0424 20.8125C66.2826 19.1621 65.5229 17.6387 64.6365 16.1152ZM22.8491 25.8906C17.404 26.6523 12.0856 27.7949 6.89387 29.3184C6.13409 30.207 5.37432 30.9688 4.61455 31.8574C4.61455 32.2383 4.61455 32.6191 4.61455 33C4.61455 34.7773 4.61455 36.4277 4.86781 37.9512C5.24769 39.7285 5.62758 41.5059 6.13409 43.2832C7.14712 41.7598 8.16015 40.3633 9.17318 38.9668C13.0987 34.0156 17.7839 29.5723 22.8491 25.8906ZM38.551 8.75195C46.1487 8.75195 53.6198 9.64062 60.8376 11.0371C60.0778 10.2754 59.3181 9.51367 58.5583 8.87891C57.0388 7.48242 55.3926 6.21289 53.7464 5.19727C48.428 5.83203 43.3629 7.10156 38.551 8.75195ZM37.0315 65.5C26.3947 65.5 16.8975 60.4219 11.0726 52.5508C10.3128 51.6621 10.5661 50.3926 11.4525 49.7578C12.3389 48.9961 13.6052 49.25 14.2383 50.1387C19.4301 56.9941 27.6609 61.4375 37.0315 61.4375C51.9736 61.4375 64.2566 49.7578 65.2696 34.9043C65.3962 33.8887 66.2826 33 67.4223 33C68.562 33.127 69.4484 34.1426 69.3217 35.2852C68.1821 52.1699 54.1263 65.5 37.0315 65.5ZM38.0445 47.2188C36.2717 47.2188 34.8788 47.4727 33.4859 47.9805C32.4728 48.2344 31.3332 47.7266 30.9533 46.584C30.7 45.5684 31.2065 44.4258 32.3462 44.0449C33.9924 43.5371 35.8918 43.1562 38.0445 43.1562C43.6161 43.1562 47.7949 45.5684 50.4541 47.9805C51.3405 48.7422 51.3405 50.0117 50.5807 50.9004C49.8209 51.6621 48.5547 51.7891 47.7949 51.0273C45.6422 49.123 42.3499 47.2188 38.0445 47.2188ZM50.2008 30.9688C50.2008 32.7461 48.8079 34.0156 47.1617 34.0156C45.5156 34.0156 44.1227 32.7461 44.1227 30.9688C44.1227 29.3184 45.5156 27.9219 47.1617 27.9219C48.8079 27.9219 50.2008 29.3184 50.2008 30.9688Z" fill="#000C84"/>
<path d="M53.1143 1.13313C54.0007 1.13313 54.8871 1.25976 55.6468 1.76627C59.319 3.91892 62.6113 6.83134 65.2705 10.2503C65.777 10.7568 66.1569 11.5165 66.1569 12.2763C66.9166 12.6562 67.4231 13.1627 67.9296 13.7958C69.9557 17.0881 71.3486 20.6337 72.3616 24.4325C72.6148 25.952 72.235 27.3449 71.0953 28.3579C70.0823 29.3709 68.5628 29.7508 67.1699 29.3709C57.5462 26.4585 47.4161 24.8123 36.9061 24.8123C35.0067 24.8123 33.2339 24.939 31.5878 24.939C29.9416 25.952 28.2955 26.8384 26.7759 27.8514C25.6903 28.5751 23.8635 30.004 23.8635 30.004C18.2919 34.3094 13.3535 39.5011 9.42806 45.3259C8.54168 46.7188 7.02215 47.3519 5.50263 47.0987C3.98311 46.972 2.71684 45.8324 2.21034 44.4395C1.0707 40.7673 0.437561 36.9685 0.437561 32.9165C0.437561 32.5366 0.437561 32.1567 0.437561 31.6502C0.437561 30.7638 0.817441 29.8774 1.32395 29.2443C1.70383 28.8644 1.95708 28.4845 2.33696 28.1046C1.45058 27.0916 1.0707 25.8254 1.32395 24.4325C2.33696 20.6337 3.72986 17.0881 5.75589 13.7958C6.38902 12.9094 7.27541 12.2763 8.28842 12.023C9.80794 11.6432 11.4541 11.2633 12.9736 11.01C18.9251 4.55206 27.4091 0.5 36.7795 0.5C40.325 0.5 43.7439 1.13313 47.0362 2.14615C48.9356 1.76627 50.9617 1.38639 53.1143 1.13313ZM36.9061 4.55206C30.828 4.55206 25.1298 6.45146 20.5712 9.74376C22.7239 9.4905 24.8765 9.23725 27.0292 9.11062C30.4481 7.33785 34.1203 5.81833 37.7925 4.67868C37.4126 4.67868 37.1593 4.55206 36.9061 4.55206ZM64.5107 16.0751V15.9485C60.5853 15.0621 56.6599 14.3023 52.6078 13.7958C52.3545 13.6692 52.1013 13.6692 51.7214 13.6692C46.9096 13.0361 41.8445 12.6562 36.9061 12.6562C33.867 12.6562 30.9546 12.7828 28.1688 13.0361C24.8765 13.2893 21.7109 13.6692 18.5452 14.1757C18.4186 14.1757 18.2919 14.1757 18.1653 14.1757C15.1263 14.6822 12.2139 15.3153 9.17481 15.9485C8.28842 17.468 7.52866 19.1141 6.7689 20.7603C6.26239 22.0266 5.88251 23.2928 5.50263 24.6857C5.37601 24.939 5.37601 25.1922 5.24938 25.4455C6.7689 24.939 8.28842 24.5591 9.80794 24.1792C10.6943 23.926 11.5807 23.6727 12.4671 23.5461C18.2919 22.1532 24.2434 21.3934 30.4481 21.0135C32.4741 20.8869 34.6268 20.7603 36.9061 20.7603C38.0457 20.7603 39.1854 20.8869 40.325 20.8869C40.325 20.8869 40.325 20.8869 40.4516 20.8869C48.4291 21.1402 56.28 22.2798 63.8776 24.1792C65.3971 24.5591 66.9166 24.939 68.4361 25.4455C68.0563 23.7993 67.5498 22.2798 66.9166 20.7603C66.1569 19.1141 65.3971 17.5946 64.5107 16.0751ZM22.7239 25.8254C17.2789 26.5851 11.9606 27.7248 6.7689 29.2443C6.00914 30.1307 5.24938 30.8904 4.48962 31.7768C4.48962 32.1567 4.48962 32.5366 4.48962 32.9165C4.48962 34.6892 4.48962 36.3354 4.74287 37.8549C5.12275 39.6277 5.50263 41.4005 6.00914 43.1732C7.02215 41.6537 8.03517 40.2608 9.04818 38.8679C12.9736 33.9295 17.6588 29.4975 22.7239 25.8254ZM38.4256 8.73074C46.0232 8.73074 53.4942 9.61713 60.7119 11.01C59.9522 10.2503 59.1924 9.4905 58.4326 8.85737C56.9131 7.46447 55.267 6.19821 53.6208 5.18519C48.3025 5.81833 43.2374 7.08459 38.4256 8.73074Z" fill="#256AEF"/>
</svg>
