<svg width="80" height="80" viewBox="0 0 80 80" fill="none" xmlns="http://www.w3.org/2000/svg">
<path d="M43.3669 9.7334L63.0336 18.4667C68.7002 20.9667 68.7002 25.1001 63.0336 27.6001L43.3669 36.3334C41.1336 37.3334 37.4669 37.3334 35.2336 36.3334L15.5669 27.6001C9.90023 25.1001 9.90023 20.9667 15.5669 18.4667L35.2336 9.7334C37.4669 8.7334 41.1336 8.7334 43.3669 9.7334Z" stroke="#E69138" stroke-width="3" stroke-linecap="round" stroke-linejoin="round"/>
<path d="M10 36.6665C10 39.4665 12.1 42.6998 14.6667 43.8332L37.3 53.8998C39.0333 54.6665 41 54.6665 42.7 53.8998L65.3333 43.8332C67.9 42.6998 70 39.4665 70 36.6665" stroke="#E69138" stroke-width="3" stroke-linecap="round" stroke-linejoin="round"/>
<path d="M10 53.3335C10 56.4335 11.8333 59.2335 14.6667 60.5002L37.3 70.5668C39.0333 71.3335 41 71.3335 42.7 70.5668L65.3333 60.5002C68.1667 59.2335 70 56.4335 70 53.3335" stroke="#E69138" stroke-width="3" stroke-linecap="round" stroke-linejoin="round"/>
</svg>
