<svg width="50" height="50" viewBox="0 0 50 50" fill="none" xmlns="http://www.w3.org/2000/svg">
<path d="M17.4721 38.1608C17.4482 38.3985 17.4688 38.6469 17.5555 38.893C17.7671 39.4863 18.2638 39.9696 18.8521 40.1519C19.3988 40.3246 19.9427 40.2096 20.1077 40.0302L21.2482 38.8063C21.5782 38.4535 21.6616 37.8896 21.4677 37.3424C20.9905 36.428 20.351 36.098 19.5321 35.9502L17.4721 38.1608Z" fill="#0097A7"/>
<path d="M15.9463 32.041L13.953 34.1788C13.548 34.6193 13.4319 35.2966 13.658 35.9455C13.898 36.631 14.4708 37.1888 15.1563 37.3971C15.8052 37.5916 16.4563 37.4404 16.8641 37.0066L18.7097 35.0271C19.1174 34.5877 19.2308 33.9138 19.0047 33.2649C18.7647 32.576 18.1885 32.0204 17.5063 31.8132C16.9619 31.6393 16.323 31.6327 15.9463 32.041Z" fill="#0097A7"/>
<path d="M11.9948 28.5235L10.1543 30.4996C9.74873 30.9368 9.63539 31.6162 9.85928 32.2674C10.0993 32.9507 10.6721 33.5085 11.3576 33.7168C12.0054 33.914 12.6632 33.7601 12.8682 33.5429L14.9115 31.3501C15.3193 30.9096 15.4326 30.2324 15.2065 29.5846C14.9654 28.8968 14.3926 28.3412 13.7071 28.1351C13.0765 27.9296 12.3787 28.1124 11.9948 28.5235Z" fill="#0097A7"/>
<path d="M8.39402 24.6279L6.35402 26.8217C5.94624 27.2612 5.83291 27.9351 6.05902 28.5806C6.2968 29.2717 6.87291 29.8273 7.55846 30.0356C8.20624 30.229 8.86291 30.079 9.06569 29.859L11.1112 27.6662V27.664C11.519 27.2301 11.6324 26.5551 11.4062 25.9073C11.1696 25.2162 10.5935 24.6606 9.90791 24.4545C9.38402 24.274 8.75013 24.2429 8.39402 24.6279Z" fill="#0097A7"/>
<path d="M34.8784 11.5439C33.559 12.2817 31.7251 12.4139 29.939 12.5423C28.5879 12.6345 27.194 12.7323 26.1923 13.1023L20.6229 15.1573C20.5851 15.1723 20.5467 15.1812 20.5067 15.1867C20.2379 15.2289 19.989 15.2651 19.7656 15.2962C18.4095 15.4873 18.2529 15.5456 18.0967 15.9473C17.9545 16.3184 18.1106 16.8534 18.4962 17.3078C18.8106 17.6812 20.0412 18.8467 22.5729 18.2473L25.7445 17.8284C27.5206 17.5995 28.9445 18.7573 30.0817 19.6917L38.6112 26.5151L38.6179 26.5117C40.304 25.8062 42.0606 24.8884 43.554 23.0895L34.8784 11.5439Z" fill="#0097A7"/>
<path d="M23.1417 11.1292C22.6362 11.1759 22.0567 11.2398 21.449 11.3031C18.0873 11.662 16.2234 11.8031 15.2751 11.6275L6.54785 22.987C6.86896 23.2909 7.13507 23.6064 7.34952 23.9481C8.07896 23.2014 9.18119 22.9348 10.2545 23.2592C11.3079 23.577 12.1873 24.4309 12.5551 25.4903C12.7112 25.9386 12.7601 26.3987 12.7201 26.8392C13.1506 26.7787 13.6056 26.8036 14.0534 26.9403C15.104 27.2559 15.9867 28.112 16.3517 29.1714C16.5101 29.6175 16.5601 30.0764 16.5223 30.517C16.9529 30.4564 17.4079 30.482 17.8556 30.6214C18.904 30.9392 19.7829 31.7931 20.1506 32.847C20.3817 33.5153 20.3906 34.2031 20.2029 34.8198C20.3101 34.8403 20.4201 34.8664 20.5295 34.9009C21.4701 35.1925 22.269 35.9653 22.6129 36.9181C22.9406 37.8403 22.7984 38.8092 22.2601 39.5048L23.8084 40.7431C24.1873 41.0436 24.7395 41.0764 25.2551 40.8264C25.814 40.5553 26.2362 40.0048 26.3606 39.3886C26.4129 39.1314 26.3956 38.882 26.3367 38.6509L24.3729 37.0798C24.109 36.8681 24.0623 36.4775 24.2684 36.2064C24.4767 35.9375 24.859 35.8875 25.1245 36.0992L27.4856 37.9914C27.7201 38.1792 28.3917 38.2292 29.0079 37.9392C29.6556 37.6298 30.1451 36.992 30.2806 36.2803C30.4106 35.6075 30.2023 34.9553 29.739 34.582L27.6034 32.8731C27.3373 32.6614 27.2906 32.2698 27.499 32.002C27.7051 31.7298 28.0895 31.6798 28.3529 31.8948L31.4573 34.3775C31.924 34.7486 32.5945 34.7998 33.214 34.5109C33.8562 34.2036 34.3456 33.567 34.4845 32.8475C34.6145 32.1748 34.4062 31.5248 33.9379 31.1481L30.8323 28.6686C30.5662 28.4548 30.5195 28.0642 30.7279 27.7909C30.9362 27.5231 31.3184 27.4764 31.5851 27.6875C31.5851 27.6875 36.3006 31.4581 36.304 31.4581C36.5384 31.6425 37.2067 31.6948 37.8201 31.4014C38.469 31.0986 38.9551 30.462 39.0962 29.7448C39.224 29.0709 39.0156 28.4164 38.5495 28.0464L29.3201 20.6603C28.2612 19.792 27.1673 18.8925 25.8967 19.0631L22.789 19.4686C20.694 19.972 18.7179 19.4742 17.5751 18.1231C16.8862 17.3092 16.6517 16.3025 16.9612 15.4931C17.3951 14.3703 18.2262 14.2542 19.5979 14.0609C19.8029 14.0348 20.0234 14.0025 20.2662 13.9642L25.7784 11.9309C26.1367 11.7975 26.5334 11.7053 26.944 11.6236C25.5267 11.0753 24.4995 11.0425 23.1417 11.1292Z" fill="#0097A7"/>
<path d="M11.1637 8.97688C10.1598 8.90077 9.24312 9.65744 7.92368 11.3758L4.54924 15.7713C3.32868 17.3569 2.87146 18.343 2.97257 19.1785C3.05368 19.8652 3.53146 20.5391 4.00535 20.9191L5.6059 22.1974L14.2976 10.8847L13.1726 9.98411C12.3992 9.36744 11.7659 9.02355 11.1637 8.97688Z" fill="#0097A7"/>
<path d="M39.0347 8.96515C38.4325 9.00293 37.7936 9.33959 37.0142 9.94737L35.877 10.8296L44.4481 22.2346L45.5558 21.3729C46.5142 20.6296 47.0031 19.9646 47.0925 19.2785C47.2031 18.4451 46.7603 17.4513 45.5592 15.8451L42.2397 11.4074C40.9464 9.67126 40.0414 8.9007 39.0347 8.96515Z" fill="#0097A7"/>
</svg>
