<svg width="117" height="38" viewBox="0 0 117 38" fill="none" xmlns="http://www.w3.org/2000/svg">
<g clip-path="url(#clip0_225_364)">
<path d="M18.6983 29.1606C15.8342 29.1606 13.4004 27.2907 11.8719 25.7177C11.2338 25.0648 10.937 24.7383 10.5066 23.9369C10.1801 23.3285 8.9039 23.6104 8.32515 23.9369C7.62767 24.3079 7.79091 24.7234 7.85027 24.8422C8.42903 25.9106 9.14135 26.8901 10.0021 27.7508C12.3468 30.0955 15.4632 31.3866 18.7725 31.3866C23.4322 31.3866 27.6467 28.8044 29.7837 24.6641C30.6889 22.9278 31.1638 20.9541 31.1638 18.9952C31.1638 15.3743 29.5759 11.9463 26.8305 9.5867C24.5897 7.65751 21.7256 6.60388 18.7725 6.60388C16.3239 6.60388 13.3262 7.68719 11.308 9.30475C9.2007 10.9817 8.56259 11.5011 8.11739 13.727C7.96899 14.4839 8.26579 14.7955 8.85939 15.122C9.28974 15.3594 9.76462 15.3891 10.0911 15.1962C10.3434 15.0478 10.4769 14.7955 10.4918 14.4839C10.5215 13.1186 11.2635 11.9314 12.7771 10.8629C14.1721 9.85382 16.1458 9.37895 18.7873 9.37895C21.221 9.37895 23.5509 10.299 25.3466 11.9611C27.157 13.6528 28.1216 16.0866 28.1216 19.0249C28.1216 20.6128 27.7951 21.889 27.0086 23.3285C25.4356 26.1332 22.4528 29.1606 18.6983 29.1606Z" fill="#D2691E"/>
<path d="M32.3065 26.979C31.6091 28.2849 31.0897 28.834 30.0805 29.8728C27.1868 32.8408 23.2987 35.4081 19.0396 35.4081C13.1333 35.4081 8.26584 30.8077 5.63917 25.955C4.43714 23.7439 3.84354 21.6811 3.84354 18.9951C3.84354 14.4986 5.28302 10.4325 8.35488 7.5832C11.1299 5.00105 14.8548 3.41318 18.9506 3.41318C22.2896 3.41318 25.9402 3.9029 28.6411 5.83209C30.6148 7.24189 32.3511 9.18592 32.4104 11.8719C32.4253 12.8069 33.464 12.9256 34.2802 12.4804C35.1113 12.0352 35.3932 11.7087 35.2152 10.7886C34.5622 7.49416 33.746 6.81153 30.3773 4.1255C27.439 1.78079 22.8535 0 18.9654 0C14.2612 0 9.95759 1.72143 6.63345 4.5707C2.56731 8.05808 0 13.2224 0 18.9803C0 22.1115 0.756836 25.0646 2.10727 27.6616C5.26818 33.7608 11.6345 37.9457 18.9654 37.9457C24.0852 37.9457 28.8933 35.8978 32.3956 32.3807C33.6866 31.0897 34.7996 29.6057 35.69 27.9436C36.1056 27.1274 32.7517 26.148 32.3065 26.979Z" fill="#D2691E"/>
<path d="M39.3413 26.5715V15.4368H40.4079V26.5715H39.3413ZM39.8746 12.7278C39.6328 12.7278 39.4266 12.6424 39.256 12.4718C39.0853 12.3011 39 12.1021 39 11.8745C39 11.6328 39.0853 11.4266 39.256 11.2559C39.4266 11.0853 39.6328 11 39.8746 11C40.1306 11 40.3368 11.0853 40.4932 11.2559C40.6638 11.4124 40.7492 11.6114 40.7492 11.8532C40.7492 12.0949 40.6638 12.3011 40.4932 12.4718C40.3368 12.6424 40.1306 12.7278 39.8746 12.7278ZM47.7828 15.3515C48.6929 15.3515 49.4822 15.5292 50.1506 15.8847C50.8331 16.226 51.3593 16.7522 51.729 17.4632C52.113 18.16 52.305 19.0275 52.305 20.0656V26.5715H51.2384V20.1509C51.2384 18.8995 50.9185 17.9467 50.2785 17.2926C49.6528 16.6384 48.7712 16.3113 47.6335 16.3113C46.7661 16.3113 46.0124 16.4891 45.3724 16.8446C44.7325 17.2001 44.2419 17.6979 43.9006 18.3378C43.5735 18.9777 43.41 19.7456 43.41 20.6415V26.5715H42.3435V15.4368H43.3673V18.5298L43.218 18.1885C43.5593 17.3068 44.121 16.6171 44.9032 16.1194C45.6853 15.6074 46.6452 15.3515 47.7828 15.3515ZM59.5756 15.3515C60.4858 15.3515 61.275 15.5292 61.9434 15.8847C62.626 16.226 63.1521 16.7522 63.5219 17.4632C63.9058 18.16 64.0978 19.0275 64.0978 20.0656V26.5715H63.0313V20.1509C63.0313 18.8995 62.7113 17.9467 62.0714 17.2926C61.4457 16.6384 60.564 16.3113 59.4263 16.3113C58.5589 16.3113 57.8052 16.4891 57.1653 16.8446C56.5253 17.2001 56.0347 17.6979 55.6934 18.3378C55.3664 18.9777 55.2028 19.7456 55.2028 20.6415V26.5715H54.1363V15.4368H55.1602V18.5298L55.0108 18.1885C55.3521 17.3068 55.9138 16.6171 56.696 16.1194C57.4781 15.6074 58.438 15.3515 59.5756 15.3515ZM72.947 26.5715V24.0331L72.9043 23.6492V19.4683C72.9043 18.4302 72.6199 17.641 72.0511 17.1006C71.4965 16.5602 70.6788 16.29 69.598 16.29C68.8301 16.29 68.112 16.4251 67.4436 16.6953C66.7894 16.9513 66.2277 17.2855 65.7584 17.6979L65.2252 16.9299C65.7798 16.4322 66.4481 16.0483 67.2303 15.7781C68.0124 15.4937 68.8301 15.3515 69.6833 15.3515C71.0627 15.3515 72.1222 15.6999 72.8616 16.3967C73.6011 17.0935 73.9708 18.1316 73.9708 19.511V26.5715H72.947ZM68.9367 26.6568C68.112 26.6568 67.3938 26.5288 66.7823 26.2729C66.1851 26.0027 65.7229 25.6258 65.3958 25.1423C65.083 24.6588 64.9265 24.1042 64.9265 23.4785C64.9265 22.9097 65.0545 22.3978 65.3105 21.9427C65.5807 21.4734 66.0215 21.0966 66.633 20.8122C67.2445 20.5135 68.0622 20.3642 69.0861 20.3642H73.1816V21.1961H69.1074C67.9555 21.1961 67.145 21.4094 66.6757 21.836C66.2206 22.2627 65.9931 22.7959 65.9931 23.4359C65.9931 24.1469 66.2633 24.7157 66.8037 25.1423C67.344 25.5689 68.1048 25.7823 69.0861 25.7823C70.0246 25.7823 70.8139 25.5689 71.4538 25.1423C72.1079 24.7157 72.5914 24.0971 72.9043 23.2865L73.2029 24.0118C72.9043 24.8224 72.3923 25.4694 71.6671 25.9529C70.9561 26.4222 70.046 26.6568 68.9367 26.6568ZM89.6706 15.3515C90.5665 15.3515 91.3415 15.5292 91.9957 15.8847C92.6641 16.226 93.1831 16.7522 93.5528 17.4632C93.9226 18.16 94.1074 19.0275 94.1074 20.0656V26.5715H93.0409V20.1509C93.0409 18.8995 92.7352 17.9467 92.1237 17.2926C91.5122 16.6384 90.659 16.3113 89.564 16.3113C88.725 16.3113 87.9997 16.4891 87.3882 16.8446C86.7767 17.2001 86.3075 17.6979 85.9804 18.3378C85.6533 18.9777 85.4898 19.7456 85.4898 20.6415V26.5715H84.4232V20.1509C84.4232 18.8995 84.1175 17.9467 83.506 17.2926C82.8944 16.6384 82.0411 16.3113 80.9462 16.3113C80.1071 16.3113 79.3819 16.4891 78.7704 16.8446C78.1589 17.2001 77.6896 17.6979 77.3626 18.3378C77.0355 18.9777 76.872 19.7456 76.872 20.6415V26.5715H75.8054V15.4368H76.8293V18.5084L76.68 18.1671C77.0071 17.2997 77.5546 16.6171 78.3225 16.1194C79.0904 15.6074 80.0147 15.3515 81.0955 15.3515C82.2047 15.3515 83.1361 15.6359 83.89 16.2047C84.6579 16.7593 85.1414 17.5912 85.3405 18.7004L84.9778 18.5511C85.2765 17.5983 85.8382 16.8304 86.663 16.2474C87.4878 15.6501 88.4903 15.3515 89.6706 15.3515ZM100.303 26.6568C99.2362 26.6568 98.2834 26.4151 97.4444 25.9316C96.6196 25.4481 95.9583 24.7797 95.4606 23.9265C94.9771 23.0732 94.7354 22.0991 94.7354 21.0041C94.7354 19.8949 94.9771 18.9208 95.4606 18.0818C95.9583 17.2286 96.6196 16.5602 97.4444 16.0767C98.2834 15.5932 99.2362 15.3515 100.303 15.3515C101.369 15.3515 102.322 15.5932 103.161 16.0767C104 16.5602 104.661 17.2286 105.145 18.0818C105.628 18.9208 105.87 19.8949 105.87 21.0041C105.87 22.0991 105.628 23.0732 105.145 23.9265C104.661 24.7797 104 25.4481 103.161 25.9316C102.322 26.4151 101.369 26.6568 100.303 26.6568ZM100.303 25.6969C101.156 25.6969 101.924 25.5049 102.606 25.121C103.289 24.7228 103.822 24.1682 104.206 23.4572C104.59 22.7462 104.782 21.9285 104.782 21.0041C104.782 20.0656 104.59 19.2479 104.206 18.5511C103.822 17.8401 103.289 17.2926 102.606 16.9086C101.924 16.5104 101.156 16.3113 100.303 16.3113C99.4495 16.3113 98.6816 16.5104 97.999 16.9086C97.3306 17.2926 96.7974 17.8401 96.3992 18.5511C96.0152 19.2479 95.8232 20.0656 95.8232 21.0041C95.8232 21.9285 96.0152 22.7462 96.3992 23.4572C96.7974 24.1682 97.3306 24.7228 97.999 25.121C98.6816 25.5049 99.4495 25.6969 100.303 25.6969ZM112.059 15.3515C112.969 15.3515 113.758 15.5292 114.426 15.8847C115.109 16.226 115.635 16.7522 116.005 17.4632C116.389 18.16 116.581 19.0275 116.581 20.0656V26.5715H115.514V20.1509C115.514 18.8995 115.194 17.9467 114.554 17.2926C113.929 16.6384 113.047 16.3113 111.909 16.3113C111.042 16.3113 110.288 16.4891 109.648 16.8446C109.008 17.2001 108.518 17.6979 108.176 18.3378C107.849 18.9777 107.686 19.7456 107.686 20.6415V26.5715H106.619V15.4368H107.643V18.5298L107.494 18.1885C107.835 17.3068 108.397 16.6171 109.179 16.1194C109.961 15.6074 110.921 15.3515 112.059 15.3515Z" fill="#00696D"/>
</g>
<defs>
<clipPath id="clip0_225_364">
<rect width="117" height="38" fill="white"/>
</clipPath>
</defs>
</svg>
