<svg width="117" height="38" viewBox="0 0 117 38" fill="none" xmlns="http://www.w3.org/2000/svg">
<g clip-path="url(#clip0_3_171)">
<path d="M18.6983 29.1606C15.8342 29.1606 13.4004 27.2907 11.8719 25.7177C11.2338 25.0648 10.937 24.7383 10.5066 23.9369C10.1801 23.3285 8.9039 23.6104 8.32515 23.9369C7.62767 24.3079 7.79091 24.7234 7.85027 24.8422C8.42903 25.9106 9.14135 26.8901 10.0021 27.7508C12.3468 30.0955 15.4632 31.3866 18.7725 31.3866C23.4322 31.3866 27.6467 28.8044 29.7837 24.6641C30.6889 22.9278 31.1638 20.9541 31.1638 18.9952C31.1638 15.3743 29.5759 11.9463 26.8305 9.5867C24.5897 7.65751 21.7256 6.60388 18.7725 6.60388C16.3239 6.60388 13.3262 7.68719 11.308 9.30475C9.2007 10.9817 8.56259 11.5011 8.11739 13.727C7.96899 14.4839 8.26579 14.7955 8.85939 15.122C9.28974 15.3594 9.76462 15.3891 10.0911 15.1962C10.3434 15.0478 10.4769 14.7955 10.4918 14.4839C10.5215 13.1186 11.2635 11.9314 12.7771 10.8629C14.1721 9.85382 16.1458 9.37895 18.7873 9.37895C21.221 9.37895 23.5509 10.299 25.3466 11.9611C27.157 13.6528 28.1216 16.0866 28.1216 19.0249C28.1216 20.6128 27.7951 21.889 27.0086 23.3285C25.4356 26.1332 22.4528 29.1606 18.6983 29.1606Z" fill="white"/>
<path d="M32.3065 26.979C31.6091 28.2849 31.0897 28.834 30.0805 29.8728C27.1868 32.8408 23.2987 35.4081 19.0396 35.4081C13.1333 35.4081 8.26584 30.8077 5.63917 25.955C4.43714 23.7439 3.84354 21.6811 3.84354 18.9951C3.84354 14.4986 5.28302 10.4325 8.35488 7.5832C11.1299 5.00105 14.8548 3.41318 18.9506 3.41318C22.2896 3.41318 25.9402 3.9029 28.6411 5.83209C30.6148 7.24189 32.3511 9.18592 32.4104 11.8719C32.4253 12.8069 33.464 12.9256 34.2802 12.4804C35.1113 12.0352 35.3932 11.7087 35.2152 10.7886C34.5622 7.49416 33.746 6.81153 30.3773 4.1255C27.439 1.78079 22.8535 0 18.9654 0C14.2612 0 9.95759 1.72143 6.63345 4.5707C2.56731 8.05808 0 13.2224 0 18.9803C0 22.1115 0.756836 25.0646 2.10727 27.6616C5.26818 33.7608 11.6345 37.9457 18.9654 37.9457C24.0852 37.9457 28.8933 35.8978 32.3956 32.3807C33.6866 31.0897 34.7996 29.6057 35.69 27.9436C36.1056 27.1274 32.7517 26.148 32.3065 26.979Z" fill="white"/>
<path d="M39.5571 26.8838V15.7491H40.6237V26.8838H39.5571ZM40.0904 13.0401C39.8486 13.0401 39.6424 12.9547 39.4718 12.7841C39.3011 12.6134 39.2158 12.4144 39.2158 12.1868C39.2158 11.9451 39.3011 11.7389 39.4718 11.5682C39.6424 11.3976 39.8486 11.3123 40.0904 11.3123C40.3464 11.3123 40.5526 11.3976 40.709 11.5682C40.8796 11.7247 40.965 11.9237 40.965 12.1655C40.965 12.4072 40.8796 12.6134 40.709 12.7841C40.5526 12.9547 40.3464 13.0401 40.0904 13.0401ZM47.9986 15.6638C48.9087 15.6638 49.698 15.8415 50.3664 16.197C51.0489 16.5383 51.5751 17.0645 51.9448 17.7755C52.3288 18.4723 52.5208 19.3398 52.5208 20.3779V26.8838H51.4542V20.4632C51.4542 19.2118 51.1343 18.259 50.4943 17.6049C49.8686 16.9507 48.987 16.6236 47.8493 16.6236C46.9819 16.6236 46.2282 16.8014 45.5882 17.1569C44.9483 17.5124 44.4577 18.0102 44.1164 18.6501C43.7893 19.29 43.6258 20.0579 43.6258 20.9538V26.8838H42.5593V15.7491H43.5831V18.8421L43.4338 18.5008C43.7751 17.6191 44.3368 16.9294 45.119 16.4317C45.9011 15.9197 46.861 15.6638 47.9986 15.6638ZM59.7914 15.6638C60.7016 15.6638 61.4908 15.8415 62.1592 16.197C62.8418 16.5383 63.3679 17.0645 63.7377 17.7755C64.1216 18.4723 64.3136 19.3398 64.3136 20.3779V26.8838H63.2471V20.4632C63.2471 19.2118 62.9271 18.259 62.2872 17.6049C61.6615 16.9507 60.7798 16.6236 59.6421 16.6236C58.7747 16.6236 58.021 16.8014 57.3811 17.1569C56.7411 17.5124 56.2505 18.0102 55.9092 18.6501C55.5822 19.29 55.4186 20.0579 55.4186 20.9538V26.8838H54.3521V15.7491H55.376V18.8421L55.2266 18.5008C55.5679 17.6191 56.1296 16.9294 56.9118 16.4317C57.6939 15.9197 58.6538 15.6638 59.7914 15.6638ZM73.1628 26.8838V24.3454L73.1201 23.9615V19.7806C73.1201 18.7425 72.8357 17.9533 72.2669 17.4129C71.7123 16.8725 70.8946 16.6023 69.8138 16.6023C69.0459 16.6023 68.3278 16.7374 67.6594 17.0076C67.0052 17.2636 66.4435 17.5978 65.9742 18.0102L65.441 17.2422C65.9956 16.7445 66.6639 16.3606 67.4461 16.0904C68.2282 15.806 69.0459 15.6638 69.8991 15.6638C71.2785 15.6638 72.338 16.0122 73.0774 16.709C73.8169 17.4058 74.1866 18.4439 74.1866 19.8233V26.8838H73.1628ZM69.1525 26.9691C68.3278 26.9691 67.6096 26.8411 66.9981 26.5852C66.4009 26.315 65.9387 25.9381 65.6116 25.4546C65.2988 24.9711 65.1423 24.4165 65.1423 23.7908C65.1423 23.222 65.2703 22.7101 65.5263 22.255C65.7965 21.7857 66.2373 21.4089 66.8488 21.1245C67.4603 20.8258 68.278 20.6765 69.3019 20.6765H73.3974V21.5084H69.3232C68.1713 21.5084 67.3608 21.7217 66.8915 22.1483C66.4364 22.575 66.2089 23.1082 66.2089 23.7482C66.2089 24.4592 66.4791 25.028 67.0195 25.4546C67.5598 25.8812 68.3206 26.0946 69.3019 26.0946C70.2404 26.0946 71.0297 25.8812 71.6696 25.4546C72.3237 25.028 72.8072 24.4094 73.1201 23.5988L73.4187 24.3241C73.1201 25.1347 72.6081 25.7817 71.8829 26.2652C71.1719 26.7345 70.2618 26.9691 69.1525 26.9691ZM89.8864 15.6638C90.7823 15.6638 91.5573 15.8415 92.2115 16.197C92.8799 16.5383 93.3989 17.0645 93.7686 17.7755C94.1384 18.4723 94.3232 19.3398 94.3232 20.3779V26.8838H93.2567V20.4632C93.2567 19.2118 92.951 18.259 92.3395 17.6049C91.728 16.9507 90.8748 16.6236 89.7798 16.6236C88.9408 16.6236 88.2155 16.8014 87.604 17.1569C86.9925 17.5124 86.5233 18.0102 86.1962 18.6501C85.8691 19.29 85.7056 20.0579 85.7056 20.9538V26.8838H84.639V20.4632C84.639 19.2118 84.3333 18.259 83.7218 17.6049C83.1102 16.9507 82.2569 16.6236 81.162 16.6236C80.3229 16.6236 79.5977 16.8014 78.9862 17.1569C78.3747 17.5124 77.9054 18.0102 77.5784 18.6501C77.2513 19.29 77.0878 20.0579 77.0878 20.9538V26.8838H76.0212V15.7491H77.0451V18.8207L76.8958 18.4794C77.2229 17.612 77.7704 16.9294 78.5383 16.4317C79.3062 15.9197 80.2305 15.6638 81.3113 15.6638C82.4205 15.6638 83.3519 15.9482 84.1058 16.517C84.8737 17.0716 85.3572 17.9035 85.5563 19.0127L85.1936 18.8634C85.4923 17.9106 86.054 17.1427 86.8788 16.5597C87.7036 15.9624 88.7061 15.6638 89.8864 15.6638ZM100.519 26.9691C99.452 26.9691 98.4992 26.7274 97.6602 26.2439C96.8354 25.7604 96.1741 25.092 95.6764 24.2388C95.1929 23.3855 94.9512 22.4114 94.9512 21.3164C94.9512 20.2072 95.1929 19.2331 95.6764 18.3941C96.1741 17.5409 96.8354 16.8725 97.6602 16.389C98.4992 15.9055 99.452 15.6638 100.519 15.6638C101.585 15.6638 102.538 15.9055 103.377 16.389C104.216 16.8725 104.877 17.5409 105.361 18.3941C105.844 19.2331 106.086 20.2072 106.086 21.3164C106.086 22.4114 105.844 23.3855 105.361 24.2388C104.877 25.092 104.216 25.7604 103.377 26.2439C102.538 26.7274 101.585 26.9691 100.519 26.9691ZM100.519 26.0092C101.372 26.0092 102.14 25.8172 102.822 25.4333C103.505 25.0351 104.038 24.4805 104.422 23.7695C104.806 23.0585 104.998 22.2408 104.998 21.3164C104.998 20.3779 104.806 19.5602 104.422 18.8634C104.038 18.1524 103.505 17.6049 102.822 17.2209C102.14 16.8227 101.372 16.6236 100.519 16.6236C99.6653 16.6236 98.8974 16.8227 98.2148 17.2209C97.5464 17.6049 97.0132 18.1524 96.615 18.8634C96.231 19.5602 96.039 20.3779 96.039 21.3164C96.039 22.2408 96.231 23.0585 96.615 23.7695C97.0132 24.4805 97.5464 25.0351 98.2148 25.4333C98.8974 25.8172 99.6653 26.0092 100.519 26.0092ZM112.275 15.6638C113.185 15.6638 113.974 15.8415 114.642 16.197C115.325 16.5383 115.851 17.0645 116.221 17.7755C116.605 18.4723 116.797 19.3398 116.797 20.3779V26.8838H115.73V20.4632C115.73 19.2118 115.41 18.259 114.77 17.6049C114.145 16.9507 113.263 16.6236 112.125 16.6236C111.258 16.6236 110.504 16.8014 109.864 17.1569C109.224 17.5124 108.734 18.0102 108.392 18.6501C108.065 19.29 107.902 20.0579 107.902 20.9538V26.8838H106.835V15.7491H107.859V18.8421L107.71 18.5008C108.051 17.6191 108.613 16.9294 109.395 16.4317C110.177 15.9197 111.137 15.6638 112.275 15.6638Z" fill="white"/>
</g>
<defs>
<clipPath id="clip0_3_171">
<rect width="117" height="38" fill="white"/>
</clipPath>
</defs>
</svg>
