<svg width="40" height="40" viewBox="0 0 40 40" fill="none" xmlns="http://www.w3.org/2000/svg">
<path d="M19.9998 37.9332C18.1832 37.9332 16.3832 37.3999 14.9665 36.3499L7.79984 30.9999C5.89984 29.5832 4.4165 26.6166 4.4165 24.2666V11.8666C4.4165 9.2999 6.29984 6.56657 8.7165 5.66657L17.0332 2.5499C18.6832 1.93324 21.2832 1.93324 22.9332 2.5499L31.2498 5.66657C33.6665 6.56657 35.5498 9.2999 35.5498 11.8666V24.2499C35.5498 26.6166 34.0665 29.5666 32.1665 30.9832L24.9998 36.3332C23.6165 37.3999 21.8165 37.9332 19.9998 37.9332ZM17.9165 4.8999L9.59984 8.01657C8.18317 8.5499 6.93317 10.3499 6.93317 11.8832V24.2666C6.93317 25.8499 8.04984 28.0666 9.29984 28.9999L16.4665 34.3499C18.3832 35.7832 21.6165 35.7832 23.5498 34.3499L30.7165 28.9999C31.9832 28.0499 33.0832 25.8499 33.0832 24.2666V11.8666C33.0832 10.3499 31.8332 8.5499 30.4165 7.9999L22.0998 4.88324C20.9665 4.48324 19.0332 4.48324 17.9165 4.8999Z" fill="#00696E"/>
<path d="M17.7666 23.7167C17.4499 23.7167 17.1332 23.6 16.8832 23.35L14.1999 20.6667C13.7166 20.1834 13.7166 19.3834 14.1999 18.9C14.6832 18.4167 15.4832 18.4167 15.9666 18.9L17.7666 20.7L24.0499 14.4167C24.5332 13.9334 25.3332 13.9334 25.8166 14.4167C26.2999 14.9 26.2999 15.7 25.8166 16.1834L18.6499 23.35C18.3999 23.6 18.0832 23.7167 17.7666 23.7167Z" fill="#00696E"/>
</svg>
