<svg width="41" height="41" viewBox="0 0 41 41" fill="none" xmlns="http://www.w3.org/2000/svg">
<path d="M20.5001 38.4332C18.6834 38.4332 16.8834 37.8999 15.4667 36.8499L8.30008 31.4999C6.40008 30.0832 4.91675 27.1166 4.91675 24.7666V12.3666C4.91675 9.7999 6.80008 7.06657 9.21675 6.16657L17.5334 3.0499C19.1834 2.43324 21.7834 2.43324 23.4334 3.0499L31.7501 6.16657C34.1667 7.06657 36.0501 9.7999 36.0501 12.3666V24.7499C36.0501 27.1166 34.5667 30.0666 32.6667 31.4832L25.5001 36.8332C24.1167 37.8999 22.3167 38.4332 20.5001 38.4332ZM18.4167 5.3999L10.1001 8.51657C8.68341 9.0499 7.43341 10.8499 7.43341 12.3832V24.7666C7.43341 26.3499 8.55008 28.5666 9.80008 29.4999L16.9667 34.8499C18.8834 36.2832 22.1167 36.2832 24.0501 34.8499L31.2167 29.4999C32.4834 28.5499 33.5834 26.3499 33.5834 24.7666V12.3666C33.5834 10.8499 32.3334 9.0499 30.9167 8.4999L22.6001 5.38324C21.4667 4.98324 19.5334 4.98324 18.4167 5.3999Z" fill="#162929"/>
<path d="M18.2666 24.2167C17.9499 24.2167 17.6332 24.1 17.3832 23.85L14.6999 21.1667C14.2166 20.6834 14.2166 19.8834 14.6999 19.4C15.1832 18.9167 15.9832 18.9167 16.4666 19.4L18.2666 21.2L24.5499 14.9167C25.0332 14.4334 25.8332 14.4334 26.3166 14.9167C26.7999 15.4 26.7999 16.2 26.3166 16.6834L19.1499 23.85C18.8999 24.1 18.5832 24.2167 18.2666 24.2167Z" fill="#162929"/>
</svg>
