<svg width="40" height="40" viewBox="0 0 40 40" fill="none" xmlns="http://www.w3.org/2000/svg">
<path d="M29.3667 16.0334H20.6167C19.9334 16.0334 19.3667 15.4668 19.3667 14.7834C19.3667 14.1001 19.9334 13.5334 20.6167 13.5334H29.3667C30.05 13.5334 30.6167 14.1001 30.6167 14.7834C30.6167 15.4668 30.0667 16.0334 29.3667 16.0334Z" fill="#162929"/>
<path d="M11.8667 17.3C11.55 17.3 11.2333 17.1834 10.9833 16.9334L9.73335 15.6834C9.25002 15.2 9.25002 14.4 9.73335 13.9167C10.2167 13.4334 11.0167 13.4334 11.5 13.9167L11.8667 14.2834L14.7333 11.4167C15.2167 10.9334 16.0167 10.9334 16.5 11.4167C16.9833 11.9 16.9833 12.7 16.5 13.1834L12.75 16.9334C12.5167 17.1667 12.2 17.3 11.8667 17.3Z" fill="#162929"/>
<path d="M29.3667 27.7H20.6167C19.9334 27.7 19.3667 27.1333 19.3667 26.45C19.3667 25.7666 19.9334 25.2 20.6167 25.2H29.3667C30.05 25.2 30.6167 25.7666 30.6167 26.45C30.6167 27.1333 30.0667 27.7 29.3667 27.7Z" fill="#162929"/>
<path d="M11.8667 28.9668C11.55 28.9668 11.2333 28.8501 10.9833 28.6001L9.73335 27.3501C9.25002 26.8668 9.25002 26.0668 9.73335 25.5834C10.2167 25.1001 11.0167 25.1001 11.5 25.5834L11.8667 25.9501L14.7333 23.0834C15.2167 22.6001 16.0167 22.6001 16.5 23.0834C16.9833 23.5668 16.9833 24.3668 16.5 24.8501L12.75 28.6001C12.5167 28.8334 12.2 28.9668 11.8667 28.9668Z" fill="#162929"/>
<path d="M24.9999 37.9166H14.9999C5.94992 37.9166 2.08325 34.0499 2.08325 24.9999V14.9999C2.08325 5.94992 5.94992 2.08325 14.9999 2.08325H24.9999C34.0499 2.08325 37.9166 5.94992 37.9166 14.9999V24.9999C37.9166 34.0499 34.0499 37.9166 24.9999 37.9166ZM14.9999 4.58325C7.31659 4.58325 4.58325 7.31659 4.58325 14.9999V24.9999C4.58325 32.6833 7.31659 35.4166 14.9999 35.4166H24.9999C32.6833 35.4166 35.4166 32.6833 35.4166 24.9999V14.9999C35.4166 7.31659 32.6833 4.58325 24.9999 4.58325H14.9999Z" fill="#162929"/>
</svg>
