<svg width="40" height="40" viewBox="0 0 40 40" fill="none" xmlns="http://www.w3.org/2000/svg">
<path d="M29.3667 16.0334H20.6167C19.9334 16.0334 19.3667 15.4668 19.3667 14.7834C19.3667 14.1001 19.9334 13.5334 20.6167 13.5334H29.3667C30.05 13.5334 30.6167 14.1001 30.6167 14.7834C30.6167 15.4668 30.0667 16.0334 29.3667 16.0334Z" fill="#00696E"/>
<path d="M11.8664 17.3C11.5498 17.3 11.2331 17.1834 10.9831 16.9334L9.73311 15.6834C9.24977 15.2 9.24977 14.4 9.73311 13.9167C10.2164 13.4334 11.0164 13.4334 11.4998 13.9167L11.8664 14.2834L14.7331 11.4167C15.2164 10.9334 16.0164 10.9334 16.4998 11.4167C16.9831 11.9 16.9831 12.7 16.4998 13.1834L12.7498 16.9334C12.5164 17.1667 12.1998 17.3 11.8664 17.3Z" fill="#00696E"/>
<path d="M29.3667 27.7H20.6167C19.9334 27.7 19.3667 27.1333 19.3667 26.45C19.3667 25.7666 19.9334 25.2 20.6167 25.2H29.3667C30.05 25.2 30.6167 25.7666 30.6167 26.45C30.6167 27.1333 30.0667 27.7 29.3667 27.7Z" fill="#00696E"/>
<path d="M11.8664 28.9668C11.5498 28.9668 11.2331 28.8501 10.9831 28.6001L9.73311 27.3501C9.24977 26.8668 9.24977 26.0668 9.73311 25.5834C10.2164 25.1001 11.0164 25.1001 11.4998 25.5834L11.8664 25.9501L14.7331 23.0834C15.2164 22.6001 16.0164 22.6001 16.4998 23.0834C16.9831 23.5668 16.9831 24.3668 16.4998 24.8501L12.7498 28.6001C12.5164 28.8334 12.1998 28.9668 11.8664 28.9668Z" fill="#00696E"/>
<path d="M25.0002 37.9166H15.0002C5.95016 37.9166 2.0835 34.0499 2.0835 24.9999V14.9999C2.0835 5.94992 5.95016 2.08325 15.0002 2.08325H25.0002C34.0502 2.08325 37.9168 5.94992 37.9168 14.9999V24.9999C37.9168 34.0499 34.0502 37.9166 25.0002 37.9166ZM15.0002 4.58325C7.31683 4.58325 4.5835 7.31659 4.5835 14.9999V24.9999C4.5835 32.6833 7.31683 35.4166 15.0002 35.4166H25.0002C32.6835 35.4166 35.4168 32.6833 35.4168 24.9999V14.9999C35.4168 7.31659 32.6835 4.58325 25.0002 4.58325H15.0002Z" fill="#00696E"/>
</svg>
