<svg width="70" height="70" viewBox="0 0 70 70" fill="none" xmlns="http://www.w3.org/2000/svg">
<g clip-path="url(#clip0_2615_308)">
<circle cx="35" cy="35" r="30" fill="#E69138"/>
<path d="M7.26334 43.2036C8.84402 42.1466 10.7795 41.7601 12.6449 42.1289C14.5103 42.4977 16.1531 43.5916 17.2127 45.1706C17.382 45.3961 17.6015 45.5792 17.8538 45.7053C18.1061 45.8314 18.3843 45.897 18.6663 45.897C18.9484 45.897 19.2266 45.8314 19.4789 45.7053C19.7312 45.5792 19.9507 45.3961 20.12 45.1706C20.7756 44.1929 21.6622 43.3919 22.7013 42.8388C23.7404 42.2857 24.8999 41.9974 26.077 41.9996C27.9779 41.999 29.8012 42.7532 31.1462 44.0964C32.4912 45.4397 33.2478 47.262 33.2497 49.1629C33.2497 59.4506 20.4163 65.7086 18.6663 65.9139C16.9187 65.7086 4.08301 59.4506 4.08301 49.1676C4.08073 47.9884 4.36987 46.8269 4.92471 45.7865C5.47956 44.746 6.28291 43.8587 7.26334 43.2036Z" fill="#E69138"/>
<path fill-rule="evenodd" clip-rule="evenodd" d="M18.6663 69.4162C22.1663 69.4162 36.7497 61.3312 36.7497 49.1629C36.7478 46.3346 35.6231 43.6227 33.6228 41.6232C31.6224 39.6237 28.91 38.5002 26.0817 38.4996C23.3164 38.4929 20.6571 39.5623 18.6663 41.4816C17.1587 40.0268 15.2561 39.048 13.196 38.6671C11.1358 38.2862 9.00905 38.5201 7.08089 39.3397C5.15273 40.1592 3.50843 41.5281 2.35294 43.2757C1.19745 45.0234 0.581901 47.0725 0.583009 49.1676C0.583009 61.3336 15.1663 69.4162 18.6663 69.4162ZM12.6449 42.1289C10.7795 41.7601 8.84402 42.1466 7.26334 43.2036C6.28291 43.8587 5.47956 44.746 4.92471 45.7865C4.36987 46.8269 4.08073 47.9884 4.08301 49.1676C4.08301 59.4506 16.9187 65.7086 18.6663 65.9139C20.4163 65.7086 33.2497 59.4506 33.2497 49.1629C33.2478 47.262 32.4912 45.4397 31.1462 44.0964C29.8012 42.7532 27.9779 41.999 26.077 41.9996C24.8999 41.9974 23.7404 42.2857 22.7013 42.8388C21.6622 43.3919 20.7756 44.1929 20.12 45.1706C19.9507 45.3961 19.7312 45.5792 19.4789 45.7053C19.2266 45.8314 18.9484 45.897 18.6663 45.897C18.3843 45.897 18.1061 45.8314 17.8538 45.7053C17.6015 45.5792 17.382 45.3961 17.2127 45.1706C16.1531 43.5916 14.5103 42.4977 12.6449 42.1289Z" fill="white"/>
<path d="M35.0005 0.583123C26.4921 0.561077 18.279 3.70085 11.9551 9.39308C5.6312 15.0853 1.64762 22.924 0.777487 31.3878C0.653258 32.5878 0.590953 33.7934 0.59082 34.9998C0.59082 35.4639 0.775195 35.909 1.10338 36.2372C1.43157 36.5654 1.87669 36.7498 2.34082 36.7498C2.80495 36.7498 3.25007 36.5654 3.57826 36.2372C3.90645 35.909 4.09082 35.4639 4.09082 34.9998C4.09069 33.9149 4.14677 32.8308 4.25882 31.7518C4.83786 26.1043 6.9665 20.7267 10.4097 16.213C13.8528 11.6992 18.4766 8.22492 23.7702 6.17379V16.5665C23.7739 19.5048 24.9428 22.3217 27.0205 24.3995C29.0982 26.4772 31.9151 27.6461 34.8535 27.6498H39.2308C41.2413 27.6523 43.1687 28.452 44.5903 29.8736C46.0119 31.2952 46.8117 33.2227 46.8142 35.2331V39.8648C46.8172 42.8033 47.9859 45.6206 50.0638 47.6985C52.1417 49.7763 54.959 50.945 57.8975 50.9481H61.4348C59.2272 54.6232 56.278 57.798 52.7752 60.2699C49.2724 62.7418 45.2929 64.4567 41.0905 65.3051C39.0852 65.7054 37.0454 65.9078 35.0005 65.9095C34.5364 65.9095 34.0912 66.0938 33.7631 66.422C33.4349 66.7502 33.2505 67.1953 33.2505 67.6595C33.2505 68.1236 33.4349 68.5687 33.7631 68.8969C34.0912 69.2251 34.5364 69.4095 35.0005 69.4095C37.2724 69.4096 39.5388 69.1869 41.7672 68.7445C50.1395 67.0653 57.5886 62.3337 62.6672 55.4691C67.7458 48.6045 70.0911 40.0971 69.2476 31.5998C68.404 23.1026 64.4318 15.2223 58.1026 9.49018C51.7735 3.75806 43.5395 0.583428 35.0005 0.583123ZM63.2642 47.4551H57.8975C55.887 47.4527 53.9596 46.6529 52.538 45.2313C51.1164 43.8097 50.3166 41.8823 50.3142 39.8718V35.2331C50.3111 32.2946 49.1424 29.4773 47.0645 27.3994C44.9866 25.3216 42.1694 24.1529 39.2308 24.1498H34.8535C32.843 24.1473 30.9156 23.3476 29.494 21.926C28.0724 20.5043 27.2726 18.5769 27.2702 16.5665V5.07946C31.8383 3.88977 36.6185 3.76366 41.243 4.71082C45.8676 5.65798 50.2133 7.65318 53.9459 10.543C57.6786 13.4328 60.6987 17.1402 62.774 21.38C64.8494 25.6199 65.9247 30.2793 65.9172 34.9998C65.9121 39.2913 65.0084 43.5341 63.2642 47.4551Z" fill="white"/>
</g>
<defs>
<clipPath id="clip0_2615_308">
<rect width="70" height="70" fill="white"/>
</clipPath>
</defs>
</svg>
