<svg width="1440" height="683" viewBox="0 0 1440 683" fill="none" xmlns="http://www.w3.org/2000/svg">
<circle cx="720.5" cy="341.5" r="237" stroke="#0097A7" stroke-opacity="0.12"/>
<path d="M752.082 163.866C784.073 169.628 813.922 183.898 838.494 205.178" stroke="#0097A7" stroke-width="2" stroke-linecap="round"/>
<path d="M882.378 262.035C894.374 286.395 900.736 313.142 900.992 340.295C901.248 367.448 895.391 394.31 883.856 418.892" stroke="#0097A7" stroke-width="2" stroke-linecap="round"/>
<path d="M840.976 476.632C816.638 498.502 786.826 513.365 754.713 519.64" stroke="#0097A7" stroke-width="2" stroke-linecap="round"/>
<path d="M685.362 519.655C652.849 513.316 622.7 498.176 598.197 475.885" stroke="#0097A7" stroke-width="2" stroke-linecap="round" stroke-linejoin="round"/>
<path d="M556.902 420.485C545.128 396.018 539.01 369.216 539 342.064C538.99 314.911 545.09 288.105 556.846 263.63" stroke="#0097A7" stroke-width="2" stroke-linecap="round"/>
<path d="M720.5 55.5C879.007 55.5 1007.5 183.771 1007.5 342C1007.5 500.229 879.007 628.5 720.5 628.5C561.993 628.5 433.5 500.229 433.5 342C433.5 183.771 561.993 55.5 720.5 55.5Z" stroke="#0097A7" stroke-opacity="0.08"/>
<path d="M720 0.5C908.606 0.5 1061.5 153.172 1061.5 341.5C1061.5 529.828 908.606 682.5 720 682.5C531.394 682.5 378.5 529.828 378.5 341.5C378.5 153.172 531.394 0.5 720 0.5Z" stroke="#0097A7" stroke-opacity="0.05"/>
<g filter="url(#filter0_dd_1235_1277)">
<circle cx="720" cy="342" r="89" fill="url(#paint0_linear_1235_1277)"/>
</g>
<g clip-path="url(#clip0_1235_1277)">
<path d="M721.475 363.39C715.428 363.39 710.29 359.454 707.064 356.142C705.716 354.767 705.09 354.08 704.181 352.393C703.492 351.112 700.798 351.706 699.576 352.393C698.103 353.174 698.448 354.049 698.573 354.299C699.795 356.548 701.299 358.61 703.116 360.422C708.066 365.358 714.645 368.076 721.631 368.076C731.469 368.076 740.366 362.64 744.877 353.924C746.788 350.268 747.791 346.113 747.791 341.989C747.791 334.366 744.439 327.15 738.643 322.182C733.912 318.121 727.866 315.902 721.631 315.902C716.462 315.902 710.134 318.183 705.873 321.588C701.424 325.119 700.077 326.212 699.137 330.898C698.824 332.492 699.451 333.148 700.704 333.835C701.612 334.335 702.615 334.398 703.304 333.991C703.837 333.679 704.119 333.148 704.15 332.492C704.213 329.618 705.779 327.118 708.974 324.869C711.919 322.744 716.086 321.745 721.663 321.745C726.8 321.745 731.719 323.682 735.51 327.181C739.332 330.742 741.368 335.866 741.368 342.052C741.368 345.395 740.679 348.082 739.019 351.112C735.698 357.017 729.401 363.39 721.475 363.39Z" fill="#D2691E"/>
<path d="M750.203 358.798C748.73 361.547 747.634 362.703 745.503 364.89C739.394 371.139 731.186 376.543 722.195 376.543C709.726 376.543 699.45 366.858 693.905 356.642C691.367 351.987 690.114 347.644 690.114 341.99C690.114 332.523 693.153 323.963 699.638 317.965C705.496 312.529 713.36 309.186 722.007 309.186C729.056 309.186 736.763 310.217 742.465 314.278C746.631 317.246 750.297 321.339 750.422 326.993C750.453 328.962 752.646 329.212 754.369 328.275C756.124 327.337 756.719 326.65 756.343 324.713C754.965 317.777 753.242 316.34 746.13 310.685C739.927 305.749 730.246 302 722.038 302C712.107 302 703.022 305.624 696.004 311.623C687.42 318.964 682 329.837 682 341.959C682 348.551 683.598 354.768 686.449 360.235C693.122 373.075 706.562 381.886 722.038 381.886C732.847 381.886 742.997 377.574 750.391 370.17C753.116 367.452 755.466 364.328 757.346 360.829C758.223 359.11 751.142 357.048 750.203 358.798Z" fill="#D2691E"/>
</g>
<path d="M667.66 124V110H670.34L676.3 119.88H674.88L680.74 110H683.4L683.44 124H680.4L680.38 114.66H680.94L676.26 122.52H674.8L670.02 114.66H670.7V124H667.66ZM689.742 115.64H696.482V118.16H689.742V115.64ZM689.982 121.4H697.602V124H686.762V110H697.342V112.6H689.982V121.4ZM700.18 124V110H706.54C708.06 110 709.4 110.293 710.56 110.88C711.72 111.453 712.626 112.26 713.28 113.3C713.933 114.34 714.26 115.573 714.26 117C714.26 118.413 713.933 119.647 713.28 120.7C712.626 121.74 711.72 122.553 710.56 123.14C709.4 123.713 708.06 124 706.54 124H700.18ZM703.42 121.34H706.38C707.313 121.34 708.12 121.167 708.8 120.82C709.493 120.46 710.026 119.953 710.4 119.3C710.786 118.647 710.98 117.88 710.98 117C710.98 116.107 710.786 115.34 710.4 114.7C710.026 114.047 709.493 113.547 708.8 113.2C708.12 112.84 707.313 112.66 706.38 112.66H703.42V121.34ZM716.703 124V110H719.943V124H716.703ZM729.965 124.24C728.885 124.24 727.879 124.067 726.945 123.72C726.025 123.36 725.225 122.853 724.545 122.2C723.865 121.547 723.332 120.78 722.945 119.9C722.572 119.02 722.385 118.053 722.385 117C722.385 115.947 722.572 114.98 722.945 114.1C723.332 113.22 723.865 112.453 724.545 111.8C725.239 111.147 726.045 110.647 726.965 110.3C727.885 109.94 728.892 109.76 729.985 109.76C731.199 109.76 732.292 109.973 733.265 110.4C734.252 110.813 735.079 111.427 735.745 112.24L733.665 114.16C733.185 113.613 732.652 113.207 732.065 112.94C731.479 112.66 730.839 112.52 730.145 112.52C729.492 112.52 728.892 112.627 728.345 112.84C727.799 113.053 727.325 113.36 726.925 113.76C726.525 114.16 726.212 114.633 725.985 115.18C725.772 115.727 725.665 116.333 725.665 117C725.665 117.667 725.772 118.273 725.985 118.82C726.212 119.367 726.525 119.84 726.925 120.24C727.325 120.64 727.799 120.947 728.345 121.16C728.892 121.373 729.492 121.48 730.145 121.48C730.839 121.48 731.479 121.347 732.065 121.08C732.652 120.8 733.185 120.38 733.665 119.82L735.745 121.74C735.079 122.553 734.252 123.173 733.265 123.6C732.292 124.027 731.192 124.24 729.965 124.24ZM735.84 124L742.08 110H745.28L751.54 124H748.14L743.02 111.64H744.3L739.16 124H735.84ZM738.96 121L739.82 118.54H747.02L747.9 121H738.96ZM752.992 124V110H756.232V124H752.992ZM759.555 124V110H765.915C767.435 110 768.775 110.293 769.935 110.88C771.095 111.453 772.001 112.26 772.655 113.3C773.308 114.34 773.635 115.573 773.635 117C773.635 118.413 773.308 119.647 772.655 120.7C772.001 121.74 771.095 122.553 769.935 123.14C768.775 123.713 767.435 124 765.915 124H759.555ZM762.795 121.34H765.755C766.688 121.34 767.495 121.167 768.175 120.82C768.868 120.46 769.401 119.953 769.775 119.3C770.161 118.647 770.355 117.88 770.355 117C770.355 116.107 770.161 115.34 769.775 114.7C769.401 114.047 768.868 113.547 768.175 113.2C767.495 112.84 766.688 112.66 765.755 112.66H762.795V121.34Z" fill="#0097A7"/>
<path d="M895.66 227V213H898.34L904.3 222.88H902.88L908.74 213H911.4L911.44 227H908.4L908.38 217.66H908.94L904.26 225.52H902.8L898.02 217.66H898.7V227H895.66ZM917.742 218.64H924.482V221.16H917.742V218.64ZM917.982 224.4H925.602V227H914.762V213H925.342V215.6H917.982V224.4ZM928.18 227V213H934.54C936.06 213 937.4 213.293 938.56 213.88C939.72 214.453 940.626 215.26 941.28 216.3C941.933 217.34 942.26 218.573 942.26 220C942.26 221.413 941.933 222.647 941.28 223.7C940.626 224.74 939.72 225.553 938.56 226.14C937.4 226.713 936.06 227 934.54 227H928.18ZM931.42 224.34H934.38C935.313 224.34 936.12 224.167 936.8 223.82C937.493 223.46 938.026 222.953 938.4 222.3C938.786 221.647 938.98 220.88 938.98 220C938.98 219.107 938.786 218.34 938.4 217.7C938.026 217.047 937.493 216.547 936.8 216.2C936.12 215.84 935.313 215.66 934.38 215.66H931.42V224.34ZM944.703 227V213H947.943V227H944.703ZM957.965 227.24C956.885 227.24 955.879 227.067 954.945 226.72C954.025 226.36 953.225 225.853 952.545 225.2C951.865 224.547 951.332 223.78 950.945 222.9C950.572 222.02 950.385 221.053 950.385 220C950.385 218.947 950.572 217.98 950.945 217.1C951.332 216.22 951.865 215.453 952.545 214.8C953.239 214.147 954.045 213.647 954.965 213.3C955.885 212.94 956.892 212.76 957.985 212.76C959.199 212.76 960.292 212.973 961.265 213.4C962.252 213.813 963.079 214.427 963.745 215.24L961.665 217.16C961.185 216.613 960.652 216.207 960.065 215.94C959.479 215.66 958.839 215.52 958.145 215.52C957.492 215.52 956.892 215.627 956.345 215.84C955.799 216.053 955.325 216.36 954.925 216.76C954.525 217.16 954.212 217.633 953.985 218.18C953.772 218.727 953.665 219.333 953.665 220C953.665 220.667 953.772 221.273 953.985 221.82C954.212 222.367 954.525 222.84 954.925 223.24C955.325 223.64 955.799 223.947 956.345 224.16C956.892 224.373 957.492 224.48 958.145 224.48C958.839 224.48 959.479 224.347 960.065 224.08C960.652 223.8 961.185 223.38 961.665 222.82L963.745 224.74C963.079 225.553 962.252 226.173 961.265 226.6C960.292 227.027 959.192 227.24 957.965 227.24ZM963.84 227L970.08 213H973.28L979.54 227H976.14L971.02 214.64H972.3L967.16 227H963.84ZM966.96 224L967.82 221.54H975.02L975.9 224H966.96ZM980.992 227V213H987.052C988.305 213 989.385 213.207 990.292 213.62C991.199 214.02 991.899 214.6 992.392 215.36C992.885 216.12 993.132 217.027 993.132 218.08C993.132 219.12 992.885 220.02 992.392 220.78C991.899 221.527 991.199 222.1 990.292 222.5C989.385 222.9 988.305 223.1 987.052 223.1H982.792L984.232 221.68V227H980.992ZM989.892 227L986.392 221.92H989.852L993.392 227H989.892ZM984.232 222.04L982.792 220.52H986.872C987.872 220.52 988.619 220.307 989.112 219.88C989.605 219.44 989.852 218.84 989.852 218.08C989.852 217.307 989.605 216.707 989.112 216.28C988.619 215.853 987.872 215.64 986.872 215.64H982.792L984.232 214.1V222.04ZM998.679 218.64H1005.42V221.16H998.679V218.64ZM998.919 224.4H1006.54V227H995.699V213H1006.28V215.6H998.919V224.4ZM900.26 252.24C899.14 252.24 898.067 252.093 897.04 251.8C896.013 251.493 895.187 251.1 894.56 250.62L895.66 248.18C896.26 248.607 896.967 248.96 897.78 249.24C898.607 249.507 899.44 249.64 900.28 249.64C900.92 249.64 901.433 249.58 901.82 249.46C902.22 249.327 902.513 249.147 902.7 248.92C902.887 248.693 902.98 248.433 902.98 248.14C902.98 247.767 902.833 247.473 902.54 247.26C902.247 247.033 901.86 246.853 901.38 246.72C900.9 246.573 900.367 246.44 899.78 246.32C899.207 246.187 898.627 246.027 898.04 245.84C897.467 245.653 896.94 245.413 896.46 245.12C895.98 244.827 895.587 244.44 895.28 243.96C894.987 243.48 894.84 242.867 894.84 242.12C894.84 241.32 895.053 240.593 895.48 239.94C895.92 239.273 896.573 238.747 897.44 238.36C898.32 237.96 899.42 237.76 900.74 237.76C901.62 237.76 902.487 237.867 903.34 238.08C904.193 238.28 904.947 238.587 905.6 239L904.6 241.46C903.947 241.087 903.293 240.813 902.64 240.64C901.987 240.453 901.347 240.36 900.72 240.36C900.093 240.36 899.58 240.433 899.18 240.58C898.78 240.727 898.493 240.92 898.32 241.16C898.147 241.387 898.06 241.653 898.06 241.96C898.06 242.32 898.207 242.613 898.5 242.84C898.793 243.053 899.18 243.227 899.66 243.36C900.14 243.493 900.667 243.627 901.24 243.76C901.827 243.893 902.407 244.047 902.98 244.22C903.567 244.393 904.1 244.627 904.58 244.92C905.06 245.213 905.447 245.6 905.74 246.08C906.047 246.56 906.2 247.167 906.2 247.9C906.2 248.687 905.98 249.407 905.54 250.06C905.1 250.713 904.44 251.24 903.56 251.64C902.693 252.04 901.593 252.24 900.26 252.24ZM914.634 252.24C912.647 252.24 911.094 251.687 909.974 250.58C908.854 249.473 908.294 247.893 908.294 245.84V238H911.534V245.72C911.534 247.053 911.807 248.013 912.354 248.6C912.901 249.187 913.667 249.48 914.654 249.48C915.641 249.48 916.407 249.187 916.954 248.6C917.501 248.013 917.774 247.053 917.774 245.72V238H920.974V245.84C920.974 247.893 920.414 249.473 919.294 250.58C918.174 251.687 916.621 252.24 914.634 252.24ZM924.176 252V238H931.016C932.776 238 934.096 238.333 934.976 239C935.869 239.667 936.316 240.547 936.316 241.64C936.316 242.373 936.136 243.013 935.776 243.56C935.416 244.093 934.922 244.507 934.296 244.8C933.669 245.093 932.949 245.24 932.136 245.24L932.516 244.42C933.396 244.42 934.176 244.567 934.856 244.86C935.536 245.14 936.062 245.56 936.436 246.12C936.822 246.68 937.016 247.367 937.016 248.18C937.016 249.38 936.542 250.32 935.596 251C934.649 251.667 933.256 252 931.416 252H924.176ZM927.396 249.56H931.176C932.016 249.56 932.649 249.427 933.076 249.16C933.516 248.88 933.736 248.44 933.736 247.84C933.736 247.253 933.516 246.82 933.076 246.54C932.649 246.247 932.016 246.1 931.176 246.1H927.156V243.74H930.616C931.402 243.74 932.002 243.607 932.416 243.34C932.842 243.06 933.056 242.64 933.056 242.08C933.056 241.533 932.842 241.127 932.416 240.86C932.002 240.58 931.402 240.44 930.616 240.44H927.396V249.56ZM944.069 252.24C942.949 252.24 941.875 252.093 940.849 251.8C939.822 251.493 938.995 251.1 938.369 250.62L939.469 248.18C940.069 248.607 940.775 248.96 941.589 249.24C942.415 249.507 943.249 249.64 944.089 249.64C944.729 249.64 945.242 249.58 945.629 249.46C946.029 249.327 946.322 249.147 946.509 248.92C946.695 248.693 946.789 248.433 946.789 248.14C946.789 247.767 946.642 247.473 946.349 247.26C946.055 247.033 945.669 246.853 945.189 246.72C944.709 246.573 944.175 246.44 943.589 246.32C943.015 246.187 942.435 246.027 941.849 245.84C941.275 245.653 940.749 245.413 940.269 245.12C939.789 244.827 939.395 244.44 939.089 243.96C938.795 243.48 938.649 242.867 938.649 242.12C938.649 241.32 938.862 240.593 939.289 239.94C939.729 239.273 940.382 238.747 941.249 238.36C942.129 237.96 943.229 237.76 944.549 237.76C945.429 237.76 946.295 237.867 947.149 238.08C948.002 238.28 948.755 238.587 949.409 239L948.409 241.46C947.755 241.087 947.102 240.813 946.449 240.64C945.795 240.453 945.155 240.36 944.529 240.36C943.902 240.36 943.389 240.433 942.989 240.58C942.589 240.727 942.302 240.92 942.129 241.16C941.955 241.387 941.869 241.653 941.869 241.96C941.869 242.32 942.015 242.613 942.309 242.84C942.602 243.053 942.989 243.227 943.469 243.36C943.949 243.493 944.475 243.627 945.049 243.76C945.635 243.893 946.215 244.047 946.789 244.22C947.375 244.393 947.909 244.627 948.389 244.92C948.869 245.213 949.255 245.6 949.549 246.08C949.855 246.56 950.009 247.167 950.009 247.9C950.009 248.687 949.789 249.407 949.349 250.06C948.909 250.713 948.249 251.24 947.369 251.64C946.502 252.04 945.402 252.24 944.069 252.24ZM952.223 252V238H955.463V252H952.223ZM958.785 252V238H965.145C966.665 238 968.005 238.293 969.165 238.88C970.325 239.453 971.232 240.26 971.885 241.3C972.538 242.34 972.865 243.573 972.865 245C972.865 246.413 972.538 247.647 971.885 248.7C971.232 249.74 970.325 250.553 969.165 251.14C968.005 251.713 966.665 252 965.145 252H958.785ZM962.025 249.34H964.985C965.918 249.34 966.725 249.167 967.405 248.82C968.098 248.46 968.632 247.953 969.005 247.3C969.392 246.647 969.585 245.88 969.585 245C969.585 244.107 969.392 243.34 969.005 242.7C968.632 242.047 968.098 241.547 967.405 241.2C966.725 240.84 965.918 240.66 964.985 240.66H962.025V249.34ZM975.308 252V238H978.548V252H975.308ZM984.851 243.64H991.591V246.16H984.851V243.64ZM985.091 249.4H992.711V252H981.871V238H992.451V240.6H985.091V249.4ZM999.889 252.24C998.769 252.24 997.696 252.093 996.669 251.8C995.642 251.493 994.816 251.1 994.189 250.62L995.289 248.18C995.889 248.607 996.596 248.96 997.409 249.24C998.236 249.507 999.069 249.64 999.909 249.64C1000.55 249.64 1001.06 249.58 1001.45 249.46C1001.85 249.327 1002.14 249.147 1002.33 248.92C1002.52 248.693 1002.61 248.433 1002.61 248.14C1002.61 247.767 1002.46 247.473 1002.17 247.26C1001.88 247.033 1001.49 246.853 1001.01 246.72C1000.53 246.573 999.996 246.44 999.409 246.32C998.836 246.187 998.256 246.027 997.669 245.84C997.096 245.653 996.569 245.413 996.089 245.12C995.609 244.827 995.216 244.44 994.909 243.96C994.616 243.48 994.469 242.867 994.469 242.12C994.469 241.32 994.682 240.593 995.109 239.94C995.549 239.273 996.202 238.747 997.069 238.36C997.949 237.96 999.049 237.76 1000.37 237.76C1001.25 237.76 1002.12 237.867 1002.97 238.08C1003.82 238.28 1004.58 238.587 1005.23 239L1004.23 241.46C1003.58 241.087 1002.92 240.813 1002.27 240.64C1001.62 240.453 1000.98 240.36 1000.35 240.36C999.722 240.36 999.209 240.433 998.809 240.58C998.409 240.727 998.122 240.92 997.949 241.16C997.776 241.387 997.689 241.653 997.689 241.96C997.689 242.32 997.836 242.613 998.129 242.84C998.422 243.053 998.809 243.227 999.289 243.36C999.769 243.493 1000.3 243.627 1000.87 243.76C1001.46 243.893 1002.04 244.047 1002.61 244.22C1003.2 244.393 1003.73 244.627 1004.21 244.92C1004.69 245.213 1005.08 245.6 1005.37 246.08C1005.68 246.56 1005.83 247.167 1005.83 247.9C1005.83 248.687 1005.61 249.407 1005.17 250.06C1004.73 250.713 1004.07 251.24 1003.19 251.64C1002.32 252.04 1001.22 252.24 999.889 252.24Z" fill="#0097A7"/>
<path d="M900.26 445.24C899.14 445.24 898.067 445.093 897.04 444.8C896.013 444.493 895.187 444.1 894.56 443.62L895.66 441.18C896.26 441.607 896.967 441.96 897.78 442.24C898.607 442.507 899.44 442.64 900.28 442.64C900.92 442.64 901.433 442.58 901.82 442.46C902.22 442.327 902.513 442.147 902.7 441.92C902.887 441.693 902.98 441.433 902.98 441.14C902.98 440.767 902.833 440.473 902.54 440.26C902.247 440.033 901.86 439.853 901.38 439.72C900.9 439.573 900.367 439.44 899.78 439.32C899.207 439.187 898.627 439.027 898.04 438.84C897.467 438.653 896.94 438.413 896.46 438.12C895.98 437.827 895.587 437.44 895.28 436.96C894.987 436.48 894.84 435.867 894.84 435.12C894.84 434.32 895.053 433.593 895.48 432.94C895.92 432.273 896.573 431.747 897.44 431.36C898.32 430.96 899.42 430.76 900.74 430.76C901.62 430.76 902.487 430.867 903.34 431.08C904.193 431.28 904.947 431.587 905.6 432L904.6 434.46C903.947 434.087 903.293 433.813 902.64 433.64C901.987 433.453 901.347 433.36 900.72 433.36C900.093 433.36 899.58 433.433 899.18 433.58C898.78 433.727 898.493 433.92 898.32 434.16C898.147 434.387 898.06 434.653 898.06 434.96C898.06 435.32 898.207 435.613 898.5 435.84C898.793 436.053 899.18 436.227 899.66 436.36C900.14 436.493 900.667 436.627 901.24 436.76C901.827 436.893 902.407 437.047 902.98 437.22C903.567 437.393 904.1 437.627 904.58 437.92C905.06 438.213 905.447 438.6 905.74 439.08C906.047 439.56 906.2 440.167 906.2 440.9C906.2 441.687 905.98 442.407 905.54 443.06C905.1 443.713 904.44 444.24 903.56 444.64C902.693 445.04 901.593 445.24 900.26 445.24ZM911.119 445V433.64H906.639V431H918.839V433.64H914.359V445H911.119ZM918.039 445L924.279 431H927.479L933.739 445H930.339L925.219 432.64H926.499L921.359 445H918.039ZM921.159 442L922.019 439.54H929.219L930.099 442H921.159ZM937.388 445V433.64H932.908V431H945.108V433.64H940.628V445H937.388ZM949.831 436.64H956.571V439.16H949.831V436.64ZM950.071 442.4H957.691V445H946.851V431H957.431V433.6H950.071V442.4ZM957.949 447L964.549 428.16H967.329L960.729 447H957.949ZM968.101 445V431H970.781L979.041 441.08H977.741V431H980.941V445H978.281L970.001 434.92H971.301V445H968.101ZM982.414 445L988.654 431H991.854L998.114 445H994.714L989.594 432.64H990.874L985.734 445H982.414ZM985.534 442L986.394 439.54H993.594L994.474 442H985.534ZM1001.76 445V433.64H997.283V431H1009.48V433.64H1005V445H1001.76ZM1011.23 445V431H1014.47V445H1011.23ZM1024.59 445.24C1023.48 445.24 1022.46 445.06 1021.51 444.7C1020.58 444.34 1019.76 443.833 1019.07 443.18C1018.39 442.527 1017.86 441.76 1017.47 440.88C1017.1 440 1016.91 439.04 1016.91 438C1016.91 436.96 1017.1 436 1017.47 435.12C1017.86 434.24 1018.4 433.473 1019.09 432.82C1019.78 432.167 1020.6 431.66 1021.53 431.3C1022.46 430.94 1023.48 430.76 1024.57 430.76C1025.68 430.76 1026.69 430.94 1027.61 431.3C1028.54 431.66 1029.35 432.167 1030.03 432.82C1030.72 433.473 1031.26 434.24 1031.65 435.12C1032.04 435.987 1032.23 436.947 1032.23 438C1032.23 439.04 1032.04 440.007 1031.65 440.9C1031.26 441.78 1030.72 442.547 1030.03 443.2C1029.35 443.84 1028.54 444.34 1027.61 444.7C1026.69 445.06 1025.68 445.24 1024.59 445.24ZM1024.57 442.48C1025.2 442.48 1025.77 442.373 1026.29 442.16C1026.82 441.947 1027.29 441.64 1027.69 441.24C1028.09 440.84 1028.4 440.367 1028.61 439.82C1028.84 439.273 1028.95 438.667 1028.95 438C1028.95 437.333 1028.84 436.727 1028.61 436.18C1028.4 435.633 1028.09 435.16 1027.69 434.76C1027.3 434.36 1026.84 434.053 1026.31 433.84C1025.78 433.627 1025.2 433.52 1024.57 433.52C1023.94 433.52 1023.36 433.627 1022.83 433.84C1022.31 434.053 1021.85 434.36 1021.45 434.76C1021.05 435.16 1020.74 435.633 1020.51 436.18C1020.3 436.727 1020.19 437.333 1020.19 438C1020.19 438.653 1020.3 439.26 1020.51 439.82C1020.74 440.367 1021.04 440.84 1021.43 441.24C1021.83 441.64 1022.3 441.947 1022.83 442.16C1023.36 442.373 1023.94 442.48 1024.57 442.48ZM1034.66 445V431H1037.34L1045.6 441.08H1044.3V431H1047.5V445H1044.84L1036.56 434.92H1037.86V445H1034.66ZM1048.98 445L1055.22 431H1058.42L1064.68 445H1061.28L1056.16 432.64H1057.44L1052.3 445H1048.98ZM1052.1 442L1052.96 439.54H1060.16L1061.04 442H1052.1ZM1066.13 445V431H1069.37V442.36H1076.39V445H1066.13ZM898.66 462.3H905.38V464.9H898.66V462.3ZM898.9 470H895.66V456H906.24V458.6H898.9V470ZM915.097 470.24C913.99 470.24 912.963 470.06 912.017 469.7C911.083 469.34 910.27 468.833 909.577 468.18C908.897 467.527 908.363 466.76 907.977 465.88C907.603 465 907.417 464.04 907.417 463C907.417 461.96 907.603 461 907.977 460.12C908.363 459.24 908.903 458.473 909.597 457.82C910.29 457.167 911.103 456.66 912.037 456.3C912.97 455.94 913.983 455.76 915.077 455.76C916.183 455.76 917.197 455.94 918.117 456.3C919.05 456.66 919.857 457.167 920.537 457.82C921.23 458.473 921.77 459.24 922.157 460.12C922.543 460.987 922.737 461.947 922.737 463C922.737 464.04 922.543 465.007 922.157 465.9C921.77 466.78 921.23 467.547 920.537 468.2C919.857 468.84 919.05 469.34 918.117 469.7C917.197 470.06 916.19 470.24 915.097 470.24ZM915.077 467.48C915.703 467.48 916.277 467.373 916.797 467.16C917.33 466.947 917.797 466.64 918.197 466.24C918.597 465.84 918.903 465.367 919.117 464.82C919.343 464.273 919.457 463.667 919.457 463C919.457 462.333 919.343 461.727 919.117 461.18C918.903 460.633 918.597 460.16 918.197 459.76C917.81 459.36 917.35 459.053 916.817 458.84C916.283 458.627 915.703 458.52 915.077 458.52C914.45 458.52 913.87 458.627 913.337 458.84C912.817 459.053 912.357 459.36 911.957 459.76C911.557 460.16 911.243 460.633 911.017 461.18C910.803 461.727 910.697 462.333 910.697 463C910.697 463.653 910.803 464.26 911.017 464.82C911.243 465.367 911.55 465.84 911.937 466.24C912.337 466.64 912.803 466.947 913.337 467.16C913.87 467.373 914.45 467.48 915.077 467.48ZM931.392 470.24C929.405 470.24 927.852 469.687 926.732 468.58C925.612 467.473 925.052 465.893 925.052 463.84V456H928.292V463.72C928.292 465.053 928.565 466.013 929.112 466.6C929.658 467.187 930.425 467.48 931.412 467.48C932.398 467.48 933.165 467.187 933.712 466.6C934.258 466.013 934.532 465.053 934.532 463.72V456H937.732V463.84C937.732 465.893 937.172 467.473 936.052 468.58C934.932 469.687 933.378 470.24 931.392 470.24ZM940.933 470V456H943.613L951.873 466.08H950.573V456H953.773V470H951.113L942.833 459.92H944.133V470H940.933ZM957.086 470V456H963.446C964.966 456 966.306 456.293 967.466 456.88C968.626 457.453 969.532 458.26 970.186 459.3C970.839 460.34 971.166 461.573 971.166 463C971.166 464.413 970.839 465.647 970.186 466.7C969.532 467.74 968.626 468.553 967.466 469.14C966.306 469.713 964.966 470 963.446 470H957.086ZM960.326 467.34H963.286C964.219 467.34 965.026 467.167 965.706 466.82C966.399 466.46 966.932 465.953 967.306 465.3C967.692 464.647 967.886 463.88 967.886 463C967.886 462.107 967.692 461.34 967.306 460.7C966.932 460.047 966.399 459.547 965.706 459.2C965.026 458.84 964.219 458.66 963.286 458.66H960.326V467.34ZM971.574 470L977.814 456H981.014L987.274 470H983.874L978.754 457.64H980.034L974.894 470H971.574ZM974.694 467L975.554 464.54H982.754L983.634 467H974.694ZM990.923 470V458.64H986.443V456H998.643V458.64H994.163V470H990.923ZM1000.39 470V456H1003.63V470H1000.39ZM1013.75 470.24C1012.64 470.24 1011.62 470.06 1010.67 469.7C1009.74 469.34 1008.92 468.833 1008.23 468.18C1007.55 467.527 1007.02 466.76 1006.63 465.88C1006.26 465 1006.07 464.04 1006.07 463C1006.07 461.96 1006.26 461 1006.63 460.12C1007.02 459.24 1007.56 458.473 1008.25 457.82C1008.94 457.167 1009.76 456.66 1010.69 456.3C1011.62 455.94 1012.64 455.76 1013.73 455.76C1014.84 455.76 1015.85 455.94 1016.77 456.3C1017.7 456.66 1018.51 457.167 1019.19 457.82C1019.88 458.473 1020.42 459.24 1020.81 460.12C1021.2 460.987 1021.39 461.947 1021.39 463C1021.39 464.04 1021.2 465.007 1020.81 465.9C1020.42 466.78 1019.88 467.547 1019.19 468.2C1018.51 468.84 1017.7 469.34 1016.77 469.7C1015.85 470.06 1014.84 470.24 1013.75 470.24ZM1013.73 467.48C1014.36 467.48 1014.93 467.373 1015.45 467.16C1015.98 466.947 1016.45 466.64 1016.85 466.24C1017.25 465.84 1017.56 465.367 1017.77 464.82C1018 464.273 1018.11 463.667 1018.11 463C1018.11 462.333 1018 461.727 1017.77 461.18C1017.56 460.633 1017.25 460.16 1016.85 459.76C1016.46 459.36 1016 459.053 1015.47 458.84C1014.94 458.627 1014.36 458.52 1013.73 458.52C1013.1 458.52 1012.52 458.627 1011.99 458.84C1011.47 459.053 1011.01 459.36 1010.61 459.76C1010.21 460.16 1009.9 460.633 1009.67 461.18C1009.46 461.727 1009.35 462.333 1009.35 463C1009.35 463.653 1009.46 464.26 1009.67 464.82C1009.9 465.367 1010.2 465.84 1010.59 466.24C1010.99 466.64 1011.46 466.947 1011.99 467.16C1012.52 467.373 1013.1 467.48 1013.73 467.48ZM1023.82 470V456H1026.5L1034.76 466.08H1033.46V456H1036.66V470H1034L1025.72 459.92H1027.02V470H1023.82ZM1044.58 470.24C1043.46 470.24 1042.38 470.093 1041.36 469.8C1040.33 469.493 1039.5 469.1 1038.88 468.62L1039.98 466.18C1040.58 466.607 1041.28 466.96 1042.1 467.24C1042.92 467.507 1043.76 467.64 1044.6 467.64C1045.24 467.64 1045.75 467.58 1046.14 467.46C1046.54 467.327 1046.83 467.147 1047.02 466.92C1047.2 466.693 1047.3 466.433 1047.3 466.14C1047.3 465.767 1047.15 465.473 1046.86 465.26C1046.56 465.033 1046.18 464.853 1045.7 464.72C1045.22 464.573 1044.68 464.44 1044.1 464.32C1043.52 464.187 1042.94 464.027 1042.36 463.84C1041.78 463.653 1041.26 463.413 1040.78 463.12C1040.3 462.827 1039.9 462.44 1039.6 461.96C1039.3 461.48 1039.16 460.867 1039.16 460.12C1039.16 459.32 1039.37 458.593 1039.8 457.94C1040.24 457.273 1040.89 456.747 1041.76 456.36C1042.64 455.96 1043.74 455.76 1045.06 455.76C1045.94 455.76 1046.8 455.867 1047.66 456.08C1048.51 456.28 1049.26 456.587 1049.92 457L1048.92 459.46C1048.26 459.087 1047.61 458.813 1046.96 458.64C1046.3 458.453 1045.66 458.36 1045.04 458.36C1044.41 458.36 1043.9 458.433 1043.5 458.58C1043.1 458.727 1042.81 458.92 1042.64 459.16C1042.46 459.387 1042.38 459.653 1042.38 459.96C1042.38 460.32 1042.52 460.613 1042.82 460.84C1043.11 461.053 1043.5 461.227 1043.98 461.36C1044.46 461.493 1044.98 461.627 1045.56 461.76C1046.14 461.893 1046.72 462.047 1047.3 462.22C1047.88 462.393 1048.42 462.627 1048.9 462.92C1049.38 463.213 1049.76 463.6 1050.06 464.08C1050.36 464.56 1050.52 465.167 1050.52 465.9C1050.52 466.687 1050.3 467.407 1049.86 468.06C1049.42 468.713 1048.76 469.24 1047.88 469.64C1047.01 470.04 1045.91 470.24 1044.58 470.24Z" fill="#0097A7"/>
<path d="M632.707 574V560H635.387L641.347 569.88H639.927L645.787 560H648.447L648.487 574H645.447L645.427 564.66H645.987L641.307 572.52H639.847L635.067 564.66H635.747V574H632.707ZM649.968 574L656.208 560H659.408L665.668 574H662.268L657.148 561.64H658.428L653.288 574H649.968ZM653.088 571L653.948 568.54H661.148L662.028 571H653.088ZM667.121 574V560H669.801L678.061 570.08H676.761V560H679.961V574H677.301L669.021 563.92H670.321V574H667.121ZM689.493 574.24C687.507 574.24 685.953 573.687 684.833 572.58C683.713 571.473 683.153 569.893 683.153 567.84V560H686.393V567.72C686.393 569.053 686.667 570.013 687.213 570.6C687.76 571.187 688.527 571.48 689.513 571.48C690.5 571.48 691.267 571.187 691.813 570.6C692.36 570.013 692.633 569.053 692.633 567.72V560H695.833V567.84C695.833 569.893 695.273 571.473 694.153 572.58C693.033 573.687 691.48 574.24 689.493 574.24ZM702.035 566.3H708.755V568.9H702.035V566.3ZM702.275 574H699.035V560H709.615V562.6H702.275V574ZM709.402 574L715.642 560H718.842L725.102 574H721.702L716.582 561.64H717.862L712.722 574H709.402ZM712.522 571L713.382 568.54H720.582L721.462 571H712.522ZM733.059 574.24C731.979 574.24 730.973 574.067 730.039 573.72C729.119 573.36 728.319 572.853 727.639 572.2C726.959 571.547 726.426 570.78 726.039 569.9C725.666 569.02 725.479 568.053 725.479 567C725.479 565.947 725.666 564.98 726.039 564.1C726.426 563.22 726.959 562.453 727.639 561.8C728.333 561.147 729.139 560.647 730.059 560.3C730.979 559.94 731.986 559.76 733.079 559.76C734.293 559.76 735.386 559.973 736.359 560.4C737.346 560.813 738.173 561.427 738.839 562.24L736.759 564.16C736.279 563.613 735.746 563.207 735.159 562.94C734.573 562.66 733.933 562.52 733.239 562.52C732.586 562.52 731.986 562.627 731.439 562.84C730.893 563.053 730.419 563.36 730.019 563.76C729.619 564.16 729.306 564.633 729.079 565.18C728.866 565.727 728.759 566.333 728.759 567C728.759 567.667 728.866 568.273 729.079 568.82C729.306 569.367 729.619 569.84 730.019 570.24C730.419 570.64 730.893 570.947 731.439 571.16C731.986 571.373 732.586 571.48 733.239 571.48C733.933 571.48 734.573 571.347 735.159 571.08C735.746 570.8 736.279 570.38 736.759 569.82L738.839 571.74C738.173 572.553 737.346 573.173 736.359 573.6C735.386 574.027 734.286 574.24 733.059 574.24ZM743.79 574V562.64H739.31V560H751.51V562.64H747.03V574H743.79ZM759.239 574.24C757.253 574.24 755.699 573.687 754.579 572.58C753.459 571.473 752.899 569.893 752.899 567.84V560H756.139V567.72C756.139 569.053 756.413 570.013 756.959 570.6C757.506 571.187 758.273 571.48 759.259 571.48C760.246 571.48 761.013 571.187 761.559 570.6C762.106 570.013 762.379 569.053 762.379 567.72V560H765.579V567.84C765.579 569.893 765.019 571.473 763.899 572.58C762.779 573.687 761.226 574.24 759.239 574.24ZM768.781 574V560H774.841C776.094 560 777.174 560.207 778.081 560.62C778.988 561.02 779.688 561.6 780.181 562.36C780.674 563.12 780.921 564.027 780.921 565.08C780.921 566.12 780.674 567.02 780.181 567.78C779.688 568.527 778.988 569.1 778.081 569.5C777.174 569.9 776.094 570.1 774.841 570.1H770.581L772.021 568.68V574H768.781ZM777.681 574L774.181 568.92H777.641L781.181 574H777.681ZM772.021 569.04L770.581 567.52H774.661C775.661 567.52 776.408 567.307 776.901 566.88C777.394 566.44 777.641 565.84 777.641 565.08C777.641 564.307 777.394 563.707 776.901 563.28C776.408 562.853 775.661 562.64 774.661 562.64H770.581L772.021 561.1V569.04ZM786.468 565.64H793.208V568.16H786.468V565.64ZM786.708 571.4H794.328V574H783.488V560H794.068V562.6H786.708V571.4ZM796.906 574V560H802.966C804.219 560 805.299 560.207 806.206 560.62C807.113 561.02 807.813 561.6 808.306 562.36C808.799 563.12 809.046 564.027 809.046 565.08C809.046 566.12 808.799 567.02 808.306 567.78C807.813 568.527 807.113 569.1 806.206 569.5C805.299 569.9 804.219 570.1 802.966 570.1H798.706L800.146 568.68V574H796.906ZM805.806 574L802.306 568.92H805.766L809.306 574H805.806ZM800.146 569.04L798.706 567.52H802.786C803.786 567.52 804.533 567.307 805.026 566.88C805.519 566.44 805.766 565.84 805.766 565.08C805.766 564.307 805.519 563.707 805.026 563.28C804.533 562.853 803.786 562.64 802.786 562.64H798.706L800.146 561.1V569.04ZM688.489 599.24C687.409 599.24 686.402 599.067 685.469 598.72C684.549 598.36 683.749 597.853 683.069 597.2C682.389 596.547 681.856 595.78 681.469 594.9C681.096 594.02 680.909 593.053 680.909 592C680.909 590.947 681.096 589.98 681.469 589.1C681.856 588.22 682.389 587.453 683.069 586.8C683.762 586.147 684.569 585.647 685.489 585.3C686.409 584.94 687.416 584.76 688.509 584.76C689.722 584.76 690.816 584.973 691.789 585.4C692.776 585.813 693.602 586.427 694.269 587.24L692.189 589.16C691.709 588.613 691.176 588.207 690.589 587.94C690.002 587.66 689.362 587.52 688.669 587.52C688.016 587.52 687.416 587.627 686.869 587.84C686.322 588.053 685.849 588.36 685.449 588.76C685.049 589.16 684.736 589.633 684.509 590.18C684.296 590.727 684.189 591.333 684.189 592C684.189 592.667 684.296 593.273 684.509 593.82C684.736 594.367 685.049 594.84 685.449 595.24C685.849 595.64 686.322 595.947 686.869 596.16C687.416 596.373 688.016 596.48 688.669 596.48C689.362 596.48 690.002 596.347 690.589 596.08C691.176 595.8 691.709 595.38 692.189 594.82L694.269 596.74C693.602 597.553 692.776 598.173 691.789 598.6C690.816 599.027 689.716 599.24 688.489 599.24ZM702.964 599.24C701.857 599.24 700.831 599.06 699.884 598.7C698.951 598.34 698.137 597.833 697.444 597.18C696.764 596.527 696.231 595.76 695.844 594.88C695.471 594 695.284 593.04 695.284 592C695.284 590.96 695.471 590 695.844 589.12C696.231 588.24 696.771 587.473 697.464 586.82C698.157 586.167 698.971 585.66 699.904 585.3C700.837 584.94 701.851 584.76 702.944 584.76C704.051 584.76 705.064 584.94 705.984 585.3C706.917 585.66 707.724 586.167 708.404 586.82C709.097 587.473 709.637 588.24 710.024 589.12C710.411 589.987 710.604 590.947 710.604 592C710.604 593.04 710.411 594.007 710.024 594.9C709.637 595.78 709.097 596.547 708.404 597.2C707.724 597.84 706.917 598.34 705.984 598.7C705.064 599.06 704.057 599.24 702.964 599.24ZM702.944 596.48C703.571 596.48 704.144 596.373 704.664 596.16C705.197 595.947 705.664 595.64 706.064 595.24C706.464 594.84 706.771 594.367 706.984 593.82C707.211 593.273 707.324 592.667 707.324 592C707.324 591.333 707.211 590.727 706.984 590.18C706.771 589.633 706.464 589.16 706.064 588.76C705.677 588.36 705.217 588.053 704.684 587.84C704.151 587.627 703.571 587.52 702.944 587.52C702.317 587.52 701.737 587.627 701.204 587.84C700.684 588.053 700.224 588.36 699.824 588.76C699.424 589.16 699.111 589.633 698.884 590.18C698.671 590.727 698.564 591.333 698.564 592C698.564 592.653 698.671 593.26 698.884 593.82C699.111 594.367 699.417 594.84 699.804 595.24C700.204 595.64 700.671 595.947 701.204 596.16C701.737 596.373 702.317 596.48 702.944 596.48ZM712.478 594.62V592.12H718.138V594.62H712.478ZM720.812 599V585H726.872C728.126 585 729.206 585.207 730.112 585.62C731.019 586.02 731.719 586.6 732.212 587.36C732.706 588.12 732.952 589.027 732.952 590.08C732.952 591.12 732.706 592.02 732.212 592.78C731.719 593.54 731.019 594.127 730.112 594.54C729.206 594.94 728.126 595.14 726.872 595.14H722.612L724.052 593.68V599H720.812ZM724.052 594.04L722.612 592.5H726.692C727.692 592.5 728.439 592.287 728.932 591.86C729.426 591.433 729.672 590.84 729.672 590.08C729.672 589.307 729.426 588.707 728.932 588.28C728.439 587.853 727.692 587.64 726.692 587.64H722.612L724.052 586.1V594.04ZM732.722 599L738.962 585H742.162L748.422 599H745.022L739.902 586.64H741.182L736.042 599H732.722ZM735.842 596L736.702 593.54H743.902L744.782 596H735.842ZM752.495 599V593.28L753.235 595.24L747.075 585H750.515L755.235 592.86H753.255L757.995 585H761.175L755.015 595.24L755.735 593.28V599H752.495Z" fill="#0097A7"/>
<path d="M504.949 458V444H511.009C512.262 444 513.342 444.207 514.249 444.62C515.156 445.02 515.856 445.6 516.349 446.36C516.842 447.12 517.089 448.027 517.089 449.08C517.089 450.12 516.842 451.02 516.349 451.78C515.856 452.54 515.156 453.127 514.249 453.54C513.342 453.94 512.262 454.14 511.009 454.14H506.749L508.189 452.68V458H504.949ZM508.189 453.04L506.749 451.5H510.829C511.829 451.5 512.576 451.287 513.069 450.86C513.562 450.433 513.809 449.84 513.809 449.08C513.809 448.307 513.562 447.707 513.069 447.28C512.576 446.853 511.829 446.64 510.829 446.64H506.749L508.189 445.1V453.04ZM516.859 458L523.099 444H526.299L532.559 458H529.159L524.039 445.64H525.319L520.179 458H516.859ZM519.979 455L520.839 452.54H528.039L528.919 455H519.979ZM534.012 458V444H540.072C541.325 444 542.405 444.207 543.312 444.62C544.218 445.02 544.918 445.6 545.412 446.36C545.905 447.12 546.152 448.027 546.152 449.08C546.152 450.12 545.905 451.02 545.412 451.78C544.918 452.54 544.218 453.127 543.312 453.54C542.405 453.94 541.325 454.14 540.072 454.14H535.812L537.252 452.68V458H534.012ZM537.252 453.04L535.812 451.5H539.892C540.892 451.5 541.638 451.287 542.132 450.86C542.625 450.433 542.872 449.84 542.872 449.08C542.872 448.307 542.625 447.707 542.132 447.28C541.638 446.853 540.892 446.64 539.892 446.64H535.812L537.252 445.1V453.04Z" fill="#0097A7"/>
<path d="M462.352 227.24C461.272 227.24 460.266 227.067 459.332 226.72C458.412 226.36 457.612 225.853 456.932 225.2C456.252 224.547 455.719 223.78 455.332 222.9C454.959 222.02 454.772 221.053 454.772 220C454.772 218.947 454.959 217.98 455.332 217.1C455.719 216.22 456.252 215.453 456.932 214.8C457.626 214.147 458.432 213.647 459.352 213.3C460.272 212.94 461.279 212.76 462.372 212.76C463.586 212.76 464.679 212.973 465.652 213.4C466.639 213.813 467.466 214.427 468.132 215.24L466.052 217.16C465.572 216.613 465.039 216.207 464.452 215.94C463.866 215.66 463.226 215.52 462.532 215.52C461.879 215.52 461.279 215.627 460.732 215.84C460.186 216.053 459.712 216.36 459.312 216.76C458.912 217.16 458.599 217.633 458.372 218.18C458.159 218.727 458.052 219.333 458.052 220C458.052 220.667 458.159 221.273 458.372 221.82C458.599 222.367 458.912 222.84 459.312 223.24C459.712 223.64 460.186 223.947 460.732 224.16C461.279 224.373 461.879 224.48 462.532 224.48C463.226 224.48 463.866 224.347 464.452 224.08C465.039 223.8 465.572 223.38 466.052 222.82L468.132 224.74C467.466 225.553 466.639 226.173 465.652 226.6C464.679 227.027 463.579 227.24 462.352 227.24ZM479.92 213H483.16V227H479.92V213ZM473.56 227H470.32V213H473.56V227ZM480.16 221.26H473.32V218.52H480.16V221.26ZM484.632 227L490.873 213H494.073L500.333 227H496.933L491.813 214.64H493.093L487.953 227H484.632ZM487.752 224L488.613 221.54H495.813L496.693 224H487.752ZM501.785 227V213H507.845C509.098 213 510.178 213.207 511.085 213.62C511.992 214.02 512.692 214.6 513.185 215.36C513.678 216.12 513.925 217.027 513.925 218.08C513.925 219.12 513.678 220.02 513.185 220.78C512.692 221.527 511.992 222.1 511.085 222.5C510.178 222.9 509.098 223.1 507.845 223.1H503.585L505.025 221.68V227H501.785ZM510.685 227L507.185 221.92H510.645L514.185 227H510.685ZM505.025 222.04L503.585 220.52H507.665C508.665 220.52 509.412 220.307 509.905 219.88C510.398 219.44 510.645 218.84 510.645 218.08C510.645 217.307 510.398 216.707 509.905 216.28C509.412 215.853 508.665 215.64 507.665 215.64H503.585L505.025 214.1V222.04ZM516.492 227V213H519.732V227H516.492ZM525.955 227V215.64H521.475V213H533.675V215.64H529.195V227H525.955ZM538.624 227V221.28L539.364 223.24L533.204 213H536.644L541.364 220.86H539.384L544.124 213H547.304L541.144 223.24L541.864 221.28V227H538.624ZM435.184 252.24C434.104 252.24 433.098 252.067 432.164 251.72C431.244 251.36 430.444 250.853 429.764 250.2C429.084 249.547 428.551 248.78 428.164 247.9C427.791 247.02 427.604 246.053 427.604 245C427.604 243.947 427.791 242.98 428.164 242.1C428.551 241.22 429.084 240.453 429.764 239.8C430.458 239.147 431.264 238.647 432.184 238.3C433.104 237.94 434.111 237.76 435.204 237.76C436.418 237.76 437.511 237.973 438.484 238.4C439.471 238.813 440.298 239.427 440.964 240.24L438.884 242.16C438.404 241.613 437.871 241.207 437.284 240.94C436.698 240.66 436.058 240.52 435.364 240.52C434.711 240.52 434.111 240.627 433.564 240.84C433.018 241.053 432.544 241.36 432.144 241.76C431.744 242.16 431.431 242.633 431.204 243.18C430.991 243.727 430.884 244.333 430.884 245C430.884 245.667 430.991 246.273 431.204 246.82C431.431 247.367 431.744 247.84 432.144 248.24C432.544 248.64 433.018 248.947 433.564 249.16C434.111 249.373 434.711 249.48 435.364 249.48C436.058 249.48 436.698 249.347 437.284 249.08C437.871 248.8 438.404 248.38 438.884 247.82L440.964 249.74C440.298 250.553 439.471 251.173 438.484 251.6C437.511 252.027 436.411 252.24 435.184 252.24ZM441.058 252L447.298 238H450.498L456.758 252H453.358L448.238 239.64H449.518L444.378 252H441.058ZM444.178 249L445.038 246.54H452.238L453.118 249H444.178ZM458.211 252V238H464.271C465.524 238 466.604 238.207 467.511 238.62C468.417 239.02 469.117 239.6 469.611 240.36C470.104 241.12 470.351 242.027 470.351 243.08C470.351 244.12 470.104 245.02 469.611 245.78C469.117 246.527 468.417 247.1 467.511 247.5C466.604 247.9 465.524 248.1 464.271 248.1H460.011L461.451 246.68V252H458.211ZM467.111 252L463.611 246.92H467.071L470.611 252H467.111ZM461.451 247.04L460.011 245.52H464.091C465.091 245.52 465.837 245.307 466.331 244.88C466.824 244.44 467.071 243.84 467.071 243.08C467.071 242.307 466.824 241.707 466.331 241.28C465.837 240.853 465.091 240.64 464.091 240.64H460.011L461.451 239.1V247.04ZM475.898 243.64H482.638V246.16H475.898V243.64ZM476.138 249.4H483.758V252H472.918V238H483.498V240.6H476.138V249.4ZM484.016 254L490.616 235.16H493.396L486.796 254H484.016ZM497.828 252.24C496.854 252.24 495.888 252.113 494.928 251.86C493.968 251.593 493.154 251.22 492.488 250.74L493.748 248.26C494.281 248.647 494.901 248.953 495.608 249.18C496.314 249.407 497.028 249.52 497.748 249.52C498.561 249.52 499.201 249.36 499.668 249.04C500.134 248.72 500.368 248.28 500.368 247.72C500.368 247.187 500.161 246.767 499.748 246.46C499.334 246.153 498.668 246 497.748 246H496.268V243.86L500.168 239.44L500.528 240.6H493.188V238H502.988V240.1L499.108 244.52L497.468 243.58H498.408C500.128 243.58 501.428 243.967 502.308 244.74C503.188 245.513 503.628 246.507 503.628 247.72C503.628 248.507 503.421 249.247 503.008 249.94C502.594 250.62 501.961 251.173 501.108 251.6C500.254 252.027 499.161 252.24 497.828 252.24ZM504.964 249.06V246.88L511.564 238H514.964L508.504 246.88L506.924 246.42H517.944V249.06H504.964ZM512.504 252V249.06L512.604 246.42V243.8H515.664V252H512.504ZM524.913 252.24C523.766 252.24 522.739 251.96 521.833 251.4C520.926 250.827 520.213 250 519.693 248.92C519.173 247.84 518.913 246.533 518.913 245C518.913 243.467 519.173 242.16 519.693 241.08C520.213 240 520.926 239.18 521.833 238.62C522.739 238.047 523.766 237.76 524.913 237.76C526.073 237.76 527.099 238.047 527.993 238.62C528.899 239.18 529.613 240 530.133 241.08C530.653 242.16 530.913 243.467 530.913 245C530.913 246.533 530.653 247.84 530.133 248.92C529.613 250 528.899 250.827 527.993 251.4C527.099 251.96 526.073 252.24 524.913 252.24ZM524.913 249.5C525.459 249.5 525.933 249.347 526.333 249.04C526.746 248.733 527.066 248.247 527.293 247.58C527.533 246.913 527.653 246.053 527.653 245C527.653 243.947 527.533 243.087 527.293 242.42C527.066 241.753 526.746 241.267 526.333 240.96C525.933 240.653 525.459 240.5 524.913 240.5C524.379 240.5 523.906 240.653 523.493 240.96C523.093 241.267 522.773 241.753 522.533 242.42C522.306 243.087 522.193 243.947 522.193 245C522.193 246.053 522.306 246.913 522.533 247.58C522.773 248.247 523.093 248.733 523.493 249.04C523.906 249.347 524.379 249.5 524.913 249.5ZM533.367 252V238H540.207C541.967 238 543.287 238.333 544.167 239C545.06 239.667 545.507 240.547 545.507 241.64C545.507 242.373 545.327 243.013 544.967 243.56C544.607 244.093 544.114 244.507 543.487 244.8C542.86 245.093 542.14 245.24 541.327 245.24L541.707 244.42C542.587 244.42 543.367 244.567 544.047 244.86C544.727 245.14 545.254 245.56 545.627 246.12C546.014 246.68 546.207 247.367 546.207 248.18C546.207 249.38 545.734 250.32 544.787 251C543.84 251.667 542.447 252 540.607 252H533.367ZM536.587 249.56H540.367C541.207 249.56 541.84 249.427 542.267 249.16C542.707 248.88 542.927 248.44 542.927 247.84C542.927 247.253 542.707 246.82 542.267 246.54C541.84 246.247 541.207 246.1 540.367 246.1H536.347V243.74H539.807C540.594 243.74 541.194 243.607 541.607 243.34C542.034 243.06 542.247 242.64 542.247 242.08C542.247 241.533 542.034 241.127 541.607 240.86C541.194 240.58 540.594 240.44 539.807 240.44H536.587V249.56Z" fill="#0097A7"/>
<path d="M839.146 196.342L839.726 205.543L830.721 207.523" stroke="#0097A7" stroke-width="2" stroke-linecap="round" stroke-linejoin="round"/>
<path d="M892.09 418.214L882.999 419.749L880.091 411" stroke="#0097A7" stroke-width="2" stroke-linecap="round" stroke-linejoin="round"/>
<path d="M760.92 525.66L753.533 520.144L757.855 512" stroke="#0097A7" stroke-width="2" stroke-linecap="round" stroke-linejoin="round"/>
<path d="M596.939 484.717L598.28 475.595L607.5 475.525" stroke="#0097A7" stroke-width="2" stroke-linecap="round" stroke-linejoin="round"/>
<path d="M548 265.316L556.984 263.245L560.405 271.807" stroke="#0097A7" stroke-width="2" stroke-linecap="round" stroke-linejoin="round"/>
<rect x="702" y="505" width="37" height="37" rx="18.5" fill="#0097A7"/>
<g clip-path="url(#clip1_1235_1277)">
<circle cx="720.5" cy="523.5" r="11.5" fill="white"/>
<path d="M720.5 510.844C717.997 510.844 715.55 511.586 713.469 512.977C711.387 514.367 709.765 516.344 708.807 518.657C707.849 520.969 707.599 523.514 708.087 525.969C708.575 528.424 709.781 530.679 711.551 532.449C713.321 534.219 715.576 535.425 718.031 535.913C720.486 536.401 723.031 536.151 725.343 535.193C727.656 534.235 729.633 532.613 731.023 530.531C732.414 528.45 733.156 526.003 733.156 523.5C733.152 520.145 731.817 516.928 729.445 514.555C727.072 512.183 723.855 510.848 720.5 510.844ZM714.012 515.408C714.012 515.241 714.079 515.08 714.197 514.962C714.316 514.843 714.477 514.776 714.644 514.776H726.356C726.523 514.776 726.684 514.843 726.803 514.962C726.921 515.08 726.988 515.241 726.988 515.408V522.087C726.987 522.254 726.92 522.414 726.802 522.533C726.683 522.651 726.523 522.718 726.356 522.72H714.644C714.477 522.718 714.317 522.651 714.198 522.533C714.08 522.414 714.013 522.254 714.012 522.087V515.408ZM713.126 529.976C713.126 530.017 713.118 530.059 713.102 530.097C713.086 530.135 713.062 530.17 713.033 530.2C713.004 530.229 712.969 530.252 712.93 530.268C712.892 530.284 712.851 530.292 712.809 530.292H711.641V522.838H712.809C712.893 522.838 712.973 522.872 713.032 522.931C713.091 522.99 713.125 523.07 713.126 523.154V529.976ZM723.491 529.107C723.474 529.098 723.23 528.896 723.221 528.887C723.211 528.876 723.2 528.866 723.187 528.858L721.854 527.79C721.788 527.74 721.705 527.717 721.622 527.728C721.539 527.738 721.464 527.78 721.412 527.845C721.36 527.91 721.336 527.993 721.344 528.076C721.353 528.159 721.394 528.235 721.458 528.288L722.808 529.368C722.917 529.466 722.983 529.602 722.994 529.748C723.005 529.893 722.959 530.038 722.865 530.15C722.772 530.263 722.639 530.335 722.493 530.351C722.348 530.367 722.202 530.326 722.086 530.237C721.846 530.043 720.58 529.031 720.314 528.816C720.248 528.765 720.164 528.741 720.081 528.751C719.997 528.76 719.921 528.802 719.867 528.866C719.841 528.899 719.822 528.936 719.811 528.976C719.799 529.015 719.796 529.057 719.801 529.098C719.805 529.139 719.818 529.179 719.838 529.215C719.858 529.252 719.885 529.283 719.918 529.309L721.293 530.41C721.3 530.419 721.309 530.426 721.318 530.431C721.433 530.527 721.506 530.663 721.521 530.812C721.535 530.96 721.491 531.108 721.397 531.224C721.304 531.34 721.168 531.415 721.02 531.431C720.871 531.448 720.723 531.405 720.605 531.313C720.605 531.309 718.775 529.845 718.775 529.845C718.709 529.793 718.626 529.769 718.543 529.779C718.459 529.788 718.384 529.83 718.332 529.896C718.28 529.961 718.256 530.045 718.265 530.128C718.275 530.211 718.317 530.287 718.382 530.339C718.382 530.343 718.686 530.583 718.686 530.583C718.686 530.587 718.688 530.59 718.69 530.592L719.496 531.233C719.61 531.327 719.682 531.462 719.698 531.608C719.714 531.755 719.671 531.902 719.58 532.018C719.495 532.125 719.374 532.197 719.239 532.219C719.104 532.242 718.966 532.214 718.85 532.14C717.986 531.583 716.682 530.697 715.273 529.706C714.885 529.385 714.227 529.457 713.758 529.453V524.188H717.994C718.47 524.198 718.927 524.379 719.281 524.698L717.897 525.331C717.727 525.408 717.58 525.529 717.472 525.682C717.365 525.835 717.3 526.014 717.285 526.2C717.209 527.36 718.766 527.765 719.644 527.352L721.918 526.365C722.129 526.686 722.425 526.943 722.774 527.107L724.238 528.25C724.305 528.303 724.359 528.37 724.396 528.447C724.434 528.524 724.453 528.608 724.453 528.693C724.449 528.803 724.413 528.909 724.351 528.999C724.289 529.089 724.203 529.16 724.102 529.203C724.002 529.246 723.891 529.26 723.783 529.243C723.675 529.226 723.574 529.179 723.491 529.107ZM727.178 529.453L724.803 529.457C724.905 529.335 724.982 529.193 725.029 529.041C725.076 528.889 725.091 528.729 725.075 528.57C725.059 528.412 725.011 528.258 724.935 528.118C724.859 527.979 724.755 527.856 724.63 527.757L724.217 527.436C724.495 527.428 725.065 527.537 725.052 527.09C725.045 527.007 725.006 526.93 724.943 526.876C724.88 526.821 724.798 526.794 724.715 526.799C722.736 526.917 722.382 525.905 722.369 525.867C722.356 525.824 722.335 525.783 722.306 525.749C722.276 525.715 722.24 525.687 722.2 525.668C722.159 525.649 722.114 525.639 722.069 525.638C722.025 525.637 721.98 525.646 721.939 525.664L719.395 526.77C719.185 526.86 718.955 526.895 718.728 526.872C718.501 526.849 718.283 526.769 718.095 526.639C718.033 526.596 717.983 526.538 717.95 526.469C717.918 526.401 717.905 526.325 717.911 526.25C717.918 526.174 717.945 526.102 717.989 526.041C718.034 525.979 718.094 525.931 718.163 525.9L721.479 524.382C721.761 524.255 722.068 524.189 722.377 524.188H727.178V529.453ZM729.359 530.292H728.123C728.082 530.292 728.041 530.284 728.002 530.268C727.964 530.252 727.929 530.229 727.899 530.2C727.87 530.17 727.847 530.135 727.831 530.097C727.815 530.059 727.807 530.017 727.807 529.976V529.769C727.807 529.769 727.807 529.768 727.807 529.767C727.807 529.767 727.808 529.766 727.808 529.766C727.808 529.766 727.809 529.765 727.809 529.765C727.81 529.765 727.811 529.765 727.811 529.765C727.811 529.764 727.811 529.764 727.811 529.763C727.811 529.763 727.81 529.762 727.81 529.762C727.809 529.761 727.809 529.761 727.809 529.761C727.808 529.761 727.807 529.761 727.807 529.761V523.154C727.807 523.07 727.841 522.99 727.9 522.931C727.959 522.872 728.04 522.838 728.123 522.838H729.359V530.292Z" fill="#0097A7"/>
<path d="M715.357 521.18C715.41 521.179 715.46 521.199 715.498 521.236C715.536 521.272 715.558 521.321 715.56 521.374C715.56 521.415 715.567 521.457 715.583 521.495C715.599 521.534 715.622 521.569 715.652 521.598C715.681 521.628 715.716 521.651 715.755 521.667C715.793 521.683 715.835 521.691 715.876 521.69H725.124C725.165 521.691 725.207 521.683 725.245 521.667C725.284 521.651 725.319 521.628 725.348 521.598C725.378 521.569 725.401 521.534 725.417 521.495C725.433 521.457 725.441 521.415 725.44 521.374C725.442 521.321 725.464 521.272 725.502 521.236C725.54 521.199 725.59 521.179 725.643 521.18C725.726 521.179 725.807 521.146 725.866 521.086C725.925 521.027 725.959 520.947 725.959 520.863V516.636C725.959 516.595 725.951 516.553 725.935 516.515C725.919 516.477 725.896 516.442 725.867 516.412C725.837 516.383 725.802 516.36 725.764 516.344C725.725 516.328 725.684 516.32 725.643 516.32C725.589 516.319 725.538 516.297 725.5 516.26C725.463 516.222 725.441 516.171 725.44 516.117C725.441 516.076 725.433 516.034 725.417 515.996C725.401 515.957 725.378 515.922 725.348 515.893C725.319 515.863 725.284 515.84 725.245 515.824C725.207 515.808 725.165 515.8 725.124 515.801H715.876C715.835 515.8 715.793 515.808 715.755 515.824C715.716 515.84 715.681 515.863 715.652 515.893C715.622 515.922 715.599 515.957 715.583 515.996C715.567 516.034 715.56 516.076 715.56 516.117C715.559 516.171 715.538 516.222 715.5 516.26C715.462 516.297 715.411 516.319 715.357 516.32C715.316 516.32 715.275 516.328 715.236 516.344C715.198 516.36 715.163 516.383 715.134 516.412C715.104 516.442 715.081 516.477 715.065 516.515C715.049 516.553 715.041 516.595 715.041 516.636V520.863C715.042 520.947 715.075 521.027 715.134 521.086C715.194 521.146 715.274 521.179 715.357 521.18ZM715.674 516.889C715.877 516.8 716.04 516.637 716.129 516.434H724.871C724.96 516.637 725.123 516.8 725.326 516.889V520.606C725.122 520.693 724.959 520.854 724.871 521.057H716.129C716.041 520.854 715.878 520.693 715.674 520.606V516.889Z" fill="#0097A7"/>
<path d="M720.5 520.648C720.875 520.648 721.243 520.537 721.555 520.328C721.867 520.12 722.11 519.823 722.254 519.477C722.398 519.13 722.435 518.748 722.362 518.38C722.289 518.011 722.108 517.673 721.842 517.408C721.577 517.142 721.239 516.961 720.87 516.888C720.502 516.815 720.12 516.852 719.773 516.996C719.427 517.14 719.13 517.383 718.922 517.695C718.713 518.007 718.602 518.375 718.602 518.75C718.603 519.253 718.804 519.735 719.159 520.091C719.515 520.446 719.997 520.647 720.5 520.648ZM720.5 517.484C720.75 517.484 720.995 517.559 721.203 517.698C721.411 517.837 721.573 518.034 721.669 518.266C721.765 518.497 721.79 518.751 721.741 518.997C721.692 519.242 721.572 519.468 721.395 519.645C721.218 519.822 720.992 519.942 720.747 519.991C720.501 520.04 720.247 520.015 720.016 519.919C719.784 519.823 719.587 519.661 719.448 519.453C719.309 519.245 719.234 519 719.234 518.75C719.234 518.584 719.267 518.419 719.33 518.265C719.394 518.112 719.487 517.972 719.605 517.855C719.722 517.737 719.862 517.644 720.015 517.58C720.169 517.517 720.334 517.484 720.5 517.484Z" fill="#0097A7"/>
</g>
<rect x="559" y="432" width="37" height="37" rx="18.5" fill="#0097A7"/>
<path d="M574.338 457.027C574.328 457.127 574.336 457.231 574.373 457.335C574.462 457.584 574.67 457.787 574.917 457.863C575.147 457.936 575.376 457.888 575.445 457.812L575.924 457.298C576.062 457.15 576.097 456.913 576.016 456.683C575.816 456.299 575.547 456.161 575.203 456.099L574.338 457.027Z" fill="white"/>
<path d="M573.696 454.457L572.859 455.355C572.689 455.54 572.64 455.825 572.735 456.097C572.836 456.385 573.077 456.619 573.365 456.707C573.637 456.789 573.911 456.725 574.082 456.543L574.857 455.712C575.028 455.527 575.076 455.244 574.981 454.971C574.88 454.682 574.638 454.449 574.352 454.362C574.123 454.289 573.855 454.286 573.696 454.457Z" fill="white"/>
<path d="M572.038 452.98L571.265 453.81C571.095 453.994 571.047 454.279 571.141 454.552C571.242 454.839 571.483 455.074 571.771 455.161C572.043 455.244 572.319 455.179 572.405 455.088L573.263 454.167C573.434 453.982 573.482 453.698 573.387 453.426C573.286 453.137 573.045 452.903 572.757 452.817C572.493 452.731 572.199 452.807 572.038 452.98Z" fill="white"/>
<path d="M570.525 451.344L569.668 452.265C569.497 452.45 569.449 452.733 569.544 453.004C569.644 453.294 569.886 453.527 570.174 453.615C570.446 453.696 570.722 453.633 570.807 453.541L571.666 452.62V452.619C571.837 452.437 571.885 452.153 571.79 451.881C571.691 451.591 571.449 451.357 571.161 451.271C570.941 451.195 570.675 451.182 570.525 451.344Z" fill="white"/>
<path d="M581.648 445.849C581.094 446.158 580.324 446.214 579.574 446.268C579.006 446.307 578.421 446.348 578 446.503L575.661 447.366C575.645 447.373 575.629 447.376 575.612 447.379C575.499 447.396 575.395 447.411 575.301 447.425C574.731 447.505 574.665 447.529 574.6 447.698C574.54 447.854 574.606 448.079 574.768 448.269C574.9 448.426 575.417 448.916 576.48 448.664L577.812 448.488C578.558 448.392 579.156 448.878 579.634 449.271L583.216 452.136L583.219 452.135C583.927 451.839 584.665 451.453 585.292 450.698L581.648 445.849Z" fill="white"/>
<path d="M576.719 445.674C576.507 445.694 576.264 445.721 576.008 445.748C574.597 445.898 573.814 445.958 573.415 445.884L569.75 450.655C569.885 450.782 569.997 450.915 570.087 451.058C570.393 450.745 570.856 450.633 571.307 450.769C571.749 450.903 572.119 451.261 572.273 451.706C572.339 451.894 572.359 452.088 572.342 452.273C572.523 452.247 572.714 452.258 572.902 452.315C573.344 452.448 573.714 452.807 573.868 453.252C573.934 453.44 573.955 453.632 573.939 453.817C574.12 453.792 574.311 453.803 574.499 453.861C574.94 453.995 575.309 454.353 575.463 454.796C575.56 455.077 575.564 455.366 575.485 455.625C575.53 455.633 575.576 455.644 575.622 455.659C576.017 455.781 576.353 456.106 576.497 456.506C576.635 456.893 576.575 457.3 576.349 457.592L576.999 458.112C577.159 458.239 577.39 458.252 577.607 458.147C577.842 458.033 578.019 457.802 578.071 457.543C578.093 457.435 578.086 457.331 578.061 457.234L577.237 456.574C577.126 456.485 577.106 456.321 577.193 456.207C577.28 456.094 577.441 456.073 577.552 456.162L578.544 456.957C578.642 457.035 578.924 457.056 579.183 456.935C579.455 456.805 579.661 456.537 579.718 456.238C579.772 455.955 579.685 455.681 579.49 455.525L578.593 454.807C578.482 454.718 578.462 454.554 578.549 454.441C578.636 454.327 578.797 454.306 578.908 454.396L580.212 455.439C580.408 455.595 580.69 455.616 580.95 455.495C581.219 455.366 581.425 455.098 581.483 454.796C581.538 454.514 581.45 454.241 581.254 454.082L579.949 453.041C579.838 452.951 579.818 452.787 579.906 452.672C579.993 452.56 580.154 452.54 580.266 452.629C580.266 452.629 582.246 454.213 582.248 454.213C582.346 454.29 582.627 454.312 582.884 454.189C583.157 454.062 583.361 453.794 583.42 453.493C583.474 453.21 583.386 452.935 583.191 452.78L579.314 449.678C578.87 449.313 578.41 448.935 577.877 449.007L576.571 449.177C575.691 449.388 574.861 449.179 574.381 448.612C574.092 448.27 573.994 447.847 574.124 447.507C574.306 447.036 574.655 446.987 575.231 446.906C575.317 446.895 575.41 446.881 575.512 446.865L577.827 446.011C577.977 445.955 578.144 445.916 578.316 445.882C577.721 445.652 577.29 445.638 576.719 445.674Z" fill="white"/>
<path d="M571.688 444.77C571.267 444.738 570.882 445.056 570.327 445.777L568.91 447.623C568.397 448.289 568.205 448.704 568.248 449.054C568.282 449.343 568.483 449.626 568.682 449.785L569.354 450.322L573.004 445.571L572.532 445.193C572.207 444.934 571.941 444.789 571.688 444.77Z" fill="white"/>
<path d="M583.395 444.765C583.142 444.781 582.873 444.923 582.546 445.178L582.068 445.548L585.668 450.338L586.133 449.977C586.536 449.664 586.741 449.385 586.779 449.097C586.825 448.747 586.639 448.329 586.135 447.655L584.741 445.791C584.198 445.062 583.817 444.738 583.395 444.765Z" fill="white"/>
<rect x="845" y="432" width="37" height="37" rx="18.5" fill="#0097A7"/>
<g clip-path="url(#clip2_1235_1277)">
<circle cx="863.5" cy="450.5" r="12.5" fill="white"/>
<path d="M863.5 437.844C860.997 437.844 858.55 438.586 856.469 439.977C854.387 441.367 852.765 443.344 851.807 445.657C850.849 447.969 850.599 450.514 851.087 452.969C851.575 455.424 852.781 457.679 854.551 459.449C856.321 461.219 858.576 462.425 861.031 462.913C863.486 463.401 866.031 463.151 868.343 462.193C870.656 461.235 872.633 459.613 874.023 457.531C875.414 455.45 876.156 453.003 876.156 450.5C876.152 447.145 874.817 443.928 872.445 441.555C870.072 439.183 866.855 437.848 863.5 437.844ZM868.322 447.728C868.322 447.648 868.354 447.572 868.41 447.515C868.466 447.458 868.542 447.426 868.622 447.425H871.035C871.114 447.426 871.191 447.458 871.247 447.515C871.303 447.572 871.334 447.648 871.334 447.728V455.862H868.322V447.728ZM863.2 445.033V441.096C863.201 441.017 863.232 440.941 863.289 440.885C863.345 440.829 863.421 440.797 863.5 440.797C864.094 440.795 864.683 440.902 865.238 441.113C865.732 441.304 866.257 441.401 866.786 441.4C866.826 441.4 866.865 441.408 866.901 441.423C866.938 441.438 866.971 441.46 866.999 441.487C867.027 441.515 867.049 441.548 867.064 441.585C867.079 441.621 867.086 441.66 867.086 441.7V443.809C867.087 443.849 867.079 443.888 867.065 443.925C867.05 443.962 867.028 443.995 867 444.024C866.972 444.052 866.939 444.074 866.902 444.09C866.865 444.105 866.826 444.113 866.786 444.113C865.407 444.125 865.04 443.615 863.8 443.518V445.033C864.731 445.103 865.607 445.505 866.268 446.165C866.93 446.825 867.333 447.7 867.407 448.631H859.598C859.669 447.7 860.072 446.825 860.733 446.165C861.394 445.504 862.269 445.103 863.2 445.033ZM867.419 449.234V455.862H865.31V449.234H867.419ZM864.555 449.234V455.862H862.445V449.234H864.555ZM859.581 449.234H861.69V455.862H859.581V449.234ZM855.666 447.728C855.666 447.648 855.697 447.572 855.753 447.515C855.809 447.458 855.886 447.426 855.965 447.425H858.378C858.458 447.426 858.534 447.458 858.59 447.515C858.646 447.572 858.678 447.648 858.678 447.728V455.862H855.666V447.728ZM871.938 457.372C871.937 457.452 871.906 457.528 871.849 457.584C871.793 457.64 871.717 457.672 871.638 457.672H855.362C855.283 457.672 855.207 457.64 855.151 457.584C855.094 457.528 855.063 457.452 855.063 457.372V456.769C855.062 456.729 855.07 456.69 855.085 456.653C855.1 456.617 855.122 456.583 855.149 456.555C855.177 456.527 855.21 456.504 855.247 456.489C855.283 456.474 855.322 456.466 855.362 456.465H871.638C871.678 456.466 871.717 456.474 871.753 456.489C871.79 456.504 871.823 456.527 871.851 456.555C871.878 456.583 871.9 456.617 871.915 456.653C871.93 456.69 871.938 456.729 871.938 456.769V457.372Z" fill="#0097A7"/>
</g>
<rect x="559" y="214" width="37" height="37" rx="18.5" fill="#0097A7"/>
<g clip-path="url(#clip3_1235_1277)">
<circle cx="577.5" cy="232.5" r="10.5" fill="white"/>
<path d="M577.5 219.844C574.997 219.844 572.55 220.586 570.469 221.977C568.387 223.367 566.765 225.344 565.807 227.657C564.849 229.969 564.599 232.514 565.087 234.969C565.575 237.424 566.781 239.679 568.551 241.449C570.321 243.219 572.576 244.425 575.031 244.913C577.486 245.401 580.031 245.151 582.343 244.193C584.656 243.235 586.633 241.613 588.023 239.531C589.414 237.45 590.156 235.003 590.156 232.5C590.152 229.145 588.817 225.928 586.445 223.555C584.072 221.183 580.855 219.848 577.5 219.844ZM577.5 223.911C579.436 222.223 582.647 223.679 582.584 226.26C582.55 229.117 577.774 231.302 577.5 231.344C577.23 231.306 572.446 229.117 572.416 226.26C572.353 223.679 575.564 222.223 577.5 223.911ZM574.661 240.625L573.577 241.714C573.512 241.779 573.424 241.815 573.332 241.815C573.24 241.815 573.152 241.779 573.087 241.714L568.109 236.731C568.077 236.7 568.052 236.662 568.034 236.62C568.017 236.579 568.008 236.534 568.008 236.489C568.008 236.444 568.017 236.399 568.034 236.357C568.052 236.316 568.077 236.278 568.109 236.246L569.193 235.158C569.258 235.094 569.345 235.058 569.436 235.058C569.527 235.058 569.614 235.094 569.678 235.158L574.661 240.14C574.693 240.172 574.718 240.21 574.736 240.251C574.753 240.293 574.762 240.338 574.762 240.383C574.762 240.428 574.753 240.473 574.736 240.514C574.718 240.556 574.693 240.594 574.661 240.625ZM582.883 236.626C582.545 236.962 582.107 237.178 581.634 237.242L576.104 238.035C575.455 238.127 574.857 238.437 574.408 238.913L570.995 235.495L573.361 233.129C573.652 232.838 574.001 232.612 574.384 232.465C574.768 232.318 575.179 232.254 575.589 232.276L579.795 232.272C580.282 232.276 580.747 232.471 581.091 232.815C581.435 233.159 581.63 233.625 581.634 234.112C581.635 234.161 581.625 234.211 581.606 234.257C581.587 234.303 581.559 234.345 581.524 234.381C581.488 234.416 581.446 234.444 581.4 234.463C581.354 234.482 581.305 234.491 581.255 234.491L576.412 234.487C576.321 234.488 576.235 234.525 576.171 234.589C576.107 234.653 576.072 234.74 576.072 234.831C576.072 234.921 576.107 235.008 576.171 235.073C576.235 235.137 576.321 235.174 576.412 235.175L581.25 235.179C581.532 235.176 581.802 235.066 582.006 234.871L585.406 231.475C585.492 231.389 585.594 231.321 585.706 231.274C585.818 231.228 585.938 231.204 586.06 231.205C586.243 231.206 586.422 231.261 586.574 231.363C586.726 231.466 586.845 231.61 586.915 231.779C586.986 231.948 587.005 232.134 586.971 232.314C586.936 232.494 586.85 232.66 586.722 232.791L582.883 236.626Z" fill="#0097A7"/>
</g>
<rect x="845" y="214" width="37" height="37" rx="18.5" fill="#0097A7"/>
<g clip-path="url(#clip4_1235_1277)">
<circle cx="863.5" cy="232.5" r="12.5" fill="white"/>
<path fill-rule="evenodd" clip-rule="evenodd" d="M863.484 217.027C872.044 217.027 878.984 223.965 878.984 232.525C878.984 241.085 872.044 248.026 863.484 248.026C854.924 248.026 847.984 241.085 847.984 232.525C847.984 223.965 854.924 217.027 863.484 217.027ZM870.399 238.251C870.554 238.196 870.687 238.092 870.778 237.955C870.868 237.818 870.911 237.655 870.901 237.491C870.89 237.326 870.826 237.17 870.718 237.046C870.61 236.922 870.465 236.836 870.304 236.802H866C865.799 237.098 865.497 237.309 865.15 237.396C864.804 237.483 864.438 237.44 864.121 237.274C864.105 237.266 864.09 237.256 864.076 237.246L861.876 235.575C861.809 235.525 861.765 235.45 861.754 235.367C861.742 235.284 861.764 235.2 861.815 235.133C861.866 235.067 861.941 235.023 862.023 235.011C862.106 235 862.19 235.022 862.257 235.073L864.435 236.726C864.598 236.804 864.782 236.827 864.96 236.791C865.137 236.755 865.298 236.662 865.418 236.525C865.537 236.389 865.608 236.218 865.621 236.037C865.634 235.856 865.587 235.676 865.487 235.525L861.899 231.937C861.785 231.819 861.648 231.725 861.497 231.663C861.345 231.6 861.183 231.569 861.019 231.572H856.904V234.982H857.542C857.611 234.982 857.678 235.005 857.733 235.046L862.825 238.92C862.954 239.021 863.102 239.096 863.261 239.137C863.42 239.179 863.586 239.188 863.748 239.162L870.399 238.251L870.399 238.251ZM856.272 235.834V230.729H853.706V235.834H856.272ZM868.685 225.877C867.779 225.877 866.894 226.146 866.141 226.649C865.389 227.152 864.802 227.867 864.455 228.703C864.109 229.54 864.018 230.46 864.195 231.348C864.372 232.236 864.808 233.052 865.448 233.692C866.088 234.332 866.904 234.768 867.792 234.945C868.68 235.122 869.6 235.031 870.437 234.684C871.273 234.338 871.988 233.751 872.491 232.998C872.994 232.245 873.262 231.36 873.262 230.455C873.261 229.241 872.778 228.078 871.92 227.22C871.062 226.361 869.898 225.879 868.685 225.877ZM870.771 230.888V230.022H869.434C869.35 230.022 869.27 229.988 869.211 229.929C869.152 229.87 869.118 229.79 869.118 229.706V228.369H868.252V229.706C868.252 229.748 868.244 229.789 868.228 229.827C868.212 229.865 868.189 229.9 868.16 229.929C868.13 229.959 868.096 229.982 868.057 229.998C868.019 230.014 867.978 230.022 867.936 230.022H866.599V230.888H867.936C868.02 230.888 868.1 230.921 868.16 230.98C868.219 231.04 868.252 231.12 868.252 231.204V232.541H869.118V231.204C869.118 231.12 869.151 231.04 869.211 230.981C869.27 230.921 869.35 230.888 869.434 230.888H870.771ZM871.087 229.391H869.749V228.054C869.749 227.97 869.716 227.89 869.657 227.83C869.598 227.771 869.517 227.738 869.434 227.738H867.936C867.853 227.738 867.773 227.771 867.713 227.83C867.654 227.89 867.621 227.97 867.621 228.054V229.391H866.283C866.2 229.391 866.12 229.424 866.061 229.483C866.001 229.542 865.968 229.622 865.968 229.706V231.203C865.968 231.287 866.001 231.367 866.06 231.426C866.12 231.486 866.2 231.519 866.283 231.519H867.621V232.857C867.621 232.94 867.654 233.02 867.713 233.08C867.773 233.139 867.853 233.172 867.936 233.172H869.434C869.517 233.172 869.598 233.139 869.657 233.08C869.716 233.02 869.749 232.94 869.749 232.857V231.519H871.087C871.17 231.519 871.251 231.486 871.31 231.427C871.369 231.367 871.402 231.287 871.402 231.204V229.706C871.402 229.623 871.369 229.542 871.31 229.483C871.25 229.424 871.17 229.391 871.087 229.391Z" fill="#0097A7"/>
</g>
<rect x="702" y="141" width="37" height="37" rx="18.5" fill="#0097A7"/>
<path d="M727.093 154.754C727.093 154.699 727.095 154.643 727.093 154.586C727.089 154.451 727.018 154.377 726.934 154.293C726.188 153.549 725.442 152.801 724.696 152.055C724.616 151.975 724.538 151.889 724.454 151.813C724.358 151.725 724.268 151.725 724.155 151.725H716.438C715.833 151.725 715.225 151.709 714.62 151.725C714.225 151.734 713.919 152.039 713.909 152.434C713.907 152.471 713.909 152.51 713.909 152.547V166.498C713.909 166.582 713.911 166.666 713.933 166.75C714.016 167.07 714.315 167.27 714.638 167.274C715.214 167.277 715.788 167.274 716.364 167.274H726.388H726.407H726.415C726.8 167.248 727.089 166.943 727.095 166.553C727.095 166.496 727.095 166.44 727.095 166.381V154.754H727.093ZM716.448 156.258C716.448 156.205 716.493 156.16 716.546 156.16H718.3V154.406C718.3 154.354 718.345 154.309 718.397 154.309H719.891C719.944 154.309 719.989 154.354 719.989 154.406V156.16H721.743C721.772 156.16 721.796 156.17 721.809 156.188L721.811 156.19C721.811 156.19 721.813 156.19 721.813 156.192C721.829 156.207 721.841 156.229 721.841 156.258V157.75C721.841 157.803 721.796 157.848 721.743 157.848H719.989V159.604C719.989 159.656 719.944 159.701 719.891 159.701H718.397C718.345 159.701 718.3 159.656 718.3 159.604V157.848H716.546C716.493 157.848 716.448 157.803 716.448 157.75V156.258ZM721.136 164.695H716.585C716.421 164.695 716.3 164.561 716.292 164.402C716.284 164.244 716.431 164.109 716.585 164.109H721.136C721.3 164.109 721.421 164.244 721.429 164.402C721.436 164.561 721.29 164.695 721.136 164.695ZM724.456 162.527C724.452 162.527 724.446 162.527 724.442 162.527C724.122 162.537 723.802 162.527 723.481 162.527H716.585C716.421 162.527 716.3 162.393 716.292 162.234C716.284 162.076 716.431 161.942 716.585 161.942H716.599C716.919 161.932 717.239 161.942 717.559 161.942H724.458C724.622 161.942 724.743 162.076 724.751 162.234C724.757 162.393 724.61 162.527 724.456 162.527ZM724.503 154.541C724.454 154.541 724.405 154.541 724.356 154.541C724.352 154.541 724.35 154.541 724.347 154.541C724.347 154.541 724.345 154.541 724.343 154.541C724.341 154.541 724.337 154.541 724.331 154.541C724.335 154.543 724.339 154.545 724.341 154.547C724.335 154.545 724.331 154.543 724.329 154.541C724.327 154.541 724.323 154.541 724.321 154.541C724.319 154.541 724.317 154.541 724.315 154.541H724.317H724.325H724.329C724.327 154.539 724.327 154.539 724.327 154.537C724.319 154.531 724.309 154.525 724.306 154.524C724.311 154.529 724.315 154.535 724.319 154.539C724.3 154.522 724.3 154.52 724.306 154.524C724.298 154.514 724.288 154.502 724.288 154.502C724.288 154.502 724.288 154.504 724.29 154.506C724.288 154.504 724.288 154.502 724.286 154.5C724.284 154.498 724.284 154.498 724.282 154.494C724.282 154.504 724.282 154.504 724.282 154.492V154.49C724.282 154.486 724.282 154.483 724.28 154.477C724.28 154.479 724.282 154.481 724.282 154.483C724.282 154.481 724.282 154.479 724.282 154.477V152.731C724.433 152.881 724.585 153.033 724.735 153.184C725.19 153.639 725.643 154.092 726.099 154.547H724.503V154.541Z" fill="white"/>
<defs>
<filter id="filter0_dd_1235_1277" x="575.187" y="197.187" width="278" height="278" filterUnits="userSpaceOnUse" color-interpolation-filters="sRGB">
<feFlood flood-opacity="0" result="BackgroundImageFix"/>
<feColorMatrix in="SourceAlpha" type="matrix" values="0 0 0 0 0 0 0 0 0 0 0 0 0 0 0 0 0 0 127 0" result="hardAlpha"/>
<feOffset dx="8.71957" dy="8.71957"/>
<feGaussianBlur stdDeviation="8.71957"/>
<feColorMatrix type="matrix" values="0 0 0 0 0.164706 0 0 0 0 0.72549 0 0 0 0 0.698039 0 0 0 0.12 0"/>
<feBlend mode="normal" in2="BackgroundImageFix" result="effect1_dropShadow_1235_1277"/>
<feColorMatrix in="SourceAlpha" type="matrix" values="0 0 0 0 0 0 0 0 0 0 0 0 0 0 0 0 0 0 127 0" result="hardAlpha"/>
<feOffset dx="-5.81305" dy="-5.81305"/>
<feGaussianBlur stdDeviation="25"/>
<feColorMatrix type="matrix" values="0 0 0 0 1 0 0 0 0 1 0 0 0 0 1 0 0 0 0.9 0"/>
<feBlend mode="normal" in2="effect1_dropShadow_1235_1277" result="effect2_dropShadow_1235_1277"/>
<feBlend mode="normal" in="SourceGraphic" in2="effect2_dropShadow_1235_1277" result="shape"/>
</filter>
<linearGradient id="paint0_linear_1235_1277" x1="691.354" y1="275.742" x2="769.201" y2="422.69" gradientUnits="userSpaceOnUse">
<stop offset="0.114871" stop-color="#F6F7F7"/>
<stop offset="1" stop-color="white"/>
</linearGradient>
<clipPath id="clip0_1235_1277">
<rect width="76" height="80" fill="white" transform="translate(682 302)"/>
</clipPath>
<clipPath id="clip1_1235_1277">
<rect width="27" height="27" fill="white" transform="translate(707 510)"/>
</clipPath>
<clipPath id="clip2_1235_1277">
<rect width="27" height="27" fill="white" transform="translate(850 437)"/>
</clipPath>
<clipPath id="clip3_1235_1277">
<rect x="564" y="219" width="27" height="27" rx="13.5" fill="white"/>
</clipPath>
<clipPath id="clip4_1235_1277">
<rect width="31" height="31" fill="white" transform="translate(848 217)"/>
</clipPath>
</defs>
</svg>
