<svg width="70" height="70" viewBox="0 0 70 70" fill="none" xmlns="http://www.w3.org/2000/svg">
<g clip-path="url(#clip0_2615_322)">
<circle cx="38" cy="31" r="27" fill="#E69138"/>
<path d="M38.1854 0.583198C29.9055 0.593079 21.9676 3.8868 16.113 9.7418C10.2584 15.5968 6.96532 23.535 6.95605 31.8149C6.95605 32.279 7.14043 32.7241 7.46862 33.0523C7.79681 33.3805 8.24193 33.5649 8.70605 33.5649C9.17018 33.5649 9.6153 33.3805 9.94349 33.0523C10.2717 32.7241 10.4561 32.279 10.4561 31.8149C10.4556 26.3299 12.0817 20.9679 15.1287 16.4071C18.1757 11.8463 22.5068 8.29149 27.5742 6.19226C32.6416 4.09303 38.2177 3.54365 43.5973 4.61361C48.977 5.68357 53.9185 8.3248 57.797 12.2033C61.6754 16.0818 64.3167 21.0233 65.3866 26.4029C66.4566 31.7826 65.9072 37.3587 63.808 42.4261C61.7088 47.4935 58.154 51.8245 53.5932 54.8715C49.0323 57.9186 43.6704 59.5447 38.1854 59.5442C37.7213 59.5442 37.2761 59.7286 36.948 60.0568C36.6198 60.385 36.4354 60.8301 36.4354 61.2942C36.4354 61.7583 36.6198 62.2034 36.948 62.5316C37.2761 62.8598 37.7213 63.0442 38.1854 63.0442C42.3093 63.0798 46.3995 62.2984 50.2199 60.7449C54.0402 59.1914 57.515 56.8966 60.4438 53.9931C63.3726 51.0895 65.6973 47.6346 67.2837 43.8279C68.8702 40.0211 69.687 35.9378 69.687 31.8137C69.687 27.6896 68.8702 23.6063 67.2837 19.7995C65.6973 15.9928 63.3726 12.5379 60.4438 9.63434C57.515 6.73078 54.0402 4.43603 50.2199 2.88253C46.3995 1.32903 42.3093 0.547551 38.1854 0.583198Z" fill="white"/>
<path d="M37.1514 14.418C36.6872 14.418 36.2421 14.6023 35.9139 14.9305C35.5857 15.2587 35.4014 15.7038 35.4014 16.168V31.2926C35.4032 31.9189 35.5481 32.5366 35.8251 33.0983C36.1021 33.66 36.5039 34.151 36.9997 34.5336L48.4657 43.321C48.7694 43.5565 49.1431 43.6838 49.5274 43.6826C49.8931 43.6828 50.2497 43.5684 50.5471 43.3555C50.8444 43.1426 51.0676 42.8419 51.1853 42.4956C51.3029 42.1494 51.3092 41.7749 51.203 41.4249C51.0969 41.0749 50.8838 40.767 50.5937 40.5443L39.13 31.757C39.0576 31.7026 38.9988 31.6322 38.9583 31.5512C38.9178 31.4702 38.8967 31.3809 38.8967 31.2903V16.168C38.8967 15.7046 38.713 15.2602 38.3858 14.9322C38.0586 14.6041 37.6147 14.4192 37.1514 14.418Z" fill="white"/>
<path d="M3.31598 53.4773L9.91932 60.0806L16.518 66.6793C18.1271 68.3062 20.2788 69.2839 22.5627 69.4258C24.8466 69.5678 27.1028 68.8641 28.9011 67.4489C30.6993 66.0338 31.9137 64.0062 32.3126 61.7529C32.7115 59.4997 32.267 57.1784 31.064 55.2319C33.2237 53.066 34.4346 50.1308 34.4302 47.0721C34.4258 44.0134 33.2066 41.0817 31.0406 38.9219C28.8747 36.7622 25.9395 35.5513 22.8808 35.5557C19.8221 35.5601 16.8904 36.7793 14.7306 38.9453C12.9379 37.8996 10.8543 37.4637 8.79265 37.7031C6.73105 37.9425 4.80276 38.8442 3.29732 40.2729C2.43059 41.1396 1.74305 42.1685 1.27398 43.3009C0.804906 44.4333 0.563477 45.647 0.563477 46.8728C0.563477 48.0985 0.804906 49.3122 1.27398 50.4446C1.74305 51.577 2.43059 52.6059 3.29732 53.4726L3.31598 53.4773ZM27.2466 64.2106C26.1527 65.3042 24.6693 65.9185 23.1225 65.9185C21.5757 65.9185 20.0922 65.3042 18.9983 64.2106L13.6316 58.8439L15.2486 57.2269L21.8777 50.5956L27.2443 55.9623C28.3375 57.0558 28.9518 58.5386 28.9522 60.0848C28.9527 61.631 28.3392 63.1165 27.2466 64.2106ZM22.9813 38.9663C24.5563 38.958 26.0986 39.4146 27.4153 40.2789C28.7319 41.1432 29.7643 42.3767 30.383 43.8251C31.0018 45.2734 31.1795 46.8721 30.8939 48.4209C30.6083 49.9698 29.872 51.3999 28.7773 52.5323L23.119 46.8833L17.4583 41.2226C18.9418 39.79 20.9191 38.9823 22.9813 38.9663ZM5.78932 42.7463C6.90086 41.6856 8.37824 41.0938 9.91465 41.0938C11.4511 41.0938 12.9284 41.6856 14.04 42.7463L19.4067 48.1129L11.156 56.3683L5.78932 51.0016C5.24748 50.4599 4.81766 49.8168 4.52441 49.1089C4.23116 48.4011 4.08023 47.6424 4.08023 46.8763C4.08023 46.1101 4.23116 45.3514 4.52441 44.6436C4.81766 43.9357 5.24748 43.2926 5.78932 42.7509V42.7463Z" fill="white"/>
<path d="M27.2466 64.2106C26.1527 65.3042 24.6693 65.9185 23.1225 65.9185C21.5757 65.9185 20.0922 65.3042 18.9983 64.2106L13.6316 58.8439L15.2486 57.2269L21.8777 50.5956L27.2443 55.9623C28.3375 57.0558 28.9518 58.5386 28.9522 60.0848C28.9527 61.631 28.3392 63.1165 27.2466 64.2106Z" fill="#E69138"/>
<path d="M5.78932 42.7463C6.90086 41.6856 8.37824 41.0938 9.91465 41.0938C11.4511 41.0938 12.9284 41.6856 14.04 42.7463L19.4067 48.1129L11.156 56.3683L5.78932 51.0016C5.24748 50.4599 4.81766 49.8168 4.52441 49.1089C4.23116 48.4011 4.08023 47.6424 4.08023 46.8763C4.08023 46.1101 4.23116 45.3514 4.52441 44.6436C4.81766 43.9357 5.24748 43.2926 5.78932 42.7509V42.7463Z" fill="#E69138"/>
</g>
<defs>
<clipPath id="clip0_2615_322">
<rect width="70" height="70" fill="white"/>
</clipPath>
</defs>
</svg>
