<svg width="56" height="56" viewBox="0 0 56 56" fill="none" xmlns="http://www.w3.org/2000/svg">
<circle cx="24.5" cy="31.5" r="16.5" fill="white"/>
<path d="M38.2878 45.7075C34.5322 49.3059 29.51 51.2796 24.3093 51.2011C19.1087 51.1226 14.1484 48.9981 10.5031 45.288C6.85781 41.5779 4.82112 36.581 4.83428 31.3797C4.84743 26.1785 6.90938 21.1919 10.5734 17.5003C10.668 17.407 10.7432 17.2959 10.7945 17.1733C10.8458 17.0507 10.8722 16.9192 10.8722 16.7863C10.8722 16.6534 10.8458 16.5219 10.7945 16.3993C10.7432 16.2767 10.668 16.1656 10.5734 16.0723C10.3726 15.9061 10.1201 15.8152 9.85938 15.8152C9.59872 15.8152 9.34621 15.9061 9.14538 16.0723C6.10961 19.1203 4.04505 22.9995 3.21241 27.22C2.37977 31.4405 2.81639 35.8131 4.46713 39.7857C6.11787 43.7583 8.90871 47.1526 12.4872 49.5402C16.0658 51.9277 20.2715 53.2013 24.5734 53.2003C30.2003 53.2215 35.6133 51.0455 39.6598 47.1355C39.8353 46.9505 39.9328 46.7051 39.9321 46.4501C39.9313 46.1951 39.8323 45.9503 39.6556 45.7664C39.479 45.5825 39.2382 45.4738 38.9835 45.4628C38.7288 45.4519 38.4796 45.5395 38.2878 45.7075ZM24.5734 13.8995C21.0936 13.8895 17.689 14.9119 14.7904 16.8374C11.8917 18.7629 9.6294 21.5048 8.28953 24.7164C6.94967 27.928 6.59251 31.4648 7.26324 34.8794C7.93397 38.2939 9.60245 41.4329 12.0576 43.899C14.5127 46.3651 17.6442 48.0475 21.0557 48.7335C24.4673 49.4194 28.0057 49.0781 31.2232 47.7525C34.4407 46.427 37.1927 44.1769 39.1311 41.2869C41.0694 38.3969 42.107 34.9969 42.1126 31.5171C42.1126 26.8582 40.2673 22.3889 36.9803 19.0872C33.6933 15.7855 29.2323 13.9202 24.5734 13.8995ZM38.915 32.4803H40.035C39.8288 35.9107 38.4804 39.1733 36.2046 41.7483L35.4094 40.9475C35.2081 40.7799 34.9545 40.6881 34.6926 40.6881C34.4307 40.6881 34.177 40.7799 33.9758 40.9475C33.8811 41.0407 33.806 41.1519 33.7547 41.2745C33.7034 41.3971 33.677 41.5286 33.677 41.6615C33.677 41.7944 33.7034 41.9259 33.7547 42.0485C33.806 42.1711 33.8811 42.2822 33.9758 42.3755L34.7766 43.1763C32.2181 45.4622 28.9662 46.8229 25.5422 47.0403V45.9203C25.5468 45.6567 25.4479 45.4018 25.2668 45.2103C25.0857 45.0187 24.8368 44.9057 24.5734 44.8955C24.3044 44.8879 24.0432 44.9864 23.8462 45.1698C23.6492 45.3531 23.5322 45.6066 23.5206 45.8755V46.9955C20.0922 46.7909 16.832 45.4399 14.2638 43.1595L15.0646 42.3587C15.1592 42.2654 15.2344 42.1543 15.2857 42.0317C15.337 41.9091 15.3634 41.7776 15.3634 41.6447C15.3634 41.5118 15.337 41.3803 15.2857 41.2577C15.2344 41.1351 15.1592 41.0239 15.0646 40.9307C14.8638 40.7645 14.6113 40.6736 14.3506 40.6736C14.0899 40.6736 13.8374 40.7645 13.6366 40.9307L12.8806 41.7595C10.6165 39.1707 9.26317 35.9114 9.02778 32.4803H10.1478C10.4035 32.4719 10.6465 32.3665 10.8275 32.1856C11.0084 32.0046 11.1138 31.7616 11.1222 31.5059C11.1253 31.2412 11.0254 30.9857 10.8436 30.7934C10.6617 30.6011 10.4122 30.4871 10.1478 30.4755H9.02778C9.26796 27.0522 10.621 23.8014 12.8806 21.2187L13.6814 22.0195C13.7751 22.1132 13.8865 22.1876 14.009 22.2384C14.1315 22.2891 14.2628 22.3152 14.3954 22.3152C14.528 22.3152 14.6593 22.2891 14.7818 22.2384C14.9043 22.1876 15.0156 22.1132 15.1094 22.0195C15.2031 21.9257 15.2775 21.8144 15.3283 21.6919C15.379 21.5694 15.4051 21.4381 15.4051 21.3055C15.4051 21.1729 15.379 21.0416 15.3283 20.9191C15.2775 20.7966 15.2031 20.6853 15.1094 20.5915L14.3086 19.7907C16.8803 17.545 20.1148 16.2001 23.5206 15.9603V17.0803C23.5322 17.3447 23.6462 17.5942 23.8385 17.7761C24.0308 17.9579 24.2863 18.0579 24.551 18.0547C24.8062 18.0462 25.0486 17.9407 25.2286 17.7596C25.4086 17.5785 25.5128 17.3355 25.5198 17.0803V15.9603C28.9412 16.1905 32.1928 17.536 34.7766 19.7907L33.9758 20.5915C33.805 20.7851 33.7146 21.0366 33.7229 21.2947C33.7313 21.5527 33.8378 21.7978 34.0207 21.98C34.2036 22.1622 34.4491 22.2677 34.7072 22.2751C34.9653 22.2824 35.2164 22.191 35.4094 22.0195L36.2046 21.2187C38.4804 23.7937 39.8288 27.0563 40.035 30.4867H38.915C38.6417 30.4867 38.3796 30.5952 38.1864 30.7885C37.9931 30.9817 37.8846 31.2438 37.8846 31.5171C37.899 31.7795 38.0143 32.0262 38.2063 32.2057C38.3983 32.3852 38.6522 32.4836 38.915 32.4803ZM33.203 30.4755H27.1438C26.9427 29.9514 26.5916 29.4983 26.1345 29.1726C25.6773 28.8469 25.1344 28.6632 24.5734 28.6443C24.2004 28.6442 23.8312 28.7186 23.4874 28.8632C23.1437 29.0077 22.8322 29.2195 22.5714 29.486C22.3106 29.7526 22.1056 30.0686 21.9686 30.4154C21.8315 30.7623 21.7652 31.133 21.7734 31.5059C21.7868 31.8785 21.8644 32.2461 22.003 32.5923L19.371 35.2243C19.1995 35.4173 19.1081 35.6684 19.1154 35.9265C19.1227 36.1845 19.2283 36.4301 19.4105 36.613C19.5927 36.7959 19.8378 36.9024 20.0958 36.9107C20.3539 36.9191 20.6053 36.8286 20.799 36.6579L23.431 34.0259C23.7826 34.1848 24.1652 34.2632 24.551 34.2555C25.1112 34.2529 25.6577 34.0823 26.1199 33.7659C26.5821 33.4494 26.9388 33.0016 27.1438 32.4803H33.203C33.4544 32.4692 33.6924 32.364 33.8698 32.1856C34.0472 32.0072 34.151 31.7685 34.1606 31.5171C34.1638 31.2534 34.0647 30.9986 33.884 30.8065C33.7033 30.6143 33.4552 30.4997 33.1918 30.4867L33.203 30.4755ZM24.5734 32.2619C24.4717 32.2664 24.3701 32.2506 24.2746 32.2155C24.1791 32.1803 24.0915 32.1265 24.017 32.0572C23.9425 31.9879 23.8825 31.9044 23.8405 31.8117C23.7985 31.719 23.7755 31.6188 23.7726 31.5171C23.7635 31.4104 23.7766 31.3031 23.8112 31.2018C23.8458 31.1005 23.901 31.0075 23.9734 30.9287C24.0458 30.8498 24.1337 30.7869 24.2317 30.7438C24.3297 30.7008 24.4356 30.6786 24.5426 30.6786C24.6496 30.6786 24.7555 30.7008 24.8535 30.7438C24.9514 30.7869 25.0394 30.8498 25.1118 30.9287C25.1842 31.0075 25.2394 31.1005 25.274 31.2018C25.3085 31.3031 25.3217 31.4104 25.3126 31.5171C25.3097 31.7128 25.2311 31.8997 25.0933 32.0386C24.9554 32.1775 24.769 32.2576 24.5734 32.2619Z" fill="#3BA0A3"/>
<path d="M38.2878 45.7075C34.5322 49.3059 29.51 51.2796 24.3093 51.2011C19.1087 51.1226 14.1484 48.9981 10.5031 45.288C6.85781 41.5779 4.82112 36.581 4.83428 31.3797C4.84743 26.1785 6.90938 21.1919 10.5734 17.5003C10.668 17.407 10.7432 17.2959 10.7945 17.1733C10.8458 17.0507 10.8722 16.9192 10.8722 16.7863C10.8722 16.6534 10.8458 16.5219 10.7945 16.3993C10.7432 16.2767 10.668 16.1656 10.5734 16.0723C10.3726 15.9061 10.1201 15.8152 9.85938 15.8152C9.59872 15.8152 9.34621 15.9061 9.14538 16.0723C6.10961 19.1203 4.04505 22.9995 3.21241 27.22C2.37977 31.4405 2.81639 35.8131 4.46713 39.7857C6.11787 43.7583 8.90871 47.1526 12.4872 49.5402C16.0658 51.9277 20.2715 53.2013 24.5734 53.2003C30.2003 53.2215 35.6133 51.0455 39.6598 47.1355C39.8353 46.9505 39.9328 46.7051 39.9321 46.4501C39.9313 46.1951 39.8323 45.9503 39.6556 45.7664C39.479 45.5825 39.2382 45.4738 38.9835 45.4628C38.7288 45.4519 38.4796 45.5395 38.2878 45.7075ZM24.5734 13.8995C21.0936 13.8895 17.689 14.9119 14.7904 16.8374C11.8917 18.7629 9.6294 21.5048 8.28953 24.7164C6.94967 27.928 6.59251 31.4648 7.26324 34.8794C7.93397 38.2939 9.60245 41.4329 12.0576 43.899C14.5127 46.3651 17.6442 48.0475 21.0557 48.7335C24.4673 49.4194 28.0057 49.0781 31.2232 47.7525C34.4407 46.427 37.1927 44.1769 39.1311 41.2869C41.0694 38.3969 42.107 34.9969 42.1126 31.5171C42.1126 26.8582 40.2673 22.3889 36.9803 19.0872C33.6933 15.7855 29.2323 13.9202 24.5734 13.8995ZM38.915 32.4803H40.035C39.8288 35.9107 38.4804 39.1733 36.2046 41.7483L35.4094 40.9475C35.2081 40.7799 34.9545 40.6881 34.6926 40.6881C34.4307 40.6881 34.177 40.7799 33.9758 40.9475C33.8811 41.0407 33.806 41.1519 33.7547 41.2745C33.7034 41.3971 33.677 41.5286 33.677 41.6615C33.677 41.7944 33.7034 41.9259 33.7547 42.0485C33.806 42.1711 33.8811 42.2822 33.9758 42.3755L34.7766 43.1763C32.2181 45.4622 28.9662 46.8229 25.5422 47.0403V45.9203C25.5468 45.6567 25.4479 45.4018 25.2668 45.2103C25.0857 45.0187 24.8368 44.9057 24.5734 44.8955C24.3044 44.8879 24.0432 44.9864 23.8462 45.1698C23.6492 45.3531 23.5322 45.6066 23.5206 45.8755V46.9955C20.0922 46.7909 16.832 45.4399 14.2638 43.1595L15.0646 42.3587C15.1592 42.2654 15.2344 42.1543 15.2857 42.0317C15.337 41.9091 15.3634 41.7776 15.3634 41.6447C15.3634 41.5118 15.337 41.3803 15.2857 41.2577C15.2344 41.1351 15.1592 41.0239 15.0646 40.9307C14.8638 40.7645 14.6113 40.6736 14.3506 40.6736C14.0899 40.6736 13.8374 40.7645 13.6366 40.9307L12.8806 41.7595C10.6165 39.1707 9.26317 35.9114 9.02778 32.4803H10.1478C10.4035 32.4719 10.6465 32.3665 10.8275 32.1856C11.0084 32.0046 11.1138 31.7616 11.1222 31.5059C11.1253 31.2412 11.0254 30.9857 10.8436 30.7934C10.6617 30.6011 10.4122 30.4871 10.1478 30.4755H9.02778C9.26796 27.0522 10.621 23.8014 12.8806 21.2187L13.6814 22.0195C13.7751 22.1132 13.8865 22.1876 14.009 22.2384C14.1315 22.2891 14.2628 22.3152 14.3954 22.3152C14.528 22.3152 14.6593 22.2891 14.7818 22.2384C14.9043 22.1876 15.0156 22.1132 15.1094 22.0195C15.2031 21.9257 15.2775 21.8144 15.3283 21.6919C15.379 21.5694 15.4051 21.4381 15.4051 21.3055C15.4051 21.1729 15.379 21.0416 15.3283 20.9191C15.2775 20.7966 15.2031 20.6853 15.1094 20.5915L14.3086 19.7907C16.8803 17.545 20.1148 16.2001 23.5206 15.9603V17.0803C23.5322 17.3447 23.6462 17.5942 23.8385 17.7761C24.0308 17.9579 24.2863 18.0579 24.551 18.0547C24.8062 18.0462 25.0486 17.9407 25.2286 17.7596C25.4086 17.5785 25.5128 17.3355 25.5198 17.0803V15.9603C28.9412 16.1905 32.1928 17.536 34.7766 19.7907L33.9758 20.5915C33.805 20.7851 33.7146 21.0366 33.7229 21.2947C33.7313 21.5527 33.8378 21.7978 34.0207 21.98C34.2036 22.1622 34.4491 22.2677 34.7072 22.2751C34.9653 22.2824 35.2164 22.191 35.4094 22.0195L36.2046 21.2187C38.4804 23.7937 39.8288 27.0563 40.035 30.4867H38.915C38.6417 30.4867 38.3796 30.5952 38.1864 30.7885C37.9931 30.9817 37.8846 31.2438 37.8846 31.5171C37.899 31.7795 38.0143 32.0262 38.2063 32.2057C38.3983 32.3852 38.6522 32.4836 38.915 32.4803ZM33.203 30.4755H27.1438C26.9427 29.9514 26.5916 29.4983 26.1345 29.1726C25.6773 28.8469 25.1344 28.6632 24.5734 28.6443C24.2004 28.6442 23.8312 28.7186 23.4874 28.8632C23.1437 29.0077 22.8322 29.2195 22.5714 29.486C22.3106 29.7526 22.1056 30.0686 21.9686 30.4154C21.8315 30.7623 21.7652 31.133 21.7734 31.5059C21.7868 31.8785 21.8644 32.2461 22.003 32.5923L19.371 35.2243C19.1995 35.4173 19.1081 35.6684 19.1154 35.9265C19.1227 36.1845 19.2283 36.4301 19.4105 36.613C19.5927 36.7959 19.8378 36.9024 20.0958 36.9107C20.3539 36.9191 20.6053 36.8286 20.799 36.6579L23.431 34.0259C23.7826 34.1848 24.1652 34.2632 24.551 34.2555C25.1112 34.2529 25.6577 34.0823 26.1199 33.7659C26.5821 33.4494 26.9388 33.0016 27.1438 32.4803H33.203C33.4544 32.4692 33.6924 32.364 33.8698 32.1856C34.0472 32.0072 34.151 31.7685 34.1606 31.5171C34.1638 31.2534 34.0647 30.9986 33.884 30.8065C33.7033 30.6143 33.4552 30.4997 33.1918 30.4867L33.203 30.4755ZM24.5734 32.2619C24.4717 32.2664 24.3701 32.2506 24.2746 32.2155C24.1791 32.1803 24.0915 32.1265 24.017 32.0572C23.9425 31.9879 23.8825 31.9044 23.8405 31.8117C23.7985 31.719 23.7755 31.6188 23.7726 31.5171C23.7635 31.4104 23.7766 31.3031 23.8112 31.2018C23.8458 31.1005 23.901 31.0075 23.9734 30.9287C24.0458 30.8498 24.1337 30.7869 24.2317 30.7438C24.3297 30.7008 24.4356 30.6786 24.5426 30.6786C24.6496 30.6786 24.7555 30.7008 24.8535 30.7438C24.9514 30.7869 25.0394 30.8498 25.1118 30.9287C25.1842 31.0075 25.2394 31.1005 25.274 31.2018C25.3085 31.3031 25.3217 31.4104 25.3126 31.5171C25.3097 31.7128 25.2311 31.8997 25.0933 32.0386C24.9554 32.1775 24.769 32.2576 24.5734 32.2619Z" fill="url(#paint0_linear_2624_367)"/>
<path d="M23.8412 12.3234C23.973 12.5527 24.2541 13.0645 24.6276 13.0809C27.8993 13.2241 33.4996 14.3574 37.8171 18.9727C41.7948 23.2248 42.2499 29.0104 42.1251 31.4999C42.1157 31.749 42.2622 32.0712 42.6497 32.0935C42.7232 32.0977 44.4027 31.556 44.4995 31.5L47.3595 30.6431C47.4155 30.5871 47.5891 30.4695 47.4155 30.1839L45.8195 27.5519C45.6168 27.2296 45.4997 26.8609 45.4791 26.4807C45.4585 26.1005 45.7019 25.3791 45.7019 25.3791L46.2171 24.1807C46.2171 24.1807 46.5373 23.4277 46.8334 23.1453C47.1296 22.863 47.4975 22.6671 47.8971 22.5791L50.9267 21.7783C51.0387 21.7167 51.2123 21.7167 51.2123 21.4927V19.3143C51.2185 19.2314 51.1922 19.1493 51.1389 19.0855C51.0855 19.0217 51.0094 18.9812 50.9267 18.9727L47.8971 18.2279C47.5219 18.1261 47.1752 17.9393 46.8838 17.682C46.5925 17.4246 46.2171 16.7439 46.2171 16.7439L45.7019 15.4839C45.7019 15.4839 45.4607 14.7456 45.4704 14.3574C45.4801 13.9692 45.5784 13.5883 45.7579 13.2439L47.4771 10.5559C47.5164 10.479 47.5261 10.3903 47.5044 10.3067C47.4828 10.2231 47.4312 10.1504 47.3595 10.1023L45.8195 8.55669C45.7715 8.5178 45.7143 8.49217 45.6533 8.48234C45.5924 8.47251 45.53 8.47884 45.4723 8.50069L42.7899 10.1807C42.4459 10.3855 42.055 10.4983 41.6548 10.5081C41.2546 10.5179 40.5051 10.2367 40.5051 10.2367L39.3011 9.72149C39.3011 9.72149 38.5811 9.42987 38.3171 9.14493C38.053 8.85998 37.8791 8.50337 37.8171 8.11989L37.0163 5.02869C36.9919 4.96994 36.9529 4.91845 36.9029 4.87921C36.8528 4.83997 36.7935 4.8143 36.7307 4.80469H34.5579C34.4702 4.80558 34.385 4.83348 34.3139 4.8846C34.2427 4.93571 34.1891 5.00755 34.1603 5.09029L33.4883 8.09749C33.3899 8.49236 33.1905 8.85486 32.9097 9.1494C32.6289 9.44393 31.8867 9.77749 31.8867 9.77749L30.6883 10.2367C30.6883 10.2367 29.977 10.5215 29.5941 10.5117C29.2111 10.5018 28.8381 10.3873 28.5155 10.1807L26.3995 8.68897C26.3269 8.64839 26.2433 8.63195 26.1607 8.64201C26.0782 8.65208 26.001 8.68814 25.9403 8.74497L23.8412 11.8698L23.8392 11.8718C23.7824 11.9284 23.6696 12.0411 23.8412 12.3234Z" fill="white"/>
<path d="M35 13.5C36.5 14 40.5 16.5 41.5 19.5" stroke="#319A9D" stroke-width="2" stroke-linecap="round"/>
<defs>
<linearGradient id="paint0_linear_2624_367" x1="108.5" y1="28" x2="-55" y2="28" gradientUnits="userSpaceOnUse">
<stop stop-color="#1F8D92"/>
<stop offset="1" stop-color="#51B0B1"/>
</linearGradient>
</defs>
</svg>
