<svg width="176" height="176" viewBox="0 0 176 176" fill="none" xmlns="http://www.w3.org/2000/svg">
<g filter="url(#filter0_d_1771_1592)">
<rect x="8" y="4" width="160" height="160" rx="80" fill="url(#paint0_linear_1771_1592)" shape-rendering="crispEdges"/>
<path d="M108.429 84.1174C108.378 84.3817 108.434 84.6553 108.584 84.8786C108.735 85.1019 108.967 85.2566 109.231 85.3091C109.495 85.3616 109.769 85.3076 109.993 85.1588C110.218 85.01 110.374 84.7786 110.428 84.515L113.116 70.7278C113.222 70.2158 113.224 69.6879 113.122 69.1752C113.02 68.6624 112.817 68.1751 112.524 67.7421C112.232 67.309 111.855 66.9388 111.417 66.6533C110.98 66.3679 110.489 66.1729 109.975 66.0798L96.5962 63.4478L96.3106 61.9582C96.0812 60.9138 95.4475 60.0028 94.5481 59.4245C93.6487 58.8462 92.5568 58.6478 91.5114 58.8726L71.5586 62.7758C71.4309 62.793 71.3085 62.838 71.2001 62.9076C71.0917 62.9773 71 63.07 70.9314 63.179L63.1026 74.4798C62.9786 74.5996 62.8862 74.7482 62.8334 74.9123C62.7807 75.0764 62.7693 75.251 62.8002 75.4206L68.7586 105.627C68.9793 106.681 69.6095 107.604 70.5105 108.193C71.4115 108.782 72.5097 108.989 73.5634 108.769L90.425 105.509C90.5526 105.483 90.6737 105.432 90.7815 105.358C90.8892 105.285 90.9815 105.191 91.053 105.082C91.1245 104.973 91.1738 104.851 91.1982 104.723C91.2225 104.595 91.2215 104.464 91.195 104.336C91.1685 104.209 91.1172 104.087 91.0439 103.98C90.9706 103.872 90.8768 103.78 90.7679 103.708C90.6589 103.637 90.537 103.587 90.409 103.563C90.2809 103.539 90.1494 103.54 90.0218 103.566L73.1602 106.825C72.8972 106.879 72.6261 106.88 72.3627 106.829C72.0992 106.777 71.8486 106.674 71.6252 106.525C71.4019 106.376 71.2102 106.185 71.0613 105.961C70.9125 105.738 70.8093 105.487 70.7578 105.224L64.9842 75.9918L70.5338 74.9054C71.5846 74.6941 72.5096 74.077 73.1083 73.188C73.7069 72.299 73.9308 71.2097 73.7314 70.1566L72.645 64.607L91.9202 60.8326C92.1796 60.7735 92.4482 60.7667 92.7102 60.8127C92.9723 60.8587 93.2225 60.9566 93.4462 61.1005C93.67 61.2445 93.8627 61.4316 94.0132 61.651C94.1637 61.8704 94.2689 62.1176 94.3226 62.3782C95.8682 70.2182 97.4082 78.1086 98.9538 85.9486C96.6176 86.2914 94.3764 87.109 92.3682 88.351C90.1954 90.0646 89.053 92.0694 89.8538 94.9254C91.1936 99.573 93.6001 103.843 96.8818 107.397C97.4351 107.966 98.0971 108.419 98.8286 108.729C99.5602 109.038 100.346 109.198 101.141 109.198C101.935 109.198 102.721 109.038 103.453 108.729C104.184 108.419 104.846 107.966 105.399 107.397C108.736 103.852 111.169 99.5549 112.489 94.8694C112.822 93.6511 112.752 92.3575 112.288 91.1825C111.825 90.0074 110.994 89.0141 109.919 88.351C107.245 86.6472 104.128 85.7706 100.959 85.831L100.331 82.471L101.451 82.7006C102.767 82.9302 103.165 80.987 101.849 80.7574L99.8498 80.2982L98.937 75.3814L104.139 76.3502C105.45 76.5798 105.735 74.6366 104.481 74.351L98.4834 73.2478L96.9994 65.5814L109.571 68.0398C109.822 68.0807 110.062 68.1718 110.277 68.3077C110.492 68.4436 110.677 68.6215 110.821 68.8307C110.966 69.0399 111.066 69.276 111.117 69.5251C111.168 69.7741 111.168 70.0308 111.117 70.2798L108.429 84.1174ZM72.9922 91.039C71.7322 91.2686 72.1298 93.279 73.3898 92.9822L86.477 90.3502C86.7347 90.2975 86.9609 90.1446 87.1058 89.9251C87.2507 89.7056 87.3025 89.4375 87.2498 89.1798C87.1971 88.9221 87.0441 88.696 86.8246 88.551C86.6052 88.4061 86.3371 88.3543 86.0794 88.407L72.9922 91.039ZM93.225 81.1998L71.8442 85.5454C70.5898 85.775 70.9874 87.7182 72.2474 87.4886L93.6002 83.143C93.734 83.1251 93.8627 83.0801 93.9785 83.0107C94.0943 82.9413 94.1946 82.8489 94.2735 82.7394C94.3523 82.6298 94.4079 82.5052 94.4369 82.3734C94.4659 82.2416 94.4676 82.1052 94.442 81.9727C94.4164 81.8401 94.364 81.7142 94.2881 81.6026C94.2121 81.4911 94.1141 81.3962 94.0001 81.3238C93.8862 81.2515 93.7587 81.2031 93.6254 81.1818C93.4921 81.1605 93.3558 81.1666 93.225 81.1998ZM92.105 75.6502L70.7578 79.9958C69.5034 80.2254 69.901 82.1686 71.161 81.939L92.4802 77.5934C92.6078 77.5673 92.729 77.5163 92.8369 77.4434C92.9448 77.3704 93.0372 77.277 93.109 77.1683C93.1807 77.0596 93.2304 76.9378 93.2551 76.81C93.2798 76.6821 93.2791 76.5506 93.253 76.423C93.2269 76.2954 93.1759 76.1742 93.103 76.0663C93.03 75.9585 92.9365 75.866 92.8278 75.7942C92.7192 75.7225 92.5974 75.6728 92.4695 75.6481C92.3417 75.6234 92.2102 75.6241 92.0826 75.6502H92.105ZM98.7914 99.6182C98.9698 99.8014 99.1832 99.9471 99.4188 100.046C99.6545 100.146 99.9076 100.197 100.163 100.197C100.419 100.197 100.672 100.146 100.908 100.046C101.144 99.9471 101.357 99.8014 101.535 99.6182L106.312 94.6958C107.231 93.783 105.803 92.355 104.884 93.2678L100.197 98.1902L97.957 95.9502C97.0442 95.0374 95.6162 96.4654 96.529 97.3838L98.7914 99.6182ZM70.1306 72.9622L66.0706 73.7014L70.9874 66.6398L71.7882 70.5598C71.8752 71.1001 71.7485 71.653 71.4349 72.1014C71.1213 72.5498 70.6455 72.8586 70.1082 72.9622H70.1306ZM108.832 90.0086C109.56 90.4398 110.123 91.1009 110.434 91.8878C110.744 92.6747 110.783 93.5424 110.546 94.3542C109.316 98.7129 107.062 102.714 103.971 106.025C103.21 106.755 102.196 107.163 101.141 107.163C100.085 107.163 99.0711 106.755 98.3098 106.025C95.2394 102.709 93.0064 98.708 91.797 94.3542C91.5447 93.5549 91.5739 92.6933 91.8796 91.9128C92.1852 91.1323 92.749 90.4801 93.477 90.0646C95.7716 88.5995 98.4352 87.8164 101.158 87.8065C103.88 87.7966 106.549 88.5603 108.855 90.0086H108.832Z" fill="white"/>
</g>
<defs>
<filter id="filter0_d_1771_1592" x="0" y="0" width="176" height="176" filterUnits="userSpaceOnUse" color-interpolation-filters="sRGB">
<feFlood flood-opacity="0" result="BackgroundImageFix"/>
<feColorMatrix in="SourceAlpha" type="matrix" values="0 0 0 0 0 0 0 0 0 0 0 0 0 0 0 0 0 0 127 0" result="hardAlpha"/>
<feOffset dy="4"/>
<feGaussianBlur stdDeviation="4"/>
<feComposite in2="hardAlpha" operator="out"/>
<feColorMatrix type="matrix" values="0 0 0 0 0 0 0 0 0 0 0 0 0 0 0 0 0 0 0.05 0"/>
<feBlend mode="normal" in2="BackgroundImageFix" result="effect1_dropShadow_1771_1592"/>
<feBlend mode="normal" in="SourceGraphic" in2="effect1_dropShadow_1771_1592" result="shape"/>
</filter>
<linearGradient id="paint0_linear_1771_1592" x1="168" y1="84" x2="8" y2="84" gradientUnits="userSpaceOnUse">
<stop stop-color="#1F8D92"/>
<stop offset="1" stop-color="#51B0B1"/>
</linearGradient>
</defs>
</svg>
