<svg width="176" height="176" viewBox="0 0 176 176" fill="none" xmlns="http://www.w3.org/2000/svg">
<g filter="url(#filter0_d_1771_1586)">
<rect x="8" y="4" width="160" height="160" rx="80" fill="url(#paint0_linear_1771_1586)" shape-rendering="crispEdges"/>
<path d="M111.431 73.0464L108.401 72.3016C108.228 72.2456 108.172 72.184 108.172 72.128C107.998 71.6128 107.713 71.0416 107.545 70.644C107.489 70.5264 107.427 70.4144 107.489 70.2968L109.202 67.5528C109.455 67.0966 109.552 66.5708 109.479 66.0546C109.406 65.5383 109.168 65.0598 108.799 64.6912L107.259 63.1456C106.895 62.785 106.419 62.56 105.909 62.5081C105.4 62.4561 104.888 62.5803 104.459 62.86L101.771 64.4616C101.659 64.4944 101.541 64.4944 101.429 64.4616C100.97 64.232 100.455 64.064 99.8838 63.8344C99.8278 63.8344 99.7718 63.7784 99.7718 63.6048L98.971 60.5752C98.8402 60.0766 98.5511 59.634 98.1471 59.3139C97.7432 58.9937 97.2462 58.8134 96.731 58.8H94.5694C94.0439 58.794 93.532 58.9662 93.117 59.2886C92.7021 59.611 92.4086 60.0645 92.2846 60.5752L91.5454 63.6048C91.4838 63.7784 91.4278 63.8344 91.2598 63.8344C90.8006 64.064 90.2854 64.232 89.8318 64.4616C89.7142 64.5232 89.6582 64.5232 89.4846 64.4616L86.8022 62.86C86.3614 62.5857 85.8422 62.4649 85.3256 62.5166C84.809 62.5683 84.324 62.7894 83.9462 63.1456L82.4006 64.6912C82.026 65.0712 81.7933 65.5683 81.7413 66.0994C81.6893 66.6305 81.8212 67.1633 82.115 67.6088C82.2512 67.8364 82.4721 68.0008 82.7292 68.0658C82.9864 68.1309 83.2589 68.0914 83.487 67.956C83.7107 67.8148 83.8712 67.5926 83.9349 67.3359C83.9985 67.0791 83.9605 66.8077 83.8286 66.5784C83.655 66.2928 83.7726 66.1808 83.8286 66.1248L85.3126 64.6352C85.3733 64.5783 85.4505 64.5423 85.533 64.5322C85.6156 64.5221 85.6992 64.5386 85.7718 64.5792L88.5158 66.1808C88.8384 66.3874 89.2114 66.5019 89.5944 66.5117C89.9774 66.5216 90.3558 66.4265 90.6886 66.2368C91.1422 66.0632 91.5454 65.8952 91.887 65.7776C92.2767 65.6605 92.6293 65.444 92.9101 65.1495C93.1909 64.8549 93.3902 64.4924 93.4886 64.0976L94.1606 61.0904C94.1894 61.0076 94.2431 60.9358 94.3142 60.8847C94.3854 60.8336 94.4706 60.8056 94.5582 60.8048H96.731C96.7938 60.8144 96.8531 60.84 96.9032 60.8793C96.9532 60.9185 96.9923 60.97 97.0166 61.0288L97.8174 64.12C97.8794 64.5034 98.0534 64.86 98.3174 65.145C98.5814 65.4299 98.9237 65.6305 99.3014 65.7216L100.505 66.2368C100.859 66.4245 101.255 66.518 101.655 66.5082C102.055 66.4984 102.446 66.3856 102.79 66.1808L105.473 64.5008C105.53 64.4789 105.593 64.4726 105.654 64.4824C105.715 64.4922 105.772 64.5179 105.82 64.5568L107.36 66.1024C107.432 66.1505 107.483 66.2232 107.505 66.3068C107.526 66.3904 107.517 66.4791 107.477 66.556L105.758 69.244C105.579 69.5884 105.48 69.9692 105.471 70.3575C105.461 70.7457 105.54 71.131 105.702 71.484C105.911 71.8879 106.083 72.3096 106.217 72.744C106.365 73.1037 106.593 73.4247 106.884 73.6821C107.176 73.9394 107.522 74.1262 107.897 74.228L110.927 74.9728C111.01 74.9813 111.086 75.0217 111.139 75.0855C111.193 75.1493 111.219 75.2314 111.213 75.3144V77.4928C111.213 77.7168 111.039 77.7168 110.927 77.7784L107.897 78.5792C107.498 78.6672 107.13 78.863 106.834 79.1454C106.538 79.4277 106.324 79.7858 106.217 80.1808C106.105 80.5224 105.876 80.92 105.702 81.3792C105.536 81.7215 105.459 82.1006 105.479 82.4808C105.5 82.861 105.617 83.2296 105.82 83.552L107.416 86.184C107.589 86.4696 107.416 86.5872 107.36 86.6432L105.82 88.1888C105.758 88.3008 105.59 88.3008 105.473 88.2448C105.25 88.1014 104.979 88.0525 104.72 88.1087C104.461 88.1649 104.236 88.3216 104.092 88.5444C103.949 88.7671 103.9 89.0377 103.956 89.2966C104.012 89.5555 104.169 89.7814 104.392 89.9248C104.75 90.2016 105.194 90.3442 105.646 90.328C105.946 90.326 106.242 90.2641 106.517 90.1458C106.792 90.0275 107.04 89.8552 107.248 89.6392L108.788 88.0936C109.157 87.7263 109.396 87.2487 109.468 86.7332C109.541 86.2177 109.444 85.6926 109.191 85.2376L107.511 82.544C107.477 82.5057 107.454 82.4591 107.444 82.4088C107.434 82.3586 107.438 82.3066 107.455 82.2584C107.699 81.7792 107.909 81.2833 108.082 80.7744C108.138 80.6568 108.194 80.5448 108.368 80.5448L111.336 79.744C111.857 79.6474 112.326 79.3693 112.662 78.9593C112.997 78.5492 113.176 78.0336 113.167 77.504V75.3312C113.174 74.8062 113.003 74.2943 112.682 73.8793C112.36 73.4642 111.907 73.1706 111.397 73.0464H111.431ZM98.2878 101.707C94.5322 105.306 89.51 107.279 84.3093 107.201C79.1087 107.122 74.1484 104.998 70.5031 101.288C66.8578 97.5776 64.8211 92.5806 64.8343 87.3794C64.8474 82.1782 66.9094 77.1916 70.5734 73.5C70.668 73.4067 70.7432 73.2955 70.7945 73.173C70.8458 73.0504 70.8722 72.9188 70.8722 72.786C70.8722 72.6531 70.8458 72.5215 70.7945 72.3989C70.7432 72.2764 70.668 72.1652 70.5734 72.072C70.3726 71.9058 70.1201 71.8149 69.8594 71.8149C69.5987 71.8149 69.3462 71.9058 69.1454 72.072C66.1096 75.1199 64.0451 78.9991 63.2124 83.2197C62.3798 87.4402 62.8164 91.8128 64.4671 95.7854C66.1179 99.7579 68.9087 103.152 72.4872 105.54C76.0658 107.927 80.2715 109.201 84.5734 109.2C90.2003 109.221 95.6133 107.045 99.6598 103.135C99.8353 102.95 99.9328 102.705 99.9321 102.45C99.9313 102.195 99.8323 101.95 99.6556 101.766C99.479 101.582 99.2382 101.473 98.9835 101.463C98.7288 101.452 98.4796 101.539 98.2878 101.707ZM84.5734 69.8992C81.0936 69.8892 77.689 70.9116 74.7904 72.8371C71.8917 74.7625 69.6294 77.5045 68.2895 80.7161C66.9497 83.9276 66.5925 87.4644 67.2632 90.879C67.934 94.2936 69.6024 97.4325 72.0576 99.8986C74.5127 102.365 77.6442 104.047 81.0557 104.733C84.4673 105.419 88.0057 105.078 91.2232 103.752C94.4407 102.427 97.1927 100.177 99.1311 97.2866C101.069 94.3966 102.107 90.9966 102.113 87.5168C102.113 82.8578 100.267 78.3886 96.9803 75.0869C93.6933 71.7852 89.2323 69.9199 84.5734 69.8992ZM98.915 88.48H100.035C99.8288 91.9103 98.4804 95.173 96.2046 97.748L95.4094 96.9472C95.2081 96.7795 94.9545 96.6877 94.6926 96.6877C94.4307 96.6877 94.177 96.7795 93.9758 96.9472C93.8811 97.0404 93.806 97.1516 93.7547 97.2741C93.7034 97.3967 93.677 97.5283 93.677 97.6612C93.677 97.794 93.7034 97.9256 93.7547 98.0482C93.806 98.1707 93.8811 98.2819 93.9758 98.3752L94.7766 99.176C92.2181 101.462 88.9662 102.823 85.5422 103.04V101.92C85.5468 101.656 85.4479 101.401 85.2668 101.21C85.0857 101.018 84.8368 100.905 84.5734 100.895C84.3044 100.888 84.0432 100.986 83.8462 101.169C83.6492 101.353 83.5322 101.606 83.5206 101.875V102.995C80.0922 102.791 76.832 101.44 74.2638 99.1592L75.0646 98.3584C75.1592 98.2651 75.2344 98.1539 75.2857 98.0314C75.337 97.9088 75.3634 97.7772 75.3634 97.6444C75.3634 97.5115 75.337 97.3799 75.2857 97.2574C75.2344 97.1348 75.1592 97.0236 75.0646 96.9304C74.8638 96.7642 74.6113 96.6733 74.3506 96.6733C74.0899 96.6733 73.8374 96.7642 73.6366 96.9304L72.8806 97.7592C70.6165 95.1704 69.2632 91.911 69.0278 88.48H70.1478C70.4035 88.4716 70.6465 88.3662 70.8275 88.1853C71.0084 88.0043 71.1138 87.7613 71.1222 87.5056C71.1253 87.2409 71.0254 86.9854 70.8436 86.7931C70.6617 86.6008 70.4122 86.4868 70.1478 86.4752H69.0278C69.268 83.0519 70.621 79.8011 72.8806 77.2184L73.6814 78.0192C73.7751 78.1129 73.8865 78.1873 74.009 78.238C74.1315 78.2888 74.2628 78.3149 74.3954 78.3149C74.528 78.3149 74.6593 78.2888 74.7818 78.238C74.9043 78.1873 75.0156 78.1129 75.1094 78.0192C75.2031 77.9254 75.2775 77.8141 75.3283 77.6916C75.379 77.5691 75.4051 77.4378 75.4051 77.3052C75.4051 77.1726 75.379 77.0413 75.3283 76.9187C75.2775 76.7962 75.2031 76.6849 75.1094 76.5912L74.3086 75.7904C76.8803 73.5447 80.1148 72.1998 83.5206 71.96V73.08C83.5322 73.3444 83.6462 73.5939 83.8385 73.7758C84.0308 73.9576 84.2863 74.0575 84.551 74.0544C84.8062 74.0459 85.0486 73.9403 85.2286 73.7593C85.4086 73.5782 85.5128 73.3352 85.5198 73.08V71.96C88.9412 72.1902 92.1928 73.5357 94.7766 75.7904L93.9758 76.5912C93.805 76.7848 93.7146 77.0363 93.7229 77.2943C93.7313 77.5524 93.8378 77.7975 94.0207 77.9797C94.2036 78.1619 94.4491 78.2674 94.7072 78.2747C94.9653 78.2821 95.2164 78.1907 95.4094 78.0192L96.2046 77.2184C98.4804 79.7933 99.8288 83.056 100.035 86.4864H98.915C98.6417 86.4864 98.3796 86.5949 98.1864 86.7882C97.9931 86.9814 97.8846 87.2435 97.8846 87.5168C97.899 87.7792 98.0143 88.0259 98.2063 88.2054C98.3983 88.3849 98.6522 88.4832 98.915 88.48ZM93.203 86.4752H87.1438C86.9427 85.9511 86.5916 85.4979 86.1345 85.1723C85.6773 84.8466 85.1344 84.6628 84.5734 84.644C84.2004 84.6439 83.8312 84.7183 83.4874 84.8628C83.1437 85.0074 82.8322 85.2192 82.5714 85.4857C82.3106 85.7523 82.1056 86.0683 81.9686 86.4151C81.8315 86.762 81.7652 87.1327 81.7734 87.5056C81.7868 87.8782 81.8644 88.2458 82.003 88.592L79.371 91.224C79.1995 91.4169 79.1081 91.6681 79.1154 91.9261C79.1227 92.1842 79.2283 92.4297 79.4105 92.6126C79.5927 92.7956 79.8378 92.9021 80.0958 92.9104C80.3539 92.9187 80.6053 92.8283 80.799 92.6576L83.431 90.0256C83.7826 90.1845 84.1652 90.2629 84.551 90.2552C85.1112 90.2526 85.6577 90.082 86.1199 89.7656C86.5821 89.4491 86.9388 89.0013 87.1438 88.48H93.203C93.4544 88.4689 93.6924 88.3637 93.8698 88.1853C94.0472 88.0068 94.151 87.7682 94.1606 87.5168C94.1638 87.253 94.0647 86.9983 93.884 86.8062C93.7033 86.614 93.4552 86.4994 93.1918 86.4864L93.203 86.4752ZM84.5734 88.2616C84.4717 88.2661 84.3701 88.2503 84.2746 88.2151C84.1791 88.18 84.0915 88.1262 84.017 88.0569C83.9425 87.9876 83.8825 87.9041 83.8405 87.8114C83.7985 87.7187 83.7755 87.6185 83.7726 87.5168C83.7635 87.4101 83.7766 87.3028 83.8112 87.2015C83.8458 87.1002 83.901 87.0072 83.9734 86.9283C84.0458 86.8495 84.1337 86.7866 84.2317 86.7435C84.3297 86.7005 84.4356 86.6782 84.5426 86.6782C84.6496 86.6782 84.7555 86.7005 84.8535 86.7435C84.9514 86.7866 85.0394 86.8495 85.1118 86.9283C85.1842 87.0072 85.2394 87.1002 85.274 87.2015C85.3085 87.3028 85.3217 87.4101 85.3126 87.5168C85.3097 87.7124 85.2311 87.8994 85.0933 88.0383C84.9554 88.1772 84.769 88.2572 84.5734 88.2616ZM92.5142 68.2416C92.2618 68.3399 92.0563 68.5307 91.9398 68.7753C91.8232 69.0198 91.8044 69.2996 91.887 69.5576C91.9323 69.684 92.0033 69.7996 92.0955 69.8973C92.1877 69.995 92.299 70.0725 92.4226 70.1251C92.5462 70.1777 92.6793 70.2042 92.8136 70.2029C92.9479 70.2016 93.0805 70.1725 93.203 70.1176C97.7726 68.4376 102.913 72.8616 101.771 77.3976C101.696 77.656 101.727 77.9334 101.856 78.1695C101.985 78.4055 102.202 78.5809 102.46 78.6576C102.723 78.7037 102.995 78.654 103.225 78.5174C103.455 78.3808 103.629 78.1663 103.714 77.9128C105.198 71.7864 98.6406 66.08 92.5142 68.2416Z" fill="white"/>
</g>
<defs>
<filter id="filter0_d_1771_1586" x="0" y="0" width="176" height="176" filterUnits="userSpaceOnUse" color-interpolation-filters="sRGB">
<feFlood flood-opacity="0" result="BackgroundImageFix"/>
<feColorMatrix in="SourceAlpha" type="matrix" values="0 0 0 0 0 0 0 0 0 0 0 0 0 0 0 0 0 0 127 0" result="hardAlpha"/>
<feOffset dy="4"/>
<feGaussianBlur stdDeviation="4"/>
<feComposite in2="hardAlpha" operator="out"/>
<feColorMatrix type="matrix" values="0 0 0 0 0 0 0 0 0 0 0 0 0 0 0 0 0 0 0.05 0"/>
<feBlend mode="normal" in2="BackgroundImageFix" result="effect1_dropShadow_1771_1586"/>
<feBlend mode="normal" in="SourceGraphic" in2="effect1_dropShadow_1771_1586" result="shape"/>
</filter>
<linearGradient id="paint0_linear_1771_1586" x1="168" y1="84" x2="8" y2="84" gradientUnits="userSpaceOnUse">
<stop stop-color="#1F8D92"/>
<stop offset="1" stop-color="#51B0B1"/>
</linearGradient>
</defs>
</svg>
