<svg width="176" height="176" viewBox="0 0 176 176" fill="none" xmlns="http://www.w3.org/2000/svg">
<g filter="url(#filter0_d_1771_1589)">
<rect x="8" y="4" width="160" height="160" rx="80" fill="url(#paint0_linear_1771_1589)" shape-rendering="crispEdges"/>
<path d="M80.7477 85.6014C79.7128 85.5948 78.6991 85.8953 77.8351 86.465C76.971 87.0347 76.2954 87.8479 75.8938 88.8017C75.4921 89.7555 75.3824 90.8071 75.5786 91.8232C75.7748 92.8394 76.268 93.7745 76.9959 94.5103C77.7238 95.246 78.6536 95.7493 79.6676 95.9563C80.6816 96.1634 81.7343 96.065 82.6924 95.6736C83.6504 95.2821 84.4708 94.6153 85.0497 93.7574C85.6287 92.8995 85.94 91.8891 85.9445 90.8542C85.9475 89.4698 85.4027 88.1405 84.4291 87.1564C83.4555 86.1722 82.132 85.6132 80.7477 85.6014ZM79.7733 65.4862C80.0255 65.4673 80.2612 65.3538 80.4332 65.1684C80.6052 64.983 80.7008 64.7395 80.7008 64.4866C80.7008 64.2337 80.6052 63.9902 80.4332 63.8048C80.2612 63.6194 80.0255 63.5059 79.7733 63.487H72.4933C72.3557 63.4767 72.2175 63.4949 72.0873 63.5405C71.9571 63.586 71.8377 63.658 71.7366 63.7518C71.6355 63.8456 71.5548 63.9593 71.4997 64.0858C71.4445 64.2122 71.416 64.3487 71.416 64.4866C71.416 64.6246 71.4445 64.761 71.4997 64.8874C71.5548 65.0139 71.6355 65.1276 71.7366 65.2214C71.8377 65.3152 71.9571 65.3872 72.0873 65.4327C72.2175 65.4783 72.3557 65.4965 72.4933 65.4862H79.7733ZM103.82 96.1126H96.7357C96.4377 96.1125 96.1427 96.1719 95.868 96.2873C95.5933 96.4027 95.3443 96.5717 95.1357 96.7844C94.9271 96.9972 94.7631 97.2495 94.6532 97.5264C94.5433 97.8034 94.4897 98.0995 94.4957 98.3974V101.545C94.4957 102.139 94.7317 102.708 95.1518 103.129C95.5719 103.549 96.1416 103.785 96.7357 103.785H103.82C104.411 103.776 104.976 103.537 105.394 103.119C105.812 102.701 106.051 102.136 106.06 101.545V98.3974C106.06 97.7991 105.825 97.2247 105.406 96.7974C104.988 96.3702 104.418 96.1243 103.82 96.1126ZM104.049 101.545C104.044 101.603 104.018 101.658 103.976 101.699C103.934 101.74 103.878 101.765 103.82 101.769H96.7357C96.7056 101.771 96.6754 101.767 96.647 101.757C96.6187 101.746 96.593 101.73 96.5716 101.709C96.5503 101.687 96.5339 101.662 96.5235 101.633C96.5132 101.605 96.5091 101.575 96.5117 101.545V98.3974C96.5117 98.2854 96.5677 98.1118 96.7357 98.1118H103.82C103.888 98.1202 103.95 98.1548 103.992 98.2081C104.035 98.2614 104.056 98.3293 104.049 98.3974V101.545ZM110.209 77.431H109.532V69.199C109.525 68.6787 109.415 68.1649 109.206 67.6883C108.997 67.2117 108.695 66.7819 108.316 66.4245C107.938 66.0672 107.492 65.7896 107.004 65.6082C106.516 65.4268 105.997 65.3453 105.477 65.3686H103.019V59.8302C103.024 59.5661 102.925 59.3106 102.744 59.1181C102.563 58.9257 102.314 58.8114 102.05 58.7998H67.4981C67.2248 58.7998 66.9627 58.9084 66.7695 59.1016C66.5763 59.2948 66.4677 59.5569 66.4677 59.8302V81.3118C66.4793 81.5762 66.5933 81.8258 66.7856 82.0076C66.9779 82.1895 67.2334 82.2894 67.4981 82.2862C67.7533 82.2777 67.9957 82.1722 68.1757 81.9911C68.3558 81.81 68.4599 81.5671 68.4669 81.3118V60.799H101.02V65.3686H85.6589C85.3858 65.3786 85.1238 65.479 84.9141 65.6542L75.2093 75.2022C75.022 75.4023 74.9196 75.6673 74.9237 75.9414V83.2214C74.3424 83.5618 73.7815 83.9358 73.2437 84.3414H65.8405C65.4144 84.3308 64.991 84.4115 64.5988 84.5782C64.2065 84.7449 63.8545 84.9936 63.5664 85.3077C63.2783 85.6218 63.0608 85.9939 62.9286 86.3991C62.7963 86.8043 62.7524 87.233 62.7997 87.6566L64.9277 106.573C65.0258 107.304 65.3871 107.974 65.9438 108.458C66.5005 108.941 67.2144 109.205 67.9517 109.2H107.359C108.081 109.193 108.776 108.923 109.313 108.439C109.849 107.955 110.19 107.291 110.271 106.573L113.2 80.6846C113.231 80.2728 113.178 79.859 113.043 79.4686C112.908 79.0782 112.695 78.7195 112.417 78.4146C112.138 78.1098 111.8 77.8652 111.423 77.6961C111.046 77.5269 110.639 77.4367 110.226 77.431H110.209ZM84.4045 68.9694V73.259C84.4082 73.5105 84.3623 73.7603 84.2695 73.9941C84.1766 74.2279 84.0387 74.4411 83.8634 74.6215C83.6882 74.802 83.4791 74.9461 83.2481 75.0458C83.0171 75.1454 82.7688 75.1986 82.5173 75.2022H78.0373L84.4045 68.9694ZM89.0301 98.0894C86.8573 96.4934 85.6029 96.2638 83.2621 97.8654C81.2013 99.2318 80.5181 99.2318 78.4069 97.8654C76.1221 96.2638 74.6381 96.4934 72.4653 98.263C71.556 96.7617 71.0631 95.0452 71.0373 93.2902C71.0305 91.8056 71.3662 90.3394 72.0182 89.0057C72.6703 87.6719 73.6211 86.5065 74.7969 85.6C75.9727 84.6935 77.3417 84.0704 78.7974 83.7792C80.2532 83.4879 81.7565 83.5363 83.1906 83.9205C84.6246 84.3048 85.9507 85.0147 87.0657 85.9948C88.1808 86.975 89.0547 88.1992 89.6197 89.5721C90.1846 90.945 90.4253 92.4298 90.3231 93.9109C90.2208 95.392 89.7784 96.8295 89.0301 98.1118V98.0894ZM87.8261 99.7694C86.928 100.766 85.8326 101.566 84.6093 102.117C83.386 102.669 82.0615 102.96 80.7197 102.973C79.3942 102.974 78.0827 102.701 76.8683 102.169C75.6538 101.638 74.5626 100.861 73.6637 99.887C75.2093 98.627 75.7189 98.459 77.3205 99.5454C80.0589 101.371 81.6605 101.371 84.4045 99.5454C85.9445 98.515 86.3421 98.571 87.8261 99.7694ZM108.272 106.344C108.244 106.571 108.138 106.782 107.971 106.938C107.804 107.095 107.587 107.188 107.359 107.201H67.9517C67.7078 107.199 67.472 107.113 67.2849 106.957C67.0979 106.8 66.9712 106.584 66.9269 106.344L64.8157 87.427C64.7991 87.2856 64.8137 87.1423 64.8584 87.0071C64.9031 86.872 64.9769 86.7483 65.0746 86.6447C65.1723 86.5412 65.2915 86.4603 65.4238 86.4077C65.5562 86.3552 65.6984 86.3323 65.8405 86.3406H71.3789C69.8499 88.3422 69.0268 90.7938 69.0381 93.3126C69.037 95.7827 69.8205 98.1893 71.2755 100.185C72.7306 102.182 74.782 103.664 77.1339 104.419C79.4858 105.174 82.0167 105.162 84.3617 104.386C86.7066 103.61 88.7444 102.109 90.1812 100.099C91.618 98.0901 92.3795 95.6764 92.356 93.2064C92.3324 90.7364 91.525 88.3377 90.0502 86.3562C88.5754 84.3747 86.5093 82.9128 84.15 82.1813C81.7907 81.4498 79.26 81.4866 76.9229 82.2862V77.2014H82.5229C83.5557 77.1911 84.5428 76.7735 85.2694 76.0395C85.9961 75.3055 86.4037 74.3143 86.4037 73.2814V67.3734H105.477C105.733 67.356 105.989 67.3896 106.231 67.4723C106.473 67.555 106.697 67.6851 106.888 67.8551C107.079 68.025 107.235 68.2314 107.345 68.4622C107.456 68.6929 107.52 68.9434 107.532 69.199V77.431H93.1405C91.2533 77.431 88.8565 78.2262 88.1005 82.0006C88.0416 82.2582 88.0869 82.5286 88.2263 82.753C88.3658 82.9775 88.5883 83.1377 88.8453 83.199C89.1104 83.2517 89.3856 83.197 89.6103 83.0468C89.8351 82.8966 89.991 82.6633 90.0437 82.3982C90.5589 79.7718 91.9869 79.4302 93.1293 79.4302H110.215C110.352 79.4327 110.487 79.4634 110.611 79.5204C110.736 79.5773 110.847 79.6593 110.939 79.7613C111.03 79.8632 111.099 79.9829 111.143 80.1128C111.186 80.2428 111.202 80.3802 111.189 80.5166L108.272 106.344ZM91.8245 73.3598H102.851C103.105 73.3514 103.347 73.2467 103.527 73.0668C103.707 72.8869 103.811 72.6453 103.82 72.391C103.823 72.1273 103.724 71.8726 103.543 71.6804C103.362 71.4883 103.114 71.3736 102.851 71.3606H91.8245C91.6885 71.3606 91.5538 71.3876 91.4284 71.4402C91.303 71.4927 91.1892 71.5697 91.0938 71.6667C90.9985 71.7636 90.9233 71.8786 90.8728 72.0049C90.8223 72.1311 90.7975 72.2662 90.7997 72.4022C90.8141 72.6632 90.9288 72.9084 91.1197 73.0869C91.3107 73.2653 91.5632 73.3631 91.8245 73.3598ZM80.7477 94.0798C80.056 94.0816 79.3822 93.8603 78.8263 93.4487C78.2704 93.0371 77.8621 92.4571 77.6621 91.795C78.4977 91.9099 79.3489 91.8132 80.1374 91.5138C80.926 91.2144 81.6268 90.7219 82.1757 90.0814C82.3502 89.8764 82.4362 89.6106 82.4146 89.3422C82.3931 89.0739 82.2659 88.8251 82.0609 88.6506C81.8559 88.4761 81.59 88.3901 81.3217 88.4117C81.0534 88.4332 80.8046 88.5604 80.6301 88.7654C80.2746 89.1734 79.8197 89.4827 79.3095 89.6632C78.7993 89.8437 78.2511 89.8894 77.7181 89.7958C77.9272 89.159 78.3335 88.6053 78.8781 88.2147C79.4227 87.8241 80.0775 87.6169 80.7477 87.623C81.6018 87.6348 82.4167 87.9831 83.0155 88.5924C83.6142 89.2016 83.9483 90.0224 83.9453 90.8766C83.9468 91.2972 83.8651 91.7139 83.705 92.1029C83.5449 92.4918 83.3095 92.8453 83.0124 93.1429C82.7152 93.4406 82.3622 93.6766 81.9735 93.8374C81.5849 93.9982 81.1683 94.0805 80.7477 94.0798Z" fill="white"/>
</g>
<defs>
<filter id="filter0_d_1771_1589" x="0" y="0" width="176" height="176" filterUnits="userSpaceOnUse" color-interpolation-filters="sRGB">
<feFlood flood-opacity="0" result="BackgroundImageFix"/>
<feColorMatrix in="SourceAlpha" type="matrix" values="0 0 0 0 0 0 0 0 0 0 0 0 0 0 0 0 0 0 127 0" result="hardAlpha"/>
<feOffset dy="4"/>
<feGaussianBlur stdDeviation="4"/>
<feComposite in2="hardAlpha" operator="out"/>
<feColorMatrix type="matrix" values="0 0 0 0 0 0 0 0 0 0 0 0 0 0 0 0 0 0 0.05 0"/>
<feBlend mode="normal" in2="BackgroundImageFix" result="effect1_dropShadow_1771_1589"/>
<feBlend mode="normal" in="SourceGraphic" in2="effect1_dropShadow_1771_1589" result="shape"/>
</filter>
<linearGradient id="paint0_linear_1771_1589" x1="168" y1="84" x2="8" y2="84" gradientUnits="userSpaceOnUse">
<stop stop-color="#1F8D92"/>
<stop offset="1" stop-color="#51B0B1"/>
</linearGradient>
</defs>
</svg>
