<svg width="56" height="56" viewBox="0 0 56 56" fill="none" xmlns="http://www.w3.org/2000/svg">
<path d="M6.5 52L4 31.5V30L8.5 29V4H42V10H46L48.5 12V22L52 23.5L48.5 52H6.5Z" fill="white"/>
<path d="M20.7477 29.6014C19.7128 29.5948 18.6991 29.8953 17.8351 30.465C16.971 31.0347 16.2954 31.8479 15.8938 32.8017C15.4921 33.7555 15.3824 34.8071 15.5786 35.8232C15.7748 36.8394 16.268 37.7746 16.9959 38.5103C17.7238 39.246 18.6536 39.7493 19.6676 39.9563C20.6816 40.1634 21.7343 40.065 22.6924 39.6736C23.6504 39.2821 24.4708 38.6153 25.0497 37.7574C25.6287 36.8995 25.94 35.8891 25.9445 34.8542C25.9475 33.4698 25.4027 32.1405 24.4291 31.1564C23.4555 30.1722 22.132 29.6132 20.7477 29.6014ZM19.7733 9.48621C20.0255 9.46732 20.2612 9.3538 20.4332 9.16842C20.6052 8.98304 20.7008 8.7395 20.7008 8.48661C20.7008 8.23371 20.6052 7.99017 20.4332 7.80479C20.2612 7.61941 20.0255 7.50589 19.7733 7.48701H12.4933C12.3557 7.4767 12.2175 7.4949 12.0873 7.54047C11.9571 7.58603 11.8377 7.65798 11.7366 7.75181C11.6355 7.84564 11.5548 7.95933 11.4997 8.08576C11.4445 8.2122 11.416 8.34866 11.416 8.48661C11.416 8.62455 11.4445 8.76101 11.4997 8.88745C11.5548 9.01388 11.6355 9.12757 11.7366 9.2214C11.8377 9.31523 11.9571 9.38718 12.0873 9.43274C12.2175 9.47831 12.3557 9.49651 12.4933 9.48621H19.7733ZM43.8197 40.1126H36.7357C36.4377 40.1125 36.1427 40.1719 35.868 40.2873C35.5933 40.4027 35.3443 40.5717 35.1357 40.7844C34.9271 40.9972 34.7631 41.2495 34.6532 41.5264C34.5433 41.8034 34.4897 42.0995 34.4957 42.3974V45.5446C34.4957 46.1387 34.7317 46.7084 35.1518 47.1285C35.5719 47.5486 36.1416 47.7846 36.7357 47.7846H43.8197C44.4111 47.7759 44.9758 47.5371 45.394 47.1189C45.8122 46.7007 46.051 46.136 46.0597 45.5446V42.3974C46.0598 41.7991 45.8253 41.2247 45.4064 40.7974C44.9876 40.3702 44.4179 40.1243 43.8197 40.1126ZM44.0493 45.5446C44.0441 45.6032 44.018 45.658 43.9759 45.6991C43.9338 45.7402 43.8784 45.7648 43.8197 45.7686H36.7357C36.7056 45.7712 36.6754 45.7671 36.647 45.7568C36.6187 45.7464 36.593 45.73 36.5716 45.7087C36.5503 45.6873 36.5339 45.6616 36.5235 45.6333C36.5132 45.6049 36.5091 45.5747 36.5117 45.5446V42.3974C36.5117 42.2854 36.5677 42.1118 36.7357 42.1118H43.8197C43.8876 42.1202 43.9495 42.1548 43.9924 42.2081C44.0352 42.2614 44.0556 42.3293 44.0493 42.3974V45.5446ZM50.2093 21.431H49.5317V13.199C49.5255 12.6787 49.4147 12.1649 49.2059 11.6883C48.9971 11.2117 48.6945 10.7819 48.3163 10.4245C47.938 10.0672 47.4918 9.78956 47.0041 9.60816C46.5164 9.42676 45.9971 9.34529 45.4773 9.36861H43.0189V3.8302C43.0235 3.56608 42.9249 3.31057 42.7439 3.11811C42.563 2.92565 42.314 2.81144 42.0501 2.7998H7.4981C7.22482 2.7998 6.96273 2.90836 6.76949 3.1016C6.57626 3.29484 6.4677 3.55693 6.4677 3.8302V25.3118C6.47931 25.5762 6.59333 25.8258 6.78564 26.0076C6.97794 26.1895 7.23344 26.2894 7.4981 26.2862C7.75331 26.2777 7.99567 26.1722 8.17572 25.9911C8.35576 25.81 8.4599 25.5671 8.4669 25.3118V4.799H41.0197V9.36861H25.6589C25.3858 9.37857 25.1238 9.47904 24.9141 9.65421L15.2093 19.2022C15.022 19.4023 14.9196 19.6673 14.9237 19.9414V27.2214C14.3424 27.5618 13.7815 27.9358 13.2437 28.3414H5.8405C5.41443 28.3308 4.99103 28.4115 4.59877 28.5782C4.20651 28.7449 3.8545 28.9936 3.56641 29.3077C3.27832 29.6218 3.06083 29.9939 2.92858 30.3991C2.79633 30.8043 2.75239 31.233 2.7997 31.6566L4.9277 50.5734C5.02581 51.3042 5.38707 51.9741 5.94376 52.4576C6.50046 52.9411 7.21437 53.205 7.9517 53.1998H47.3589C48.0813 53.1934 48.7764 52.9227 49.3129 52.4388C49.8494 51.9549 50.1902 51.2914 50.2709 50.5734L53.1997 24.6846C53.2311 24.2728 53.1778 23.859 53.0431 23.4686C52.9085 23.0782 52.6952 22.7195 52.4166 22.4146C52.138 22.1098 51.7999 21.8652 51.4232 21.6961C51.0464 21.5269 50.639 21.4367 50.2261 21.431H50.2093ZM24.4045 12.9694V17.259C24.4082 17.5105 24.3623 17.7603 24.2695 17.9941C24.1766 18.2279 24.0387 18.4411 23.8634 18.6215C23.6882 18.802 23.4791 18.9461 23.2481 19.0458C23.0171 19.1454 22.7688 19.1986 22.5173 19.2022H18.0373L24.4045 12.9694ZM29.0301 42.0894C26.8573 40.4934 25.6029 40.2638 23.2621 41.8654C21.2013 43.2318 20.5181 43.2318 18.4069 41.8654C16.1221 40.2638 14.6381 40.4934 12.4653 42.263C11.556 40.7617 11.0631 39.0452 11.0373 37.2902C11.0305 35.8056 11.3662 34.3394 12.0182 33.0057C12.6703 31.6719 13.6211 30.5065 14.7969 29.6C15.9727 28.6935 17.3417 28.0704 18.7974 27.7792C20.2532 27.4879 21.7565 27.5363 23.1906 27.9205C24.6246 28.3048 25.9507 29.0147 27.0657 29.9948C28.1808 30.975 29.0547 32.1992 29.6197 33.5721C30.1846 34.9451 30.4253 36.4298 30.3231 37.9109C30.2208 39.392 29.7784 40.8295 29.0301 42.1118V42.0894ZM27.8261 43.7694C26.928 44.7664 25.8326 45.5659 24.6093 46.1173C23.386 46.6687 22.0615 46.9599 20.7197 46.9726C19.3942 46.974 18.0827 46.7005 16.8683 46.1694C15.6538 45.6383 14.5626 44.8612 13.6637 43.887C15.2093 42.627 15.7189 42.459 17.3205 43.5454C20.0589 45.371 21.6605 45.371 24.4045 43.5454C25.9445 42.515 26.3421 42.571 27.8261 43.7694ZM48.2717 50.3438C48.2444 50.5711 48.138 50.7815 47.9711 50.9382C47.8042 51.0949 47.5875 51.1878 47.3589 51.2006H7.9517C7.70784 51.1995 7.47203 51.1132 7.28495 50.9568C7.09786 50.8004 6.97123 50.5836 6.9269 50.3438L4.8157 31.427C4.79909 31.2856 4.81367 31.1423 4.8584 31.0071C4.90314 30.872 4.97695 30.7483 5.07464 30.6447C5.17233 30.5412 5.29152 30.4603 5.42384 30.4077C5.55615 30.3552 5.69838 30.3323 5.8405 30.3406H11.3789C9.84994 32.3423 9.02683 34.7938 9.0381 37.3126C9.03705 39.7827 9.82052 42.1893 11.2755 44.1854C12.7306 46.1815 14.782 47.6639 17.1339 48.4189C19.4858 49.1738 22.0167 49.1623 24.3617 48.386C26.7066 47.6096 28.7444 46.1086 30.1812 44.0994C31.618 42.0901 32.3795 39.6764 32.356 37.2064C32.3324 34.7364 31.525 32.3377 30.0502 30.3562C28.5754 28.3747 26.5093 26.9128 24.15 26.1813C21.7907 25.4498 19.26 25.4866 16.9229 26.2862V21.2014H22.5229C23.5557 21.1911 24.5428 20.7735 25.2694 20.0395C25.9961 19.3055 26.4037 18.3143 26.4037 17.2814V11.3734H45.4773C45.7326 11.356 45.9889 11.3896 46.231 11.4723C46.4732 11.555 46.6965 11.6851 46.8879 11.8551C47.0792 12.025 47.2347 12.2314 47.3454 12.4622C47.4561 12.6929 47.5197 12.9434 47.5325 13.199V21.431H33.1405C31.2533 21.431 28.8565 22.2262 28.1005 26.0006C28.0416 26.2582 28.0869 26.5286 28.2263 26.753C28.3658 26.9775 28.5883 27.1377 28.8453 27.199C29.1104 27.2517 29.3856 27.197 29.6103 27.0468C29.8351 26.8966 29.991 26.6633 30.0437 26.3982C30.5589 23.7718 31.9869 23.4302 33.1293 23.4302H50.2149C50.3518 23.4327 50.4867 23.4634 50.6112 23.5204C50.7357 23.5773 50.8472 23.6594 50.9386 23.7613C51.03 23.8632 51.0995 23.9829 51.1426 24.1128C51.1857 24.2428 51.2016 24.3802 51.1893 24.5166L48.2717 50.3438ZM31.8245 17.3598H42.8509C43.1052 17.3514 43.3467 17.2467 43.5266 17.0668C43.7065 16.8869 43.8113 16.6453 43.8197 16.391C43.8229 16.1273 43.7238 15.8726 43.5431 15.6804C43.3624 15.4883 43.1143 15.3736 42.8509 15.3606H31.8245C31.6885 15.3606 31.5538 15.3876 31.4284 15.4402C31.303 15.4927 31.1892 15.5697 31.0938 15.6667C30.9985 15.7636 30.9233 15.8786 30.8728 16.0049C30.8223 16.1312 30.7975 16.2662 30.7997 16.4022C30.8141 16.6632 30.9288 16.9084 31.1197 17.0869C31.3107 17.2653 31.5632 17.3631 31.8245 17.3598ZM20.7477 38.0798C20.056 38.0816 19.3822 37.8603 18.8263 37.4487C18.2704 37.0371 17.8621 36.4571 17.6621 35.795C18.4977 35.9099 19.3489 35.8132 20.1374 35.5138C20.926 35.2144 21.6268 34.7219 22.1757 34.0814C22.3502 33.8765 22.4362 33.6106 22.4146 33.3422C22.3931 33.0739 22.2659 32.8251 22.0609 32.6506C21.8559 32.4761 21.59 32.3902 21.3217 32.4117C21.0534 32.4332 20.8046 32.5604 20.6301 32.7654C20.2746 33.1734 19.8197 33.4827 19.3095 33.6632C18.7993 33.8437 18.2511 33.8894 17.7181 33.7958C17.9272 33.159 18.3335 32.6053 18.8781 32.2147C19.4227 31.8241 20.0775 31.6169 20.7477 31.623C21.6018 31.6348 22.4167 31.9832 23.0155 32.5924C23.6142 33.2016 23.9483 34.0224 23.9453 34.8766C23.9468 35.2972 23.8651 35.7139 23.705 36.1029C23.5449 36.4918 23.3095 36.8453 23.0124 37.1429C22.7152 37.4406 22.3622 37.6766 21.9735 37.8374C21.5849 37.9982 21.1683 38.0805 20.7477 38.0798Z" fill="white"/>
<path d="M20.7477 29.6014C19.7128 29.5948 18.6991 29.8953 17.8351 30.465C16.971 31.0347 16.2954 31.8479 15.8938 32.8017C15.4921 33.7555 15.3824 34.8071 15.5786 35.8232C15.7748 36.8394 16.268 37.7746 16.9959 38.5103C17.7238 39.246 18.6536 39.7493 19.6676 39.9563C20.6816 40.1634 21.7343 40.065 22.6924 39.6736C23.6504 39.2821 24.4708 38.6153 25.0497 37.7574C25.6287 36.8995 25.94 35.8891 25.9445 34.8542C25.9475 33.4698 25.4027 32.1405 24.4291 31.1564C23.4555 30.1722 22.132 29.6132 20.7477 29.6014ZM19.7733 9.48621C20.0255 9.46732 20.2612 9.3538 20.4332 9.16842C20.6052 8.98304 20.7008 8.7395 20.7008 8.48661C20.7008 8.23371 20.6052 7.99017 20.4332 7.80479C20.2612 7.61941 20.0255 7.50589 19.7733 7.48701H12.4933C12.3557 7.4767 12.2175 7.4949 12.0873 7.54047C11.9571 7.58603 11.8377 7.65798 11.7366 7.75181C11.6355 7.84564 11.5548 7.95933 11.4997 8.08576C11.4445 8.2122 11.416 8.34866 11.416 8.48661C11.416 8.62455 11.4445 8.76101 11.4997 8.88745C11.5548 9.01388 11.6355 9.12757 11.7366 9.2214C11.8377 9.31523 11.9571 9.38718 12.0873 9.43274C12.2175 9.47831 12.3557 9.49651 12.4933 9.48621H19.7733ZM43.8197 40.1126H36.7357C36.4377 40.1125 36.1427 40.1719 35.868 40.2873C35.5933 40.4027 35.3443 40.5717 35.1357 40.7844C34.9271 40.9972 34.7631 41.2495 34.6532 41.5264C34.5433 41.8034 34.4897 42.0995 34.4957 42.3974V45.5446C34.4957 46.1387 34.7317 46.7084 35.1518 47.1285C35.5719 47.5486 36.1416 47.7846 36.7357 47.7846H43.8197C44.4111 47.7759 44.9758 47.5371 45.394 47.1189C45.8122 46.7007 46.051 46.136 46.0597 45.5446V42.3974C46.0598 41.7991 45.8253 41.2247 45.4064 40.7974C44.9876 40.3702 44.4179 40.1243 43.8197 40.1126ZM44.0493 45.5446C44.0441 45.6032 44.018 45.658 43.9759 45.6991C43.9338 45.7402 43.8784 45.7648 43.8197 45.7686H36.7357C36.7056 45.7712 36.6754 45.7671 36.647 45.7568C36.6187 45.7464 36.593 45.73 36.5716 45.7087C36.5503 45.6873 36.5339 45.6616 36.5235 45.6333C36.5132 45.6049 36.5091 45.5747 36.5117 45.5446V42.3974C36.5117 42.2854 36.5677 42.1118 36.7357 42.1118H43.8197C43.8876 42.1202 43.9495 42.1548 43.9924 42.2081C44.0352 42.2614 44.0556 42.3293 44.0493 42.3974V45.5446ZM50.2093 21.431H49.5317V13.199C49.5255 12.6787 49.4147 12.1649 49.2059 11.6883C48.9971 11.2117 48.6945 10.7819 48.3163 10.4245C47.938 10.0672 47.4918 9.78956 47.0041 9.60816C46.5164 9.42676 45.9971 9.34529 45.4773 9.36861H43.0189V3.8302C43.0235 3.56608 42.9249 3.31057 42.7439 3.11811C42.563 2.92565 42.314 2.81144 42.0501 2.7998H7.4981C7.22482 2.7998 6.96273 2.90836 6.76949 3.1016C6.57626 3.29484 6.4677 3.55693 6.4677 3.8302V25.3118C6.47931 25.5762 6.59333 25.8258 6.78564 26.0076C6.97794 26.1895 7.23344 26.2894 7.4981 26.2862C7.75331 26.2777 7.99567 26.1722 8.17572 25.9911C8.35576 25.81 8.4599 25.5671 8.4669 25.3118V4.799H41.0197V9.36861H25.6589C25.3858 9.37857 25.1238 9.47904 24.9141 9.65421L15.2093 19.2022C15.022 19.4023 14.9196 19.6673 14.9237 19.9414V27.2214C14.3424 27.5618 13.7815 27.9358 13.2437 28.3414H5.8405C5.41443 28.3308 4.99103 28.4115 4.59877 28.5782C4.20651 28.7449 3.8545 28.9936 3.56641 29.3077C3.27832 29.6218 3.06083 29.9939 2.92858 30.3991C2.79633 30.8043 2.75239 31.233 2.7997 31.6566L4.9277 50.5734C5.02581 51.3042 5.38707 51.9741 5.94376 52.4576C6.50046 52.9411 7.21437 53.205 7.9517 53.1998H47.3589C48.0813 53.1934 48.7764 52.9227 49.3129 52.4388C49.8494 51.9549 50.1902 51.2914 50.2709 50.5734L53.1997 24.6846C53.2311 24.2728 53.1778 23.859 53.0431 23.4686C52.9085 23.0782 52.6952 22.7195 52.4166 22.4146C52.138 22.1098 51.7999 21.8652 51.4232 21.6961C51.0464 21.5269 50.639 21.4367 50.2261 21.431H50.2093ZM24.4045 12.9694V17.259C24.4082 17.5105 24.3623 17.7603 24.2695 17.9941C24.1766 18.2279 24.0387 18.4411 23.8634 18.6215C23.6882 18.802 23.4791 18.9461 23.2481 19.0458C23.0171 19.1454 22.7688 19.1986 22.5173 19.2022H18.0373L24.4045 12.9694ZM29.0301 42.0894C26.8573 40.4934 25.6029 40.2638 23.2621 41.8654C21.2013 43.2318 20.5181 43.2318 18.4069 41.8654C16.1221 40.2638 14.6381 40.4934 12.4653 42.263C11.556 40.7617 11.0631 39.0452 11.0373 37.2902C11.0305 35.8056 11.3662 34.3394 12.0182 33.0057C12.6703 31.6719 13.6211 30.5065 14.7969 29.6C15.9727 28.6935 17.3417 28.0704 18.7974 27.7792C20.2532 27.4879 21.7565 27.5363 23.1906 27.9205C24.6246 28.3048 25.9507 29.0147 27.0657 29.9948C28.1808 30.975 29.0547 32.1992 29.6197 33.5721C30.1846 34.9451 30.4253 36.4298 30.3231 37.9109C30.2208 39.392 29.7784 40.8295 29.0301 42.1118V42.0894ZM27.8261 43.7694C26.928 44.7664 25.8326 45.5659 24.6093 46.1173C23.386 46.6687 22.0615 46.9599 20.7197 46.9726C19.3942 46.974 18.0827 46.7005 16.8683 46.1694C15.6538 45.6383 14.5626 44.8612 13.6637 43.887C15.2093 42.627 15.7189 42.459 17.3205 43.5454C20.0589 45.371 21.6605 45.371 24.4045 43.5454C25.9445 42.515 26.3421 42.571 27.8261 43.7694ZM48.2717 50.3438C48.2444 50.5711 48.138 50.7815 47.9711 50.9382C47.8042 51.0949 47.5875 51.1878 47.3589 51.2006H7.9517C7.70784 51.1995 7.47203 51.1132 7.28495 50.9568C7.09786 50.8004 6.97123 50.5836 6.9269 50.3438L4.8157 31.427C4.79909 31.2856 4.81367 31.1423 4.8584 31.0071C4.90314 30.872 4.97695 30.7483 5.07464 30.6447C5.17233 30.5412 5.29152 30.4603 5.42384 30.4077C5.55615 30.3552 5.69838 30.3323 5.8405 30.3406H11.3789C9.84994 32.3423 9.02683 34.7938 9.0381 37.3126C9.03705 39.7827 9.82052 42.1893 11.2755 44.1854C12.7306 46.1815 14.782 47.6639 17.1339 48.4189C19.4858 49.1738 22.0167 49.1623 24.3617 48.386C26.7066 47.6096 28.7444 46.1086 30.1812 44.0994C31.618 42.0901 32.3795 39.6764 32.356 37.2064C32.3324 34.7364 31.525 32.3377 30.0502 30.3562C28.5754 28.3747 26.5093 26.9128 24.15 26.1813C21.7907 25.4498 19.26 25.4866 16.9229 26.2862V21.2014H22.5229C23.5557 21.1911 24.5428 20.7735 25.2694 20.0395C25.9961 19.3055 26.4037 18.3143 26.4037 17.2814V11.3734H45.4773C45.7326 11.356 45.9889 11.3896 46.231 11.4723C46.4732 11.555 46.6965 11.6851 46.8879 11.8551C47.0792 12.025 47.2347 12.2314 47.3454 12.4622C47.4561 12.6929 47.5197 12.9434 47.5325 13.199V21.431H33.1405C31.2533 21.431 28.8565 22.2262 28.1005 26.0006C28.0416 26.2582 28.0869 26.5286 28.2263 26.753C28.3658 26.9775 28.5883 27.1377 28.8453 27.199C29.1104 27.2517 29.3856 27.197 29.6103 27.0468C29.8351 26.8966 29.991 26.6633 30.0437 26.3982C30.5589 23.7718 31.9869 23.4302 33.1293 23.4302H50.2149C50.3518 23.4327 50.4867 23.4634 50.6112 23.5204C50.7357 23.5773 50.8472 23.6594 50.9386 23.7613C51.03 23.8632 51.0995 23.9829 51.1426 24.1128C51.1857 24.2428 51.2016 24.3802 51.1893 24.5166L48.2717 50.3438ZM31.8245 17.3598H42.8509C43.1052 17.3514 43.3467 17.2467 43.5266 17.0668C43.7065 16.8869 43.8113 16.6453 43.8197 16.391C43.8229 16.1273 43.7238 15.8726 43.5431 15.6804C43.3624 15.4883 43.1143 15.3736 42.8509 15.3606H31.8245C31.6885 15.3606 31.5538 15.3876 31.4284 15.4402C31.303 15.4927 31.1892 15.5697 31.0938 15.6667C30.9985 15.7636 30.9233 15.8786 30.8728 16.0049C30.8223 16.1312 30.7975 16.2662 30.7997 16.4022C30.8141 16.6632 30.9288 16.9084 31.1197 17.0869C31.3107 17.2653 31.5632 17.3631 31.8245 17.3598ZM20.7477 38.0798C20.056 38.0816 19.3822 37.8603 18.8263 37.4487C18.2704 37.0371 17.8621 36.4571 17.6621 35.795C18.4977 35.9099 19.3489 35.8132 20.1374 35.5138C20.926 35.2144 21.6268 34.7219 22.1757 34.0814C22.3502 33.8765 22.4362 33.6106 22.4146 33.3422C22.3931 33.0739 22.2659 32.8251 22.0609 32.6506C21.8559 32.4761 21.59 32.3902 21.3217 32.4117C21.0534 32.4332 20.8046 32.5604 20.6301 32.7654C20.2746 33.1734 19.8197 33.4827 19.3095 33.6632C18.7993 33.8437 18.2511 33.8894 17.7181 33.7958C17.9272 33.159 18.3335 32.6053 18.8781 32.2147C19.4227 31.8241 20.0775 31.6169 20.7477 31.623C21.6018 31.6348 22.4167 31.9832 23.0155 32.5924C23.6142 33.2016 23.9483 34.0224 23.9453 34.8766C23.9468 35.2972 23.8651 35.7139 23.705 36.1029C23.5449 36.4918 23.3095 36.8453 23.0124 37.1429C22.7152 37.4406 22.3622 37.6766 21.9735 37.8374C21.5849 37.9982 21.1683 38.0805 20.7477 38.0798Z" fill="url(#paint0_linear_2624_380)"/>
<defs>
<linearGradient id="paint0_linear_2624_380" x1="108" y1="27.9999" x2="-47" y2="27.9999" gradientUnits="userSpaceOnUse">
<stop stop-color="#1F8D92"/>
<stop offset="1" stop-color="#51B0B1"/>
</linearGradient>
</defs>
</svg>
