<svg width="56" height="56" viewBox="0 0 56 56" fill="none" xmlns="http://www.w3.org/2000/svg">
<path d="M51.431 17.0464L48.4014 16.3016C48.2278 16.2456 48.1718 16.184 48.1718 16.128C47.9982 15.6128 47.7126 15.0416 47.5446 14.644C47.4886 14.5264 47.427 14.4144 47.4886 14.2968L49.2022 11.5528C49.4546 11.0966 49.5517 10.5708 49.479 10.0546C49.4062 9.53835 49.1676 9.05981 48.799 8.69116L47.259 7.14556C46.8952 6.78504 46.4189 6.56005 45.9094 6.50808C45.3999 6.45611 44.888 6.5803 44.459 6.85996L41.771 8.46156C41.6595 8.49438 41.5409 8.49438 41.4294 8.46156C40.9702 8.23196 40.455 8.06396 39.8838 7.83436C39.8278 7.83436 39.7718 7.77836 39.7718 7.60476L38.971 4.57516C38.8402 4.07661 38.5511 3.634 38.1471 3.31387C37.7432 2.99375 37.2462 2.8134 36.731 2.79996H34.5694C34.0439 2.79397 33.532 2.96622 33.117 3.28862C32.7021 3.61102 32.4086 4.06453 32.2846 4.57516L31.5454 7.60476C31.4838 7.77836 31.4278 7.83436 31.2598 7.83436C30.8006 8.06396 30.2854 8.23196 29.8318 8.46156C29.7142 8.52316 29.6582 8.52316 29.4846 8.46156L26.8022 6.85996C26.3614 6.58566 25.8422 6.46494 25.3256 6.5166C24.809 6.56826 24.324 6.78941 23.9462 7.14556L22.4006 8.69116C22.026 9.07122 21.7933 9.56834 21.7413 10.0994C21.6893 10.6305 21.8212 11.1633 22.115 11.6088C22.2512 11.8364 22.4721 12.0008 22.7292 12.0658C22.9864 12.1309 23.2589 12.0914 23.487 11.956C23.7107 11.8148 23.8712 11.5926 23.9349 11.3359C23.9985 11.0791 23.9605 10.8077 23.8286 10.5784C23.655 10.2928 23.7726 10.1808 23.8286 10.1248L25.3126 8.63516C25.3733 8.57832 25.4505 8.54226 25.533 8.5322C25.6156 8.52213 25.6992 8.53858 25.7718 8.57916L28.5158 10.1808C28.8384 10.3874 29.2114 10.5019 29.5944 10.5117C29.9774 10.5216 30.3558 10.4265 30.6886 10.2368C31.1422 10.0632 31.5454 9.89516 31.887 9.77756C32.2767 9.66045 32.6293 9.444 32.9101 9.14947C33.1909 8.85493 33.3902 8.49243 33.4886 8.09756L34.1606 5.09036C34.1894 5.00761 34.2431 4.93578 34.3142 4.88467C34.3854 4.83355 34.4706 4.80565 34.5582 4.80476H36.731C36.7938 4.81437 36.8531 4.84004 36.9032 4.87928C36.9532 4.91852 36.9923 4.97001 37.0166 5.02876L37.8174 8.11996C37.8794 8.50344 38.0534 8.86005 38.3174 9.14499C38.5814 9.42994 38.9237 9.63053 39.3014 9.72156L40.5054 10.2368C40.8589 10.4245 41.2549 10.518 41.6551 10.5082C42.0553 10.4984 42.4463 10.3856 42.7902 10.1808L45.4726 8.50076C45.5303 8.47891 45.5927 8.47258 45.6537 8.48241C45.7146 8.49224 45.7719 8.51787 45.8198 8.55676L47.3598 10.1024C47.4315 10.1505 47.4831 10.2232 47.5048 10.3068C47.5264 10.3904 47.5167 10.4791 47.4774 10.556L45.7582 13.244C45.5788 13.5884 45.4804 13.9692 45.4707 14.3575C45.461 14.7457 45.5402 15.131 45.7022 15.484C45.9108 15.8879 46.0832 16.3096 46.2174 16.744C46.3647 17.1037 46.5928 17.4247 46.8842 17.6821C47.1755 17.9394 47.5222 18.1262 47.8974 18.228L50.927 18.9728C51.0097 18.9813 51.0858 19.0217 51.1392 19.0855C51.1925 19.1493 51.2189 19.2314 51.2126 19.3144V21.4928C51.2126 21.7168 51.039 21.7168 50.927 21.7784L47.8974 22.5792C47.4978 22.6672 47.1299 22.863 46.8338 23.1454C46.5376 23.4277 46.3244 23.7858 46.2174 24.1808C46.1054 24.5224 45.8758 24.92 45.7022 25.3792C45.5355 25.7215 45.4589 26.1006 45.4794 26.4808C45.5 26.861 45.6171 27.2296 45.8198 27.552L47.4158 30.184C47.5894 30.4696 47.4158 30.5872 47.3598 30.6432L45.8198 32.1888C45.7582 32.3008 45.5902 32.3008 45.4726 32.2448C45.2498 32.1014 44.9792 32.0525 44.7203 32.1087C44.4615 32.1649 44.2355 32.3216 44.0922 32.5444C43.9489 32.7671 43.8999 33.0377 43.9561 33.2966C44.0123 33.5555 44.169 33.7814 44.3918 33.9248C44.75 34.2016 45.1938 34.3442 45.6462 34.328C45.9456 34.326 46.2417 34.2641 46.5167 34.1458C46.7918 34.0275 47.0404 33.8552 47.2478 33.6392L48.7878 32.0936C49.1567 31.7263 49.3957 31.2487 49.4685 30.7332C49.5412 30.2177 49.4438 29.6926 49.191 29.2376L47.511 26.544C47.4769 26.5057 47.4537 26.4591 47.4439 26.4088C47.434 26.3586 47.4379 26.3066 47.455 26.2584C47.699 25.7792 47.9086 25.2833 48.0822 24.7744C48.1382 24.6568 48.1942 24.5448 48.3678 24.5448L51.3358 23.744C51.8566 23.6474 52.3263 23.3693 52.6615 22.9593C52.9968 22.5492 53.1759 22.0336 53.167 21.504V19.3312C53.1743 18.8062 53.0032 18.2943 52.6817 17.8793C52.3603 17.4642 51.9075 17.1706 51.3974 17.0464H51.431ZM38.2878 45.7072C34.5322 49.3055 29.51 51.2793 24.3093 51.2008C19.1087 51.1223 14.1484 48.9978 10.5031 45.2877C6.85781 41.5776 4.82112 36.5806 4.83428 31.3794C4.84743 26.1782 6.90938 21.1916 10.5734 17.5C10.668 17.4067 10.7432 17.2955 10.7945 17.173C10.8458 17.0504 10.8722 16.9188 10.8722 16.786C10.8722 16.6531 10.8458 16.5215 10.7945 16.3989C10.7432 16.2764 10.668 16.1652 10.5734 16.072C10.3726 15.9058 10.1201 15.8149 9.85938 15.8149C9.59872 15.8149 9.34621 15.9058 9.14538 16.072C6.10961 19.1199 4.04505 22.9991 3.21241 27.2197C2.37977 31.4402 2.81639 35.8128 4.46713 39.7854C6.11787 43.7579 8.90871 47.1523 12.4872 49.5398C16.0658 51.9274 20.2715 53.201 24.5734 53.2C30.2003 53.2212 35.6133 51.0452 39.6598 47.1352C39.8353 46.9502 39.9328 46.7048 39.9321 46.4498C39.9313 46.1948 39.8323 45.9499 39.6556 45.7661C39.479 45.5822 39.2382 45.4735 38.9835 45.4625C38.7288 45.4515 38.4796 45.5392 38.2878 45.7072ZM24.5734 13.8992C21.0936 13.8892 17.689 14.9116 14.7904 16.8371C11.8917 18.7625 9.6294 21.5045 8.28953 24.7161C6.94967 27.9276 6.59251 31.4644 7.26324 34.879C7.93397 38.2936 9.60245 41.4325 12.0576 43.8986C14.5127 46.3647 17.6442 48.0472 21.0557 48.7332C24.4673 49.4191 28.0057 49.0777 31.2232 47.7522C34.4407 46.4267 37.1927 44.1766 39.1311 41.2866C41.0694 38.3966 42.107 34.9966 42.1126 31.5168C42.1126 26.8578 40.2673 22.3886 36.9803 19.0869C33.6933 15.7852 29.2323 13.9199 24.5734 13.8992ZM38.915 32.48H40.035C39.8288 35.9103 38.4804 39.173 36.2046 41.748L35.4094 40.9472C35.2081 40.7795 34.9545 40.6877 34.6926 40.6877C34.4307 40.6877 34.177 40.7795 33.9758 40.9472C33.8811 41.0404 33.806 41.1516 33.7547 41.2741C33.7034 41.3967 33.677 41.5283 33.677 41.6612C33.677 41.794 33.7034 41.9256 33.7547 42.0482C33.806 42.1707 33.8811 42.2819 33.9758 42.3752L34.7766 43.176C32.2181 45.4619 28.9662 46.8226 25.5422 47.04V45.92C25.5468 45.6564 25.4479 45.4015 25.2668 45.2099C25.0857 45.0184 24.8368 44.9054 24.5734 44.8952C24.3044 44.8875 24.0432 44.9861 23.8462 45.1694C23.6492 45.3528 23.5322 45.6063 23.5206 45.8752V46.9952C20.0922 46.7905 16.832 45.4395 14.2638 43.1592L15.0646 42.3584C15.1592 42.2651 15.2344 42.1539 15.2857 42.0314C15.337 41.9088 15.3634 41.7772 15.3634 41.6444C15.3634 41.5115 15.337 41.3799 15.2857 41.2574C15.2344 41.1348 15.1592 41.0236 15.0646 40.9304C14.8638 40.7642 14.6113 40.6733 14.3506 40.6733C14.0899 40.6733 13.8374 40.7642 13.6366 40.9304L12.8806 41.7592C10.6165 39.1704 9.26317 35.911 9.02778 32.48H10.1478C10.4035 32.4716 10.6465 32.3662 10.8275 32.1853C11.0084 32.0043 11.1138 31.7613 11.1222 31.5056C11.1253 31.2409 11.0254 30.9854 10.8436 30.7931C10.6617 30.6008 10.4122 30.4868 10.1478 30.4752H9.02778C9.26796 27.0519 10.621 23.8011 12.8806 21.2184L13.6814 22.0192C13.7751 22.1129 13.8865 22.1873 14.009 22.238C14.1315 22.2888 14.2628 22.3149 14.3954 22.3149C14.528 22.3149 14.6593 22.2888 14.7818 22.238C14.9043 22.1873 15.0156 22.1129 15.1094 22.0192C15.2031 21.9254 15.2775 21.8141 15.3283 21.6916C15.379 21.5691 15.4051 21.4378 15.4051 21.3052C15.4051 21.1726 15.379 21.0413 15.3283 20.9187C15.2775 20.7962 15.2031 20.6849 15.1094 20.5912L14.3086 19.7904C16.8803 17.5447 20.1148 16.1998 23.5206 15.96V17.08C23.5322 17.3444 23.6462 17.5939 23.8385 17.7758C24.0308 17.9576 24.2863 18.0575 24.551 18.0544C24.8062 18.0459 25.0486 17.9403 25.2286 17.7593C25.4086 17.5782 25.5128 17.3352 25.5198 17.08V15.96C28.9412 16.1902 32.1928 17.5357 34.7766 19.7904L33.9758 20.5912C33.805 20.7848 33.7146 21.0363 33.7229 21.2943C33.7313 21.5524 33.8378 21.7975 34.0207 21.9797C34.2036 22.1619 34.4491 22.2674 34.7072 22.2747C34.9653 22.2821 35.2164 22.1907 35.4094 22.0192L36.2046 21.2184C38.4804 23.7933 39.8288 27.056 40.035 30.4864H38.915C38.6417 30.4864 38.3796 30.5949 38.1864 30.7882C37.9931 30.9814 37.8846 31.2435 37.8846 31.5168C37.899 31.7792 38.0143 32.0259 38.2063 32.2054C38.3983 32.3849 38.6522 32.4832 38.915 32.48ZM33.203 30.4752H27.1438C26.9427 29.9511 26.5916 29.4979 26.1345 29.1723C25.6773 28.8466 25.1344 28.6628 24.5734 28.644C24.2004 28.6439 23.8312 28.7183 23.4874 28.8628C23.1437 29.0074 22.8322 29.2192 22.5714 29.4857C22.3106 29.7523 22.1056 30.0683 21.9686 30.4151C21.8315 30.762 21.7652 31.1327 21.7734 31.5056C21.7868 31.8782 21.8644 32.2458 22.003 32.592L19.371 35.224C19.1995 35.4169 19.1081 35.6681 19.1154 35.9261C19.1227 36.1842 19.2283 36.4297 19.4105 36.6126C19.5927 36.7956 19.8378 36.9021 20.0958 36.9104C20.3539 36.9187 20.6053 36.8283 20.799 36.6576L23.431 34.0256C23.7826 34.1845 24.1652 34.2629 24.551 34.2552C25.1112 34.2526 25.6577 34.082 26.1199 33.7656C26.5821 33.4491 26.9388 33.0013 27.1438 32.48H33.203C33.4544 32.4689 33.6924 32.3637 33.8698 32.1853C34.0472 32.0068 34.151 31.7682 34.1606 31.5168C34.1638 31.253 34.0647 30.9983 33.884 30.8062C33.7033 30.614 33.4552 30.4994 33.1918 30.4864L33.203 30.4752ZM24.5734 32.2616C24.4717 32.2661 24.3701 32.2503 24.2746 32.2151C24.1791 32.18 24.0915 32.1262 24.017 32.0569C23.9425 31.9876 23.8825 31.9041 23.8405 31.8114C23.7985 31.7187 23.7755 31.6185 23.7726 31.5168C23.7635 31.4101 23.7766 31.3028 23.8112 31.2015C23.8458 31.1002 23.901 31.0072 23.9734 30.9283C24.0458 30.8495 24.1337 30.7866 24.2317 30.7435C24.3297 30.7005 24.4356 30.6782 24.5426 30.6782C24.6496 30.6782 24.7555 30.7005 24.8535 30.7435C24.9514 30.7866 25.0394 30.8495 25.1118 30.9283C25.1842 31.0072 25.2394 31.1002 25.274 31.2015C25.3085 31.3028 25.3217 31.4101 25.3126 31.5168C25.3097 31.7124 25.2311 31.8994 25.0933 32.0383C24.9554 32.1772 24.769 32.2572 24.5734 32.2616ZM32.5142 12.2416C32.2618 12.3399 32.0563 12.5307 31.9398 12.7753C31.8232 13.0198 31.8044 13.2996 31.887 13.5576C31.9323 13.684 32.0033 13.7996 32.0955 13.8973C32.1877 13.995 32.299 14.0725 32.4226 14.1251C32.5462 14.1777 32.6793 14.2042 32.8136 14.2029C32.9479 14.2016 33.0805 14.1725 33.203 14.1176C37.7726 12.4376 42.9134 16.8616 41.771 21.3976C41.6963 21.656 41.7268 21.9334 41.8558 22.1695C41.9848 22.4055 42.2019 22.5809 42.4598 22.6576C42.7234 22.7037 42.9948 22.654 43.2249 22.5174C43.455 22.3808 43.6286 22.1663 43.7142 21.9128C45.1982 15.7864 38.6406 10.08 32.5142 12.2416Z" fill="white"/>
</svg>
