<svg width="56" height="56" viewBox="0 0 56 56" fill="none" xmlns="http://www.w3.org/2000/svg">
<path d="M48.429 28.1174C48.3783 28.3817 48.4342 28.6553 48.5844 28.8786C48.7347 29.1019 48.9672 29.2566 49.2311 29.3091C49.4951 29.3616 49.7691 29.3076 49.9933 29.1588C50.2176 29.01 50.3739 28.7786 50.4282 28.515L53.1162 14.7278C53.2216 14.2158 53.2236 13.6879 53.122 13.1752C53.0203 12.6624 52.8172 12.1751 52.5245 11.7421C52.2317 11.309 51.8554 10.9388 51.4175 10.6533C50.9795 10.3679 50.489 10.1729 49.9746 10.0798L36.5962 7.44782L36.3106 5.95822C36.0812 4.91382 35.4475 4.0028 34.5481 3.42452C33.6487 2.84624 32.5568 2.6478 31.5114 2.87262L11.5586 6.77582C11.4309 6.79296 11.3085 6.83796 11.2001 6.90764C11.0917 6.97731 11 7.06996 10.9314 7.17902L3.10259 18.4798C2.97864 18.5996 2.88619 18.7482 2.83344 18.9123C2.78069 19.0764 2.76927 19.251 2.80019 19.4206L8.75859 49.627C8.97932 50.6807 9.60948 51.6035 10.5105 52.1927C11.4115 52.7818 12.5097 52.989 13.5634 52.7686L30.425 49.5094C30.5526 49.4829 30.6737 49.4316 30.7815 49.3583C30.8892 49.285 30.9815 49.1912 31.053 49.0823C31.1245 48.9734 31.1738 48.8514 31.1982 48.7234C31.2225 48.5954 31.2215 48.4638 31.195 48.3362C31.1685 48.2086 31.1172 48.0875 31.0439 47.9797C30.9706 47.872 30.8768 47.7797 30.7679 47.7082C30.6589 47.6367 30.537 47.5874 30.409 47.563C30.2809 47.5387 30.1494 47.5397 30.0218 47.5662L13.1602 50.8254C12.8972 50.8792 12.6261 50.8804 12.3627 50.8289C12.0992 50.7773 11.8486 50.6742 11.6252 50.5252C11.4019 50.3763 11.2102 50.1847 11.0613 49.9613C10.9125 49.7379 10.8093 49.4873 10.7578 49.2238L4.98419 19.9918L10.5338 18.9054C11.5846 18.6941 12.5096 18.077 13.1083 17.188C13.7069 16.299 13.9308 15.2097 13.7314 14.1566L12.645 8.60702L31.9202 4.83262C32.1796 4.77349 32.4482 4.76672 32.7102 4.81272C32.9723 4.85872 33.2225 4.95656 33.4462 5.10051C33.67 5.24446 33.8627 5.43161 34.0132 5.65102C34.1637 5.87042 34.2689 6.11765 34.3226 6.37822C35.8682 14.2182 37.4082 22.1086 38.9538 29.9486C36.6176 30.2914 34.3764 31.109 32.3682 32.351C30.1954 34.0646 29.053 36.0694 29.8538 38.9254C31.1936 43.573 33.6001 47.8434 36.8818 51.3966C37.4351 51.9665 38.0971 52.4195 38.8286 52.7288C39.5602 53.0382 40.3463 53.1976 41.1406 53.1976C41.9348 53.1976 42.721 53.0382 43.4526 52.7288C44.1841 52.4195 44.8461 51.9665 45.3994 51.3966C48.7365 47.8524 51.1685 43.5549 52.489 38.8694C52.8222 37.6511 52.7518 36.3575 52.2885 35.1825C51.8251 34.0074 50.9937 33.0141 49.9186 32.351C47.2452 30.6472 44.1282 29.7706 40.9586 29.831L40.3314 26.471L41.4514 26.7006C42.7674 26.9302 43.165 24.987 41.849 24.7574L39.8498 24.2982L38.937 19.3814L44.1394 20.3502C45.4498 20.5798 45.7354 18.6366 44.481 18.351L38.4834 17.2478L36.9994 9.58142L49.5714 12.0398C49.8222 12.0807 50.0622 12.1718 50.277 12.3077C50.4918 12.4436 50.6769 12.6215 50.8212 12.8307C50.9656 13.0399 51.0662 13.276 51.117 13.5251C51.1678 13.7741 51.1678 14.0308 51.117 14.2798L48.429 28.1174ZM12.9922 35.039C11.7322 35.2686 12.1298 37.279 13.3898 36.9822L26.477 34.3502C26.7347 34.2975 26.9609 34.1446 27.1058 33.9251C27.2507 33.7056 27.3025 33.4375 27.2498 33.1798C27.1971 32.9221 27.0441 32.696 26.8246 32.551C26.6052 32.4061 26.3371 32.3543 26.0794 32.407L12.9922 35.039ZM33.225 25.1998L11.8442 29.5454C10.5898 29.775 10.9874 31.7182 12.2474 31.4886L33.6002 27.143C33.734 27.1251 33.8627 27.0801 33.9785 27.0107C34.0943 26.9413 34.1946 26.8489 34.2735 26.7394C34.3523 26.6298 34.4079 26.5052 34.4369 26.3734C34.4659 26.2416 34.4676 26.1052 34.442 25.9727C34.4164 25.8401 34.364 25.7142 34.2881 25.6026C34.2121 25.4911 34.1141 25.3962 34.0001 25.3238C33.8862 25.2515 33.7587 25.2031 33.6254 25.1818C33.4921 25.1605 33.3558 25.1666 33.225 25.1998ZM32.105 19.6502L10.7578 23.9958C9.50339 24.2254 9.90099 26.1686 11.161 25.939L32.4802 21.5934C32.6078 21.5673 32.729 21.5163 32.8369 21.4434C32.9448 21.3704 33.0372 21.277 33.109 21.1683C33.1807 21.0596 33.2304 20.9378 33.2551 20.81C33.2798 20.6821 33.2791 20.5506 33.253 20.423C33.2269 20.2954 33.1759 20.1742 33.103 20.0663C33.03 19.9585 32.9365 19.866 32.8278 19.7942C32.7192 19.7225 32.5974 19.6728 32.4695 19.6481C32.3417 19.6234 32.2102 19.6241 32.0826 19.6502H32.105ZM38.7914 43.6182C38.9698 43.8014 39.1832 43.9471 39.4188 44.0465C39.6545 44.1459 39.9076 44.1972 40.1634 44.1972C40.4192 44.1972 40.6723 44.1459 40.908 44.0465C41.1436 43.9471 41.3569 43.8014 41.5354 43.6182L46.3122 38.6958C47.2306 37.783 45.8026 36.355 44.8842 37.2678L40.197 42.1902L37.957 39.9502C37.0442 39.0374 35.6162 40.4654 36.529 41.3838L38.7914 43.6182ZM10.1306 16.9622L6.07059 17.7014L10.9874 10.6398L11.7882 14.5598C11.8752 15.1001 11.7485 15.653 11.4349 16.1014C11.1213 16.5498 10.6455 16.8586 10.1082 16.9622H10.1306ZM48.8322 34.0086C49.5599 34.4398 50.1233 35.1009 50.4336 35.8878C50.7439 36.6747 50.7833 37.5424 50.5458 38.3542C49.3163 42.7129 47.0621 46.7144 43.9714 50.0246C43.2101 50.7553 42.1958 51.1633 41.1406 51.1633C40.0854 51.1633 39.0711 50.7553 38.3098 50.0246C35.2394 46.7094 33.0064 42.708 31.797 38.3542C31.5447 37.5549 31.5739 36.6933 31.8796 35.9128C32.1852 35.1323 32.749 34.4801 33.477 34.0646C35.7716 32.5995 38.4352 31.8164 41.1577 31.8065C43.8801 31.7966 46.5494 32.5603 48.8546 34.0086H48.8322Z" fill="white"/>
</svg>
