<svg width="176" height="176" viewBox="0 0 176 176" fill="none" xmlns="http://www.w3.org/2000/svg">
<g filter="url(#filter0_d_1508_323)">
<rect x="8" y="4" width="160" height="160" rx="80" fill="white" shape-rendering="crispEdges"/>
<rect x="9.5" y="5.5" width="157" height="157" rx="78.5" stroke="url(#paint0_linear_1508_323)" stroke-width="3" stroke-linejoin="round" stroke-dasharray="8 8" shape-rendering="crispEdges"/>
<path d="M107.127 67.2526C107.127 64.61 104.992 62.4751 102.349 62.4751H97.292V70.3501C97.292 71.3126 96.5044 72.1001 95.542 72.1001H94.7895C93.8095 72.1001 93.0395 71.3126 93.0395 70.3501C93.0395 69.7551 93.3369 69.2301 93.792 68.8976V62.4751H77.6045V70.3501C77.6045 71.3126 76.8169 72.1001 75.8545 72.1001H75.0845C74.122 72.1001 73.3345 71.3126 73.3345 70.3501C73.3345 69.7551 73.6319 69.2301 74.1045 68.8976V62.4751H69.0294C66.4044 62.4751 64.252 64.61 64.252 67.2526V75.1451H107.127V67.2526Z" fill="#08858F"/>
<path d="M91.6744 89.2675C90.642 88.3049 89.977 86.9575 89.977 85.435C89.977 82.53 92.3394 80.185 95.227 80.185H107.127V78.645H64.252V97.5974C64.252 100.24 66.4044 102.375 69.0294 102.375H91.6744V101.78C91.6744 99.6975 92.2695 97.755 93.2845 96.0925C92.2695 94.4299 91.6744 92.4875 91.6744 90.405V89.2675Z" fill="#08858F"/>
<path d="M77.6055 61.25C77.6055 60.2875 76.8179 59.5 75.8555 59.5C74.8755 59.5 74.1055 60.2875 74.1055 61.25V62.475H77.6055V61.25Z" fill="#08858F"/>
<path d="M97.293 61.25C97.293 60.2875 96.5054 59.5 95.543 59.5C94.563 59.5 93.793 60.2875 93.793 61.25V62.475H97.293V61.25Z" fill="#08858F"/>
<path d="M110.05 105.01V101.78C110.05 99.4872 109.018 97.4397 107.408 96.0922C109.018 94.7273 110.05 92.6797 110.05 90.4047V87.1663C110.992 87.1372 111.749 86.3748 111.749 85.4268C111.749 84.4603 110.966 83.6768 109.999 83.6768H95.2363C94.269 83.6768 93.4863 84.4603 93.4863 85.4268C93.4863 86.3716 94.2381 87.1305 95.1754 87.1645V90.4047C95.1754 92.6797 96.208 94.7273 97.8355 96.0922C96.208 97.4397 95.1754 99.4872 95.1754 101.78V105.012C94.2381 105.046 93.4863 105.805 93.4863 106.75C93.4863 107.716 94.269 108.5 95.2363 108.5H109.999C110.966 108.5 111.749 107.716 111.749 106.75C111.749 105.802 110.992 105.039 110.05 105.01Z" fill="#08858F"/>
</g>
<defs>
<filter id="filter0_d_1508_323" x="0" y="0" width="176" height="176" filterUnits="userSpaceOnUse" color-interpolation-filters="sRGB">
<feFlood flood-opacity="0" result="BackgroundImageFix"/>
<feColorMatrix in="SourceAlpha" type="matrix" values="0 0 0 0 0 0 0 0 0 0 0 0 0 0 0 0 0 0 127 0" result="hardAlpha"/>
<feOffset dy="4"/>
<feGaussianBlur stdDeviation="4"/>
<feComposite in2="hardAlpha" operator="out"/>
<feColorMatrix type="matrix" values="0 0 0 0 0 0 0 0 0 0 0 0 0 0 0 0 0 0 0.05 0"/>
<feBlend mode="normal" in2="BackgroundImageFix" result="effect1_dropShadow_1508_323"/>
<feBlend mode="normal" in="SourceGraphic" in2="effect1_dropShadow_1508_323" result="shape"/>
</filter>
<linearGradient id="paint0_linear_1508_323" x1="168" y1="84" x2="8" y2="84" gradientUnits="userSpaceOnUse">
<stop stop-color="#1F8D92"/>
<stop offset="1" stop-color="#51B0B1"/>
</linearGradient>
</defs>
</svg>
