<svg width="177" height="176" viewBox="0 0 177 176" fill="none" xmlns="http://www.w3.org/2000/svg">
<g filter="url(#filter0_d_1508_317)">
<rect x="8.5" y="4" width="160" height="160" rx="80" fill="url(#paint0_linear_1508_317)" shape-rendering="crispEdges"/>
<path d="M108 81.8999C108 84.6581 87.4463 66.2836 86.5 68.7067C85.5026 71.2606 81.4966 70.1565 79.6591 72.1272C77.8361 74.0822 77.699 93.4356 75.2614 94.6045C72.4509 95.952 89.825 103.4 86.5 103.4C74.6259 103.4 65 93.774 65 81.8999C65 70.0258 74.6259 60.3999 86.5 60.3999C98.3741 60.3999 108 70.0258 108 81.8999Z" fill="white"/>
<path fill-rule="evenodd" clip-rule="evenodd" d="M66.309 80.3985C65.626 80.3985 65.0855 79.8143 65.1798 79.1378C66.513 69.5739 74.0826 62.0069 83.6478 60.6776C84.324 60.5837 84.9081 61.1241 84.9081 61.807V63.3653C84.9081 64.3359 85.6949 65.1227 86.6655 65.1227C87.636 65.1227 88.4228 64.3359 88.4228 63.3653V61.8083C88.4228 61.1252 89.007 60.5847 89.6835 60.679C100.232 62.1499 108.35 71.2067 108.35 82.1597C108.35 82.2657 108.35 82.3714 108.348 82.4771C108.336 83.3285 107.404 83.8134 106.618 83.4839C104.925 82.7736 103.066 82.3812 101.115 82.3812C93.2544 82.3812 86.8821 88.7535 86.8821 96.6145C86.8821 98.5652 87.2745 100.424 87.9848 102.117C88.1904 102.607 88.079 103.155 87.7591 103.5C87.5664 103.708 87.2981 103.843 86.978 103.847C86.8725 103.849 86.7666 103.849 86.6606 103.849C75.7044 103.849 66.6455 95.726 65.1786 85.1737C65.0846 84.4973 65.6251 83.9132 66.3079 83.9132H67.8749C68.8454 83.9132 69.6322 83.1264 69.6322 82.156C69.6322 81.1853 68.8454 80.3985 67.8749 80.3985H66.309ZM88.4193 73.4334C88.4193 72.4629 87.6325 71.6761 86.662 71.6761C85.6914 71.6761 84.9046 72.4629 84.9046 73.4334V81.4856C84.9046 81.8086 84.7711 82.117 84.5357 82.3382L80.084 86.5205C79.3766 87.185 79.3419 88.2971 80.0064 89.0046C80.671 89.7118 81.7831 89.7466 82.4905 89.082L87.4957 84.3799C88.0851 83.8262 88.4193 83.0536 88.4193 82.2451V73.4334Z" fill="white"/>
<circle cx="100.5" cy="96.5" r="15.5" fill="#30999C"/>
<circle cx="101" cy="97" r="10" stroke="white" stroke-width="6"/>
<path fill-rule="evenodd" clip-rule="evenodd" d="M101 108C107.075 108 112 103.075 112 96.9999C112 90.9248 107.075 86 101 86C94.9249 86 90 90.9248 90 96.9999C90 103.075 94.9249 108 101 108ZM106.847 95.4939C107.48 94.7255 107.371 93.5888 106.603 92.9549C105.834 92.3213 104.697 92.4305 104.064 93.1989L101.249 96.6122C100.813 97.1421 100.021 97.1982 99.5137 96.7353L98.5606 95.8653C97.825 95.1939 96.6842 95.2461 96.0128 95.9817C95.3414 96.7173 95.3936 97.8581 96.1292 98.5296L98.5966 100.781C99.7493 101.834 101.668 101.774 102.71 100.51L106.847 95.4939Z" fill="white"/>
</g>
<defs>
<filter id="filter0_d_1508_317" x="0.5" y="0" width="176" height="176" filterUnits="userSpaceOnUse" color-interpolation-filters="sRGB">
<feFlood flood-opacity="0" result="BackgroundImageFix"/>
<feColorMatrix in="SourceAlpha" type="matrix" values="0 0 0 0 0 0 0 0 0 0 0 0 0 0 0 0 0 0 127 0" result="hardAlpha"/>
<feOffset dy="4"/>
<feGaussianBlur stdDeviation="4"/>
<feComposite in2="hardAlpha" operator="out"/>
<feColorMatrix type="matrix" values="0 0 0 0 0 0 0 0 0 0 0 0 0 0 0 0 0 0 0.05 0"/>
<feBlend mode="normal" in2="BackgroundImageFix" result="effect1_dropShadow_1508_317"/>
<feBlend mode="normal" in="SourceGraphic" in2="effect1_dropShadow_1508_317" result="shape"/>
</filter>
<linearGradient id="paint0_linear_1508_317" x1="168.5" y1="84" x2="8.5" y2="84" gradientUnits="userSpaceOnUse">
<stop stop-color="#1F8D92"/>
<stop offset="1" stop-color="#51B0B1"/>
</linearGradient>
</defs>
</svg>
