<svg width="70" height="70" viewBox="0 0 70 70" fill="none" xmlns="http://www.w3.org/2000/svg">
<path d="M56.8979 0.583008H13.6146C10.6762 0.586712 7.8593 1.75561 5.78157 3.83333C3.70385 5.91106 2.53495 8.72799 2.53125 11.6663V32.468C2.53125 32.9321 2.71562 33.3773 3.04381 33.7054C3.372 34.0336 3.81712 34.218 4.28125 34.218C4.74538 34.218 5.1905 34.0336 5.51869 33.7054C5.84688 33.3773 6.03125 32.9321 6.03125 32.468V11.6663C6.03372 9.65587 6.83347 7.72846 8.25508 6.30684C9.6767 4.88523 11.6041 4.08548 13.6146 4.08301H56.8979C58.9084 4.08548 60.8358 4.88523 62.2574 6.30684C63.679 7.72846 64.4788 9.65587 64.4812 11.6663V58.333C64.4788 60.3435 63.679 62.2709 62.2574 63.6925C60.8358 65.1141 58.9084 65.9139 56.8979 65.9163H35.2562C34.7921 65.9163 34.347 66.1007 34.0188 66.4289C33.6906 66.7571 33.5062 67.2022 33.5062 67.6663C33.5062 68.1305 33.6906 68.5756 34.0188 68.9038C34.347 69.232 34.7921 69.4163 35.2562 69.4163H56.8979C59.8363 69.4126 62.6532 68.2437 64.7309 66.166C66.8087 64.0883 67.9775 61.2714 67.9812 58.333V11.6663C67.9775 8.72799 66.8087 5.91106 64.7309 3.83333C62.6532 1.75561 59.8363 0.586712 56.8979 0.583008Z" fill="#E69138"/>
<path d="M54.2356 21.8027C54.6997 21.8027 55.1449 21.6184 55.473 21.2902C55.8012 20.962 55.9856 20.5169 55.9856 20.0527C55.9856 19.5886 55.8012 19.1435 55.473 18.8153C55.1449 18.4871 54.6997 18.3027 54.2356 18.3027H16.6689C16.2048 18.3027 15.7597 18.4871 15.4315 18.8153C15.1033 19.1435 14.9189 19.5886 14.9189 20.0527C14.9189 20.5169 15.1033 20.962 15.4315 21.2902C15.7597 21.6184 16.2048 21.8027 16.6689 21.8027H54.2356Z" fill="#E69138"/>
<path d="M55.986 35C55.986 34.5359 55.8017 34.0908 55.4735 33.7626C55.1453 33.4344 54.7002 33.25 54.236 33.25H33.3877C32.9236 33.25 32.4784 33.4344 32.1503 33.7626C31.8221 34.0908 31.6377 34.5359 31.6377 35C31.6377 35.4641 31.8221 35.9092 32.1503 36.2374C32.4784 36.5656 32.9236 36.75 33.3877 36.75H54.236C54.7002 36.75 55.1453 36.5656 55.4735 36.2374C55.8017 35.9092 55.986 35.4641 55.986 35Z" fill="#E69138"/>
<path d="M54.2357 48.1973H41.4023C40.9382 48.1973 40.4931 48.3816 40.1649 48.7098C39.8367 49.038 39.6523 49.4831 39.6523 49.9473C39.6523 50.4114 39.8367 50.8565 40.1649 51.1847C40.4931 51.5129 40.9382 51.6973 41.4023 51.6973H54.2357C54.6998 51.6973 55.1449 51.5129 55.4731 51.1847C55.8013 50.8565 55.9857 50.4114 55.9857 49.9473C55.9857 49.4831 55.8013 49.038 55.4731 48.7098C55.1449 48.3816 54.6998 48.1973 54.2357 48.1973Z" fill="#E69138"/>
<path d="M24.2041 40.6191H8.43547C6.73442 40.6216 5.10375 41.2984 3.90093 42.5013C2.69811 43.7041 2.02127 45.3348 2.0188 47.0358V54.8548C1.99765 58.3367 3.32076 61.6925 5.71247 64.2231C7.02947 65.7705 8.65089 67.0301 10.4758 67.9237C12.3007 68.8173 14.2899 69.3256 16.3198 69.4171C18.35 69.3255 20.3396 68.8171 22.1648 67.9236C23.9901 67.03 25.6119 65.7704 26.9295 64.2231C29.3191 61.6914 30.6411 58.3361 30.6208 54.8548V47.0358C30.6183 45.3348 29.9415 43.7041 28.7387 42.5013C27.5359 41.2984 25.9052 40.6216 24.2041 40.6191ZM27.1208 54.8525C27.1415 57.4365 26.1645 59.9289 24.3931 61.8105C23.3878 62.9968 22.1559 63.9708 20.7697 64.6755C19.3835 65.3803 17.8707 65.8016 16.3198 65.9148C14.7689 65.8013 13.2562 65.3799 11.8701 64.6752C10.4839 63.9705 9.25203 62.9966 8.24647 61.8105C6.47638 59.9282 5.49951 57.4363 5.5188 54.8525V47.0358C5.52004 46.2626 5.82773 45.5215 6.37444 44.9748C6.92115 44.4281 7.6623 44.1204 8.43547 44.1191H24.2041C24.9775 44.1198 25.719 44.4272 26.2658 44.9741C26.8127 45.5209 27.1202 46.2624 27.1208 47.0358V54.8525Z" fill="#E69138"/>
<path d="M19.9523 50.9603L14.9893 55.9233L12.6886 53.6203C12.3603 53.292 11.915 53.1076 11.4508 53.1076C10.9865 53.1076 10.5412 53.292 10.2129 53.6203C9.88463 53.9486 9.7002 54.3939 9.7002 54.8581C9.7002 55.3224 9.88463 55.7677 10.2129 56.096L12.8006 58.6836C13.3811 59.2631 14.1678 59.5886 14.9881 59.5886C15.8083 59.5886 16.5951 59.2631 17.1756 58.6836L22.4256 53.4336C22.5975 53.2734 22.7354 53.0802 22.8311 52.8656C22.9267 52.6509 22.9782 52.4192 22.9823 52.1842C22.9864 51.9492 22.9432 51.7158 22.8552 51.4979C22.7672 51.28 22.6362 51.0821 22.47 50.9159C22.3038 50.7497 22.1059 50.6187 21.888 50.5307C21.6701 50.4427 21.4367 50.3994 21.2017 50.4036C20.9667 50.4077 20.735 50.4592 20.5203 50.5548C20.3057 50.6505 20.1125 50.7884 19.9523 50.9603Z" fill="#E69138"/>
</svg>
