<svg width="70" height="70" viewBox="0 0 70 70" fill="none" xmlns="http://www.w3.org/2000/svg">
<rect x="6" y="4" width="58" height="62" rx="7" fill="#E69138"/>
<path d="M56.8979 0.583008H13.6146C10.6762 0.586712 7.8593 1.75561 5.78157 3.83333C3.70385 5.91106 2.53495 8.72799 2.53125 11.6663V32.468C2.53125 32.9321 2.71562 33.3773 3.04381 33.7054C3.372 34.0336 3.81712 34.218 4.28125 34.218C4.74538 34.218 5.1905 34.0336 5.51869 33.7054C5.84688 33.3773 6.03125 32.9321 6.03125 32.468V11.6663C6.03372 9.65587 6.83347 7.72846 8.25508 6.30684C9.6767 4.88523 11.6041 4.08548 13.6146 4.08301H56.8979C58.9084 4.08548 60.8358 4.88523 62.2574 6.30684C63.679 7.72846 64.4788 9.65587 64.4812 11.6663V58.333C64.4788 60.3435 63.679 62.2709 62.2574 63.6925C60.8358 65.1141 58.9084 65.9139 56.8979 65.9163H35.2562C34.7921 65.9163 34.347 66.1007 34.0188 66.4289C33.6906 66.7571 33.5062 67.2022 33.5062 67.6663C33.5062 68.1305 33.6906 68.5756 34.0188 68.9038C34.347 69.232 34.7921 69.4163 35.2562 69.4163H56.8979C59.8363 69.4126 62.6532 68.2437 64.7309 66.166C66.8087 64.0883 67.9775 61.2714 67.9812 58.333V11.6663C67.9775 8.72799 66.8087 5.91106 64.7309 3.83333C62.6532 1.75561 59.8363 0.586712 56.8979 0.583008Z" fill="white"/>
<path d="M54.2356 21.8027C54.6997 21.8027 55.1449 21.6184 55.473 21.2902C55.8012 20.962 55.9856 20.5169 55.9856 20.0527C55.9856 19.5886 55.8012 19.1435 55.473 18.8153C55.1449 18.4871 54.6997 18.3027 54.2356 18.3027H16.6689C16.2048 18.3027 15.7597 18.4871 15.4315 18.8153C15.1033 19.1435 14.9189 19.5886 14.9189 20.0527C14.9189 20.5169 15.1033 20.962 15.4315 21.2902C15.7597 21.6184 16.2048 21.8027 16.6689 21.8027H54.2356Z" fill="white"/>
<path d="M56 33C56 32.4696 55.6895 31.9609 55.1369 31.5858C54.5843 31.2107 53.8347 31 53.0532 31H17.9468C17.1653 31 16.4157 31.2107 15.8631 31.5858C15.3105 31.9609 15 32.4696 15 33C15 33.5304 15.3105 34.0391 15.8631 34.4142C16.4157 34.7893 17.1653 35 17.9468 35H53.0532C53.8347 35 54.5843 34.7893 55.1369 34.4142C55.6895 34.0391 56 33.5304 56 33Z" fill="white"/>
<path d="M53.75 45H37.25C36.6533 45 36.081 45.2107 35.659 45.5858C35.2371 45.9609 35 46.4696 35 47C35 47.5304 35.2371 48.0391 35.659 48.4142C36.081 48.7893 36.6533 49 37.25 49H53.75C54.3467 49 54.919 48.7893 55.341 48.4142C55.7629 48.0391 56 47.5304 56 47C56 46.4696 55.7629 45.9609 55.341 45.5858C54.919 45.2107 54.3467 45 53.75 45Z" fill="white"/>
<path d="M24.2041 40.6191H8.43547C6.73442 40.6216 5.10375 41.2984 3.90093 42.5013C2.69811 43.7041 2.02127 45.3348 2.0188 47.0358V54.8548C1.99765 58.3367 3.32076 61.6925 5.71247 64.2231C7.02947 65.7705 8.65089 67.0301 10.4758 67.9237C12.3007 68.8173 14.2899 69.3256 16.3198 69.4171C18.35 69.3255 20.3396 68.8171 22.1648 67.9236C23.9901 67.03 25.6119 65.7704 26.9295 64.2231C29.3191 61.6914 30.6411 58.3361 30.6208 54.8548V47.0358C30.6183 45.3348 29.9415 43.7041 28.7387 42.5013C27.5359 41.2984 25.9052 40.6216 24.2041 40.6191ZM27.1208 54.8525C27.1415 57.4365 26.1645 59.9289 24.3931 61.8105C23.3878 62.9968 22.1559 63.9708 20.7697 64.6755C19.3835 65.3803 17.8707 65.8016 16.3198 65.9148C14.7689 65.8013 13.2562 65.3799 11.8701 64.6752C10.4839 63.9705 9.25203 62.9966 8.24647 61.8105C6.47638 59.9282 5.49951 57.4363 5.5188 54.8525V47.0358C5.52004 46.2626 5.82773 45.5215 6.37444 44.9748C6.92115 44.4281 7.6623 44.1204 8.43547 44.1191H24.2041C24.9775 44.1198 25.719 44.4272 26.2658 44.9741C26.8127 45.5209 27.1202 46.2624 27.1208 47.0358V54.8525Z" fill="white"/>
<path d="M27.1208 54.8525C27.1415 57.4365 26.1645 59.9289 24.3931 61.8105C23.3878 62.9968 22.1559 63.9708 20.7697 64.6755C19.3835 65.3803 17.8707 65.8016 16.3198 65.9148C14.7689 65.8013 13.2562 65.3799 11.8701 64.6752C10.4839 63.9705 9.25203 62.9966 8.24647 61.8105C6.47638 59.9282 5.49951 57.4363 5.5188 54.8525V47.0358C5.52004 46.2626 5.82773 45.5215 6.37444 44.9748C6.92115 44.4281 7.6623 44.1204 8.43547 44.1191H24.2041C24.9775 44.1198 25.719 44.4272 26.2658 44.9741C26.8127 45.5209 27.1202 46.2624 27.1208 47.0358V54.8525Z" fill="#E69138"/>
<path d="M18.9467 51.4245L15.5838 55.2067L14.0249 53.4516C13.8025 53.2014 13.5008 53.0609 13.1862 53.0609C12.8716 53.0609 12.5699 53.2014 12.3474 53.4516C12.125 53.7018 12 54.0411 12 54.395C12 54.7488 12.125 55.0881 12.3474 55.3383L14.1008 57.3103C14.4941 57.752 15.0272 58 15.583 58C16.1388 58 16.6719 57.752 17.0652 57.3103L20.6226 53.3094C20.7391 53.1873 20.8325 53.04 20.8973 52.8764C20.9622 52.7129 20.997 52.5363 20.9998 52.3572C21.0026 52.1781 20.9733 52.0002 20.9137 51.8342C20.8541 51.6681 20.7653 51.5173 20.6527 51.3906C20.5401 51.264 20.406 51.1641 20.2583 51.0971C20.1107 51.03 19.9525 50.997 19.7933 51.0002C19.6341 51.0034 19.4771 51.0426 19.3316 51.1155C19.1862 51.1883 19.0552 51.2934 18.9467 51.4245Z" fill="white"/>
</svg>
