<svg width="100" height="100" viewBox="0 0 100 100" fill="none" xmlns="http://www.w3.org/2000/svg">
<path d="M49.9993 83.7064C68.6149 83.7064 83.7057 76.1609 83.7057 66.8532C83.7057 57.5454 68.6149 50 49.9993 50C31.3838 50 16.293 57.5454 16.293 66.8532C16.293 76.1609 31.3838 83.7064 49.9993 83.7064Z" fill="#E69138"/>
<path d="M49.9993 50.0001C68.6149 50.0001 83.7057 44.9698 83.7057 38.7647C83.7057 32.5596 68.6149 27.5293 49.9993 27.5293C31.3838 27.5293 16.293 32.5596 16.293 38.7647C16.293 44.9698 31.3838 50.0001 49.9993 50.0001Z" fill="#E69138"/>
<path d="M83.7057 21.9113C83.7057 18.8085 68.6148 16.2935 49.9993 16.2935C31.3838 16.2935 16.293 18.8085 16.293 21.9113C16.293 25.014 31.3836 27.529 49.9993 27.529C68.615 27.529 83.7057 25.0138 83.7057 21.9113Z" fill="#E69138"/>
</svg>
